<?xml version="1.0" encoding="UTF-8" standalone="no"?>
<svg width="144px" height="224px" viewBox="0 0 144 224" version="1.1" xmlns="http://www.w3.org/2000/svg" xmlns:xlink="http://www.w3.org/1999/xlink">
    <!-- Generator: sketchtool 3.8.3 (29802) - http://www.bohemiancoding.com/sketch -->
    <title>airballoon</title>
    <desc>Created with sketchtool.</desc>
    <defs></defs>
    <g id="Welcome" stroke="none" stroke-width="1" fill="none" fill-rule="evenodd" opacity="0.15">
        <g id="Home_Des_1" transform="translate(-175.000000, -1022.000000)" stroke="#000000">
            <g id="airballoon" transform="translate(176.265970, 1022.939615)">
                <path d="M49.5514327,158.768013 L90.8881763,158.768013 C113.864828,137.493667 141.568356,91.6754771 141.568356,69.9503164 C141.568356,31.3888306 109.906513,0.128488624 70.8491699,0.128488624 C31.7920874,0.128488624 0.129983869,31.3888306 0.129983869,69.9503164 C0.129983869,92.0071021 26.5438196,137.577152 49.5514327,158.768013 L49.5514327,158.768013 Z" id="Stroke-1"></path>
                <path d="M89.77837,222.339973 L50.750167,222.339973 C50.3872217,222.339973 50.0932229,221.97015 50.0932229,221.51433 L50.0932229,204.102576 C50.0932229,203.646429 50.3872217,203.276606 50.750167,203.276606 L89.77837,203.276606 C90.1413154,203.276606 90.4353141,203.646429 90.4353141,204.102576 L90.4353141,221.51433 C90.4353141,221.97015 90.1413154,222.339973 89.77837,222.339973 L89.77837,222.339973 Z" id="Stroke-3"></path>
                <path d="M64.4793359,158.768013 L74.8793463,158.768013 C74.8793463,158.768013 84.2391736,125.782245 85.7991881,69.9503164 C86.1949156,55.7859998 81.5406293,17.3193006 76.8605856,0.377400012 C76.8605856,0.377400012 69.7518001,-0.118881517 60.8394754,0.64172387 C60.8394754,0.64172387 51.060765,31.3461894 51.6854473,67.5865573 C52.2055389,97.7487608 54.5994171,103.834375 64.4793359,158.768013 L64.4793359,158.768013 Z" id="Stroke-5"></path>
                <path d="M50.6321773,158.768013 L61.9201679,158.768013 C61.9201679,158.768013 24.8297549,106.144704 39.2596295,7.57245469 C37.0575008,8.54446779 34.4471562,9.90153576 31.6937149,11.7982971 C28.952762,13.6868384 27.242626,14.6218615 25.5629305,16.3205726 C17.4847297,40.6442756 10.0137793,100.872612 50.6321773,158.768013 L50.6321773,158.768013 Z" id="Stroke-7"></path>
                <path d="M90.8881503,158.768013 L79.6001596,158.768013 C79.6001596,158.768013 118.217025,102.67921 102.828922,7.57245469 L109.926,11.7469222 L117.11492,17.1420572 C125.19312,41.4660172 131.506548,100.872612 90.8881503,158.768013 L90.8881503,158.768013 Z" id="Stroke-9"></path>
                <path d="M81.9664852,193.86606 L57.392093,193.86606 L53.1111591,174.683187 L86.2476793,174.683187 L81.9664852,193.86606 L81.9664852,193.86606 Z M90.7390955,174.683187 L90.7390955,158.768013 L48.8793984,158.768013 L48.8793984,174.683187 L51.5136792,174.683187 L55.7946131,193.86606 L50.7503231,193.86606 C50.3873778,193.86606 50.0931189,194.156585 50.0931189,194.514668 L50.0931189,217.603576 C50.0931189,217.961916 50.3873778,218.252441 50.7503231,218.252441 L89.778266,218.252441 C90.1412113,218.252441 90.4354702,217.961916 90.4354702,217.603576 L90.4354702,194.514668 C90.4354702,194.156585 90.1412113,193.86606 89.778266,193.86606 L83.5637049,193.86606 L87.844899,174.683187 L90.7390955,174.683187 L90.7390955,174.683187 Z" id="Stroke-11"></path>
            </g>
        </g>
    </g>
</svg>