<?xml version="1.0" encoding="UTF-8" standalone="no"?>
<svg width="169px" height="55px" viewBox="0 0 169 55" version="1.1" xmlns="http://www.w3.org/2000/svg" xmlns:xlink="http://www.w3.org/1999/xlink">
    <!-- Generator: sketchtool 3.8.3 (29802) - http://www.bohemiancoding.com/sketch -->
    <title>appstore</title>
    <desc>Created with sketchtool.</desc>
    <defs>
        <polygon id="path-1" points="0.00012569502 54.920423 168.489201 54.920423 168.489201 0.109051552 0.00012569502 0.109051552 0.00012569502 54.920423"></polygon>
    </defs>
    <g id="Welcome" stroke="none" stroke-width="1" fill="none" fill-rule="evenodd">
        <g id="Home_Des_1" transform="translate(-101.000000, -3087.000000)">
            <g id="appstore" transform="translate(101.000000, 3086.731308)">
                <g id="Group-3" transform="translate(0.000000, 0.168367)">
                    <mask id="mask-2" fill="white">
                        <use xlink:href="#path-1"></use>
                    </mask>
                    <g id="Clip-2"></g>
                    <path d="M60.0398663,10.7692015 C60.1649628,10.7833477 60.289782,10.7972165 60.4148785,10.8113626 C60.6925317,10.5045849 61.1610196,10.2141724 61.1890345,9.88631411 C61.2128889,9.60782873 60.7801825,9.12519471 60.4564849,9.02034663 C59.959982,8.859746 59.4862241,9.18677215 59.518677,9.75039993 C59.5386481,10.098784 59.8559661,10.4302482 60.0398663,10.7692015 M123.830215,10.059674 C124.149752,10.2665964 124.452924,10.6077688 124.793264,10.6499299 C125.31695,10.7148358 125.750488,10.322349 125.643698,9.80337872 C125.578238,9.48522859 125.142203,9.08830372 124.809907,9.01618599 C124.283725,8.90218451 123.963633,9.28329896 123.830215,10.059674 M59.6415545,11.5350363 C59.6415545,13.2525477 59.6579197,14.9290075 59.6321238,16.6049125 C59.6235251,17.162438 59.7907828,17.4001492 60.3799291,17.3968206 C60.9796158,17.3934921 61.1280118,17.1219411 61.1188584,16.5818903 C61.0961136,15.2582527 61.1127562,13.9340602 61.111924,12.6098678 C61.1108145,11.3608443 61.1099824,11.3608443 59.6415545,11.5350363 M125.586559,14.4191906 C125.586559,13.6461441 125.57269,12.8730975 125.591552,12.1006057 C125.603756,11.5863508 125.360498,11.4254728 124.881192,11.4496045 C124.462355,11.4706851 124.014947,11.3927425 124.015779,12.028488 C124.017721,13.6017639 124.016334,15.1753173 124.013283,16.7485932 C124.011896,17.3341337 124.38774,17.3921052 124.849294,17.3907184 C125.307519,17.3896089 125.59488,17.2553589 125.588223,16.7377756 C125.578515,15.9650064 125.585727,15.1919598 125.586559,14.4191906 M63.9333914,13.1249548 C63.9333914,11.9125449 63.9103692,10.6993028 63.9436543,9.48772497 C63.9591874,8.92271032 63.7225858,8.78929252 63.209163,8.79373054 C62.7071127,8.79789118 62.4508174,8.91244741 62.4558102,9.48384171 C62.4771681,11.880924 62.4746717,14.2782837 62.4574744,16.6756434 C62.4535911,17.2265119 62.6937987,17.3901636 63.204725,17.3929374 C63.7189799,17.3957111 63.9555815,17.234001 63.9422675,16.6792493 C63.9134204,15.4951316 63.9333914,14.3099045 63.9333914,13.1249548 M79.351052,13.1438164 C79.351052,11.9314064 79.3308036,10.7184417 79.3604828,9.50686391 C79.3735194,8.96376195 79.1746409,8.78097125 78.6412471,8.79428529 C78.1605548,8.80648983 77.8670911,8.87306004 77.8726386,9.46470278 C77.8953834,11.8617851 77.8917775,14.2591448 77.8743029,16.6562271 C77.8704196,17.1898982 78.0704076,17.3846161 78.5988086,17.394879 C79.1743636,17.4056967 79.3760158,17.1862924 79.3607602,16.6154528 C79.3294167,15.4590728 79.3513294,14.3010285 79.351052,13.1438164 M106.617655,10.0496885 C105.967209,10.2125081 105.184731,10.0749297 105.208863,11.0956729 C105.211359,11.211616 104.957561,11.3233985 104.843836,11.4554294 C104.690725,11.6326726 104.465496,11.8179597 104.44497,12.0176703 C104.427218,12.1904755 104.650228,12.3890766 104.769777,12.5746411 C104.924275,12.8145712 105.196936,13.0436837 105.21663,13.2935993 C105.277652,14.0613758 105.213578,14.8383056 105.250747,15.6091331 C105.319259,17.0298524 106.250687,17.7327228 107.598734,17.3676962 C107.780137,17.3186006 108.005921,16.9915745 107.998432,16.8018494 C107.989556,16.5746785 107.759889,16.1716514 107.61177,16.1652718 C106.779365,16.1289355 106.701977,15.6005345 106.70697,14.9711686 C106.710853,14.4469282 106.739423,13.9201914 106.699204,13.3990022 C106.652882,12.7932133 106.866739,12.5175016 107.493053,12.5860135 C107.932417,12.6339995 108.243355,12.4204201 108.123806,11.9768961 C108.065835,11.7619298 107.709961,11.4801159 107.492221,11.483167 C106.862855,11.4917657 106.639013,11.2493391 106.699758,10.6468788 C106.717788,10.4671392 106.651772,10.2785236 106.617655,10.0496885 M53.3359688,11.5788617 C51.8686504,11.3014858 51.8361975,11.3184057 51.4384404,12.5521736 C51.1383198,13.4841566 50.8426371,14.4175264 50.5067349,15.4701678 C50.1558544,14.3817449 49.8474124,13.4159221 49.5331456,12.4520409 C49.1611845,11.3109166 48.9525979,11.213835 47.6550335,11.6357237 C48.3071442,13.4120388 48.9359553,15.1955657 49.6379937,16.9496907 C49.7278634,17.1738104 50.1988477,17.3480025 50.4975815,17.3546595 C50.7619207,17.3607618 51.1876927,17.1643797 51.2753434,16.9488586 C51.9884768,15.1980621 52.6386459,13.4214696 53.3359688,11.5788617 M155.781419,16.038511 C155.444408,16.1028622 155.124038,16.1733157 154.800618,16.2243528 C154.082215,16.3369674 153.41041,16.2421049 152.923061,15.6457467 C152.779658,15.4704452 152.750533,15.201668 152.668985,14.9756066 C152.887002,14.9018247 153.103355,14.7717354 153.323592,14.764801 C154.151004,14.739005 154.981745,14.7850494 155.80666,14.7312385 C156.023014,14.7170923 156.364741,14.4716147 156.406347,14.2796706 C156.642117,13.1954083 155.921494,11.8648362 154.955117,11.4751231 C153.774327,10.9985914 152.407142,11.39829 151.723688,12.4198653 C150.947867,13.5790191 150.925122,15.3015233 151.676811,16.3242081 C152.498953,17.4425877 153.654501,17.5599177 155.284916,17.3205423 C156.038547,17.2098693 156.303718,16.8323607 155.781419,16.038511 M82.0357731,14.7534286 C83.1341815,14.7534286 84.1485451,14.778115 85.1601349,14.7340123 C85.3814809,14.7243041 85.7470623,14.5015713 85.7842306,14.3229412 C86.1869804,12.3793685 84.4458921,10.8382681 82.5430936,11.4046696 C81.285194,11.7791271 80.7448658,12.7360738 80.5709511,13.9127023 C80.3920437,15.1259444 80.6605435,16.2654045 81.767828,16.9666107 C82.8454333,17.6489553 84.0356531,17.5416108 85.1881499,17.1349778 C85.3279473,17.0856049 85.4322407,16.6759207 85.3922985,16.4637282 C85.3640062,16.3128357 85.0735937,16.1297676 84.8849781,16.1106287 C84.6231352,16.084278 84.3490879,16.2110388 84.0769821,16.2493166 C83.0149099,16.3985449 82.315368,15.9317213 82.0357731,14.7534286 M116.512762,14.7534286 C117.612003,14.7534286 118.625811,14.778115 119.636569,14.7342896 C119.860134,14.7245815 120.228489,14.5060093 120.267045,14.3271018 C120.673955,12.4415007 118.961436,10.8665604 117.101908,11.3727714 C115.844009,11.7150532 115.252089,12.646204 115.062641,13.8272705 C114.86404,15.0635348 115.104247,16.2401632 116.245094,16.9643917 C117.321313,17.6472911 118.51181,17.5493774 119.663752,17.1310946 C119.805768,17.0795026 119.909784,16.6745339 119.872061,16.4612318 C119.845711,16.3120036 119.55613,16.1267165 119.369456,16.1084097 C119.107336,16.0823364 118.833566,16.2093745 118.56146,16.2484845 C117.498001,16.4010413 116.794299,15.9350498 116.512762,14.7534286 M58.2782521,17.466442 C58.2782521,15.9253416 58.3303988,14.6019813 58.2602227,13.2852781 C58.2114045,12.3685508 57.7495737,11.5885698 56.7723785,11.4393416 C56.0603546,11.3306103 55.2923008,11.3699977 54.5841602,11.5142331 C53.7772738,11.6784396 53.7387186,11.9821662 54.2712802,12.7183218 C56.2617295,12.2512208 56.5219081,12.3189005 56.6747422,13.2550441 C55.8861626,13.5116168 55.0715096,13.6797066 54.3508871,14.0372441 C53.5531541,14.4327821 53.28299,15.3814075 53.543446,16.2748352 C53.7489815,16.9799247 54.4837502,17.4914058 55.3508271,17.4278867 C55.8575929,17.3909957 56.3538183,17.2065408 56.6564354,17.1349778 C57.2550125,17.2573006 57.7024198,17.3488346 58.2782521,17.466442 M68.2995651,17.1715914 C68.7128551,17.2315046 69.1266999,17.3269219 69.53999,17.3258124 C69.6379037,17.3252577 69.8195849,16.9998958 69.8187527,16.8248716 C69.8112636,15.6396445 69.7793654,14.4535852 69.7274961,13.2691903 C69.6850576,12.3005937 69.1217072,11.5375327 68.1669794,11.3955162 C67.4807515,11.2934419 66.7373841,11.3655596 66.0530979,11.5145105 C65.2722848,11.6842645 65.2254083,12.0401378 65.7682328,12.7452272 C67.5772783,12.2132203 68.0721168,12.3394263 68.1503368,13.384856 C66.842787,13.5623766 65.4253963,13.6270051 64.9910256,15.2391137 C64.8010232,15.9442032 64.9799306,16.64957 65.6231653,17.081999 C66.5293522,17.6908391 67.4458021,17.5199755 68.2995651,17.1715914 M146.968633,11.8983987 C146.953377,11.8201787 146.938122,11.7422361 146.922866,11.6642935 C146.545635,11.5980006 146.166739,11.4798385 145.792282,11.4925978 C145.654703,11.4973132 145.415605,11.8104705 145.413664,11.9852173 C145.395634,13.5596028 145.42143,15.134543 145.431971,16.7092058 C145.435577,17.2550816 145.740135,17.3976528 146.238302,17.3940469 C146.755054,17.390441 147.001918,17.2112562 146.988881,16.6670447 C146.968078,15.7833252 146.977509,14.8987735 146.988327,14.0147766 C146.999144,13.0966625 147.422143,12.5788017 148.126955,12.5932253 C148.782394,12.6065393 149.143537,13.0816842 149.163786,14.0178277 C149.182647,14.9015473 149.190969,15.7869311 149.161289,16.6700959 C149.142982,17.2198548 149.376256,17.3954338 149.89689,17.3929374 C150.407262,17.3907184 150.66217,17.2342784 150.646082,16.6773076 C150.6189,15.7386677 150.625557,14.7983635 150.643586,13.8594461 C150.661893,12.883083 150.403656,12.0287654 149.509396,11.5347589 C148.601545,11.032986 147.749169,11.3034274 146.968633,11.8983987 M144.840328,14.3340362 C144.839773,12.4770048 143.739423,11.2976026 142.005269,11.2948288 C140.270838,11.292055 139.070355,12.548013 139.059815,14.37592 C139.049274,16.1957831 140.18818,17.4334343 141.891268,17.4528506 C143.696707,17.473099 144.840883,16.2631854 144.840328,14.3340362 M91.9450262,17.4423103 C93.728553,17.5047199 94.9634304,16.3022954 95.049417,14.419468 C95.1268048,12.7230372 93.9249352,11.3514135 92.3136587,11.2967704 C90.5251391,11.2360251 89.244772,12.456479 89.1707127,14.2924299 C89.0988723,16.0701318 90.2555297,17.3832292 91.9450262,17.4423103 M97.4379006,11.6146432 C96.8767692,11.5661024 96.4265882,11.435181 96.0393714,11.5389196 C95.8859826,11.5799712 95.8105364,12.1408252 95.8052662,12.4664645 C95.7827988,13.847519 95.8141422,15.2296829 95.7958354,16.6107374 C95.7883463,17.1799127 96.0157945,17.39266 96.5819187,17.3976528 C97.1571962,17.4023682 97.3807612,17.1663213 97.3741042,16.6112922 C97.3630091,15.699835 97.3594032,14.7872684 97.3868634,13.876366 C97.4118273,13.0456253 97.816796,12.587123 98.4830529,12.5962764 C99.3149031,12.6076488 99.4522042,13.187087 99.4596933,13.8466868 C99.470511,14.7858815 99.481606,15.725631 99.4688468,16.6648257 C99.4608029,17.2681182 99.7853326,17.3984849 100.312902,17.3946016 C100.840748,17.3909957 101.064868,17.1821317 101.055992,16.6534533 C101.038794,15.6587834 101.079014,14.663004 101.042123,13.669721 C100.996078,12.4348436 100.36588,11.4626412 99.4092109,11.3661144 C98.7376839,11.2981573 98.035923,11.5297662 97.4379006,11.6146432 M134.559391,11.9169829 C134.559391,11.0501833 134.533595,10.2768593 134.56799,9.50603178 C134.592399,8.95793706 134.377155,8.78291288 133.845426,8.79400791 C133.357244,8.80427082 133.074875,8.88415507 133.0807,9.47191455 C133.103445,11.8748217 133.100671,14.2782837 133.082365,16.6814683 C133.077927,17.2409354 133.328397,17.3898862 133.83544,17.3929374 C134.359403,17.3962659 134.582968,17.2126431 134.567435,16.66649 C134.540252,15.7006672 134.528602,14.7315159 134.577975,13.76708 C134.616808,13.0120628 135.156027,12.5383048 135.808137,12.5968311 C136.556497,12.6639561 136.737069,13.1834811 136.739843,13.8242194 C136.743726,14.7634141 136.758427,15.7028862 136.739288,16.6418035 C136.72847,17.164657 136.928459,17.3857256 137.464626,17.3951564 C138.00967,17.4048645 138.311177,17.2312272 138.300082,16.6523438 C138.280943,15.6316006 138.340024,14.6030908 138.234899,13.5912237 C138.003845,11.3663918 136.547067,10.6834924 134.559391,11.9169829 M128.550043,14.3947816 C129.150562,14.3351457 129.615444,14.308795 130.073946,14.2397284 C131.305217,14.0544414 132.152323,13.143539 132.2605,11.9150412 C132.370063,10.6696236 131.844436,9.62225227 130.743254,9.40534434 C129.714189,9.20258258 128.627153,9.2805252 127.565359,9.26332789 C127.120448,9.25611612 126.965672,9.54070377 126.967614,9.97202325 C126.977876,12.2040669 126.978986,14.4363879 126.967336,16.668709 C126.964562,17.2065408 127.206434,17.3890541 127.722076,17.394879 C128.257134,17.4012587 128.566963,17.2495341 128.553926,16.6562271 C128.537838,15.9172977 128.550043,15.1775363 128.550043,14.3947816 M110.467355,11.8296095 C110.467355,11.0019199 110.448216,10.2879544 110.472902,9.57537575 C110.494538,8.95072528 110.204125,8.78929252 109.617475,8.78901515 C108.996153,8.78873777 108.88659,9.08608471 108.889364,9.60727398 C108.902123,11.9230851 108.906561,14.2388963 108.88659,16.5547075 C108.881597,17.1455181 109.076038,17.3957111 109.69514,17.3998718 C110.356127,17.4045872 110.480669,17.059809 110.47318,16.5158749 C110.461253,15.6612798 110.460421,14.8064074 110.47845,13.9520897 C110.498144,13.019552 110.845696,12.5987728 111.559661,12.5923931 C112.24256,12.5862909 112.537688,12.9582519 112.557105,13.9071548 C112.575966,14.8163929 112.579572,15.7267405 112.565426,16.636256 C112.55655,17.2131978 112.827824,17.397098 113.378692,17.3968206 C113.951196,17.3965433 114.169213,17.1660439 114.155622,16.6049125 C114.132322,15.6682142 114.174206,14.7295742 114.141476,13.7931533 C114.067694,11.6573591 112.494418,10.6166448 110.467355,11.8296095 M48.0602797,17.2611838 C48.0031403,16.9785378 47.9770669,16.7352792 47.9041171,16.5069988 C47.1995823,14.3040796 46.4723028,12.1086496 45.786907,9.89990552 C45.6077222,9.32240895 45.2929006,9.1321291 44.706528,9.13712187 C44.1173816,9.14239201 43.7357124,9.25251023 43.5432136,9.89962815 C43.0089876,11.6934179 42.4062499,13.4669593 41.8379067,15.2507635 C41.6323712,15.8956624 41.4465293,16.5466636 41.2534757,17.1898982 C42.4453599,17.5915385 42.7030421,17.4681062 43.0267397,16.4096399 C43.1071787,16.1464102 43.1415733,15.8629321 43.2605676,15.6199508 C43.3598681,15.4174664 43.5201914,15.1595068 43.7085296,15.0995937 C44.9941668,14.6896321 45.8501487,15.1317693 46.251789,16.362486 C46.6123776,17.4681062 46.7102913,17.5219172 48.0602797,17.2611838 M72.5553431,11.8617851 C72.5553431,11.0956729 72.5400874,10.4025106 72.5600585,9.71018043 C72.5758689,9.16680109 72.5667155,8.76405132 71.8039319,8.78291288 C71.1043899,8.80011018 71.0766523,9.15459655 71.0794261,9.67523107 C71.0910759,11.9619178 71.0694405,14.2491592 71.1016161,16.5358459 C71.1054994,16.8151634 71.3365535,17.3041771 71.5046433,17.323316 C71.8341658,17.3604844 72.193645,17.1352552 72.6651839,16.9765962 C72.8704421,17.064247 73.2534982,17.3066735 73.6681751,17.3898862 C74.8450809,17.6264879 75.856116,17.0922619 76.3983858,16.0218684 C77.0704676,14.6943475 76.8463479,12.8600608 75.8993866,11.9363992 C75.078354,11.1361698 74.0512312,11.0870743 72.5553431,11.8617851 M138.700058,30.9286026 C138.6787,30.5893719 138.673708,30.4792537 138.664831,30.3696903 C138.515326,28.531243 138.515326,28.531243 136.646367,28.533462 C135.433403,28.5351262 135.437008,28.5345715 135.550733,29.7799891 C135.575696,30.0543139 135.57209,30.3316898 135.572368,30.6076788 C135.574309,34.0324387 135.574864,37.4571986 135.575419,40.8819585 C135.575696,43.4854084 135.575419,43.4654374 138.197176,43.4418604 C138.848177,43.4360355 139.057596,43.2366023 139.048442,42.5828274 C139.015712,40.2356727 139.022369,37.8876859 139.040398,35.5402539 C139.057318,33.3267944 140.116617,31.899973 142.004992,31.5582459 C142.45018,31.4778069 142.922551,31.5463187 143.512807,31.5463187 C143.512807,30.8367912 143.513362,30.156943 143.512807,29.4768173 C143.511975,28.2083774 143.262891,28.016156 141.983911,28.2682906 C140.499118,28.5611996 139.477543,29.4524082 138.700058,30.9286026 M109.378932,31.115554 C109.743681,31.1377441 109.986385,31.1624305 110.229644,31.165759 C111.451762,31.1835111 111.44455,31.1815694 111.455923,32.3961984 C111.478113,34.7685942 111.44566,37.1443186 111.553281,39.5131086 C111.694188,42.6166672 113.531249,43.9375311 116.497506,43.6501697 C118.692104,43.4374224 118.267164,43.5769425 118.305442,41.4272795 C118.31626,40.8192715 118.130696,40.5998672 117.464993,40.726628 C115.889498,41.0267487 115.016319,40.3080678 114.985253,38.7023389 C114.947253,36.7432331 114.955851,34.7830178 114.962231,32.8236346 C114.968333,30.8856094 114.757805,31.1851753 116.647567,31.1710292 C118.654936,31.1560509 118.670469,31.1660364 118.450787,29.109849 C118.42832,28.9007076 118.091031,28.581448 117.877729,28.5625864 C117.110784,28.4946293 116.330526,28.5756231 115.564137,28.505447 C115.348338,28.4857533 115.059035,28.1723186 114.988027,27.9376586 C114.888172,27.6086908 114.967778,27.227299 114.957793,26.8689294 C114.940041,26.2315196 114.912303,25.5941098 114.885675,24.8784801 C114.304295,25.0351975 113.906538,25.1353301 113.512942,25.249609 C111.589618,25.8085214 111.584625,25.8096309 111.455923,27.8322558 C111.430404,28.233896 111.357731,28.4979579 110.863448,28.5417832 C109.369779,28.6738142 109.371443,28.6923983 109.378655,30.2032647 C109.379764,30.4753705 109.378932,30.7474762 109.378932,31.115554 M147.813243,36.8045332 L148.688086,36.8045332 C151.312617,36.8045332 153.937702,36.771248 156.5614,36.8245042 C157.358856,36.8408694 157.610158,36.5130111 157.582698,35.8228999 C157.554128,35.1081023 157.542479,34.3863703 157.430974,33.6823903 C157.029888,31.1532771 155.82469,29.2038795 153.248423,28.438322 C150.562592,27.6397569 147.745563,28.5670245 146.098505,30.6706431 C144.395417,32.8455473 144.080041,35.3327768 144.506367,37.9606358 C144.880547,40.2684031 146.086023,42.0613607 148.260095,42.9667156 C150.899049,44.0656788 153.604296,43.8013396 156.26128,42.9012549 C156.445457,42.8388453 156.70619,42.5514839 156.683723,42.406971 C156.575824,41.711035 156.38277,41.028413 156.244914,40.4453689 C154.738486,40.6289917 153.354658,40.9271708 151.968611,40.9382658 C149.417585,40.959069 147.748891,39.2656893 147.813243,36.8045332 M133.728928,35.829557 C133.728928,35.6084884 133.731702,35.3876972 133.72865,35.1666286 C133.688708,32.2547367 131.868013,29.5988627 129.282593,28.6801938 C126.220363,27.5917709 122.84026,28.3834016 120.980455,30.6944974 C119.342828,32.7298816 118.908457,35.086467 119.32785,37.6288942 C119.75806,40.2362275 121.049244,42.2638451 123.565598,43.2144122 C126.237838,44.2235056 128.853492,43.9577796 131.120762,42.0929816 C133.07127,40.4886395 133.771366,38.2973701 133.728928,35.829557 M96.7497311,39.7469364 C96.6254667,40.1727084 96.4981511,40.8198263 96.247126,41.4150749 C95.8979098,42.2435967 96.2435201,42.6333098 96.9793983,42.9059702 C99.6591266,43.8986985 102.376301,44.0351674 105.061576,43.0524247 C107.264218,42.246093 108.573155,40.5882174 108.816136,38.2296904 C109.043585,36.0248296 108.264158,34.1935941 106.384659,32.9601035 C105.445742,32.3440517 104.39948,31.8919291 103.401205,31.3665791 C102.597647,30.9441357 101.764409,30.5694009 100.996356,30.089818 C100.087395,29.5217522 99.7356823,28.6241639 99.9265169,27.583727 C100.115133,26.555772 100.831594,25.8501278 101.81406,25.7339073 C102.995126,25.5943872 104.211697,25.6837022 105.406355,25.7671924 C106.03045,25.8110178 106.9089,26.3746455 107.194597,26.1347154 C107.641449,25.7597032 107.649216,24.8881882 107.906066,24.2524427 C108.113266,23.7398521 107.955162,23.4774545 107.476688,23.3052041 C104.811938,22.3465931 102.131378,22.1330137 99.5248767,23.4072784 C95.6821113,25.2859452 95.2291565,30.0756718 98.6605735,32.6242014 C99.5983813,33.3206922 100.735345,33.7489605 101.77911,34.3037123 C102.627603,34.7547254 103.558199,35.1025548 104.303786,35.6861536 C105.996056,37.0111782 105.558079,39.6548476 103.541279,40.3682584 C102.835358,40.618174 102.011551,40.7571394 101.278724,40.6617221 C99.7994788,40.4692232 98.3454745,40.0814517 96.7497311,39.7469364 M58.3844871,43.4224441 C58.3270703,43.07406 58.3195811,42.8804517 58.2621643,42.7026537 C56.1971009,36.3027602 54.1234389,29.9059178 52.0664194,23.5035279 C51.9105342,23.0183975 51.6431438,22.8677824 51.1577361,22.8855344 C50.3025862,22.9168779 49.4421663,22.9382358 48.5897902,22.8805417 C47.8663939,22.8317235 47.5371488,23.0727631 47.3094232,23.7933857 C45.3406092,30.0210288 43.3238093,36.2336936 41.3258708,42.4521833 C41.2379427,42.7259533 41.1921757,43.0133147 41.0959262,43.4279916 C42.1050197,43.4279916 42.9843012,43.3916554 43.8588673,43.4404736 C44.4824083,43.4751455 44.7348203,43.2044267 44.8918151,42.6410763 C45.3062146,41.1551737 45.7788631,39.6856364 46.2090731,38.2038944 C46.3571918,37.6938002 46.5871364,37.4297384 47.1876552,37.4455488 C48.8438665,37.4888194 50.5025743,37.4788339 52.1596177,37.4499868 C52.6966174,37.440556 52.94792,37.6363834 53.1001993,38.1448134 C53.5581469,39.6759282 54.0405035,41.2009408 54.5641892,42.7104203 C54.6609934,42.9900151 54.9813625,43.3722391 55.2224021,43.3902685 C56.2326051,43.4665469 57.251684,43.4224441 58.3844871,43.4224441 M79.7995688,42.2732759 C80.5315637,42.6951646 81.1110019,43.145623 81.7672732,43.3874948 C84.9235333,44.5513639 88.4720029,42.8774005 89.7670708,39.6581761 C90.5634169,37.6785445 90.6954479,35.6209703 90.2466537,33.5647829 C89.7160337,31.1330287 88.4312286,29.1861274 85.9209769,28.4724393 C83.4279226,27.7634665 81.2352663,28.4011537 79.5418866,30.4578958 C79.5216382,30.4823049 79.4459146,30.4609469 79.3380153,30.4609469 C79.3380153,30.1599941 79.3280298,29.8590413 79.3402343,29.5589206 C79.3704683,28.809451 79.0911508,28.425008 78.270673,28.5229217 C77.7805498,28.581448 77.2771126,28.5514914 76.7808872,28.5298561 C76.3087934,28.5093303 76.1853612,28.696559 76.1875802,29.168098 C76.2164273,35.1047738 76.2230843,41.0411722 76.2325151,46.9778481 C76.2361209,49.3796458 76.2330698,49.3796458 78.6476268,49.3582878 C79.7535244,49.3485797 79.7962403,49.309747 79.7984593,48.172506 C79.8023425,46.2181156 79.7995688,44.2634478 79.7995688,42.2732759 M63.7178704,42.1559459 C66.8280861,44.9208286 71.413664,43.8387853 73.1769424,40.6212252 C74.9147023,37.4494321 74.9751702,34.134513 73.1114817,31.0007204 C71.0500242,27.5351862 66.3113348,27.2331239 63.6429789,30.2651196 C63.5625399,30.3563762 63.4637941,30.4315451 63.2377327,30.6390222 C63.2377327,30.0312917 63.2954269,29.5847165 63.2147105,29.1644921 C63.1703304,28.933438 62.9059912,28.5831123 62.7190399,28.5689661 C61.8799778,28.5040601 61.0331493,28.5406737 60.1641307,28.5406737 C60.1461013,28.7936405 60.1277944,28.9270583 60.1280718,29.0604761 C60.1361157,35.025999 60.1472108,40.9912446 60.1549773,46.9567675 C60.1583058,49.3918503 60.155532,49.3918503 62.6363818,49.3580104 C63.6485264,49.344419 63.7128776,49.2878343 63.7159288,48.2673685 C63.722031,46.2824668 63.7178704,44.2972876 63.7178704,42.1559459 M32.2174019,27.6125741 C32.2174019,22.8891403 32.2304386,18.1654292 32.2121318,13.4419954 C32.2018689,10.724544 30.6535567,9.17290336 27.9386017,9.15820244 C24.0714272,9.13739925 20.2039754,9.14045038 16.336801,9.1609762 C15.150187,9.16707846 14.0487274,9.46470278 13.1827599,10.3700576 C12.292106,11.3014858 12.1129212,12.4545373 12.1118117,13.6636188 C12.1070963,19.87878 12.1095927,26.0939412 12.1095927,32.3091024 C12.1095927,35.4304131 12.0918406,38.5520012 12.115695,41.6733119 C12.1367755,44.4176688 13.667613,45.9146663 16.3925536,45.9152211 C20.3426634,45.9160532 24.2927732,45.9088415 28.2426056,45.9199365 C29.2234067,45.9224329 30.0868778,45.6372905 30.844114,45.0226255 C31.928931,44.1416798 32.213796,42.9309341 32.2154603,41.6175593 C32.2207304,36.9493234 32.2174019,32.28081 32.2174019,27.6125741 M84.4802867,0.146260298 C110.038532,0.146260298 135.5965,0.185925048 161.154467,0.109091931 C165.642132,0.0955005133 168.401189,3.51526766 168.456942,6.95334162 C168.461103,7.2018704 168.484125,7.45012181 168.484125,7.69865059 C168.485512,20.9059028 168.480519,34.113155 168.489395,47.3204073 C168.491337,50.1762693 167.343555,52.3908382 164.915129,53.9053105 C163.714369,54.6542254 162.38879,54.9216157 160.967793,54.9205062 C142.400252,54.9052505 123.832711,54.9102433 105.26517,54.9102433 C72.6613007,54.9102433 40.0577083,54.9110754 7.45383864,54.9088564 C3.93088767,54.9085791 1.05505461,52.6757033 0.220985359,49.2584325 C0.0595526001,48.5977232 0.0270996229,47.892079 0.0265448711,47.2069605 C0.015727212,34.0826437 0.0512313239,20.9583269 0.000194163111,7.83401002 C-0.0164483893,3.55493241 3.00362012,0.766750128 6.07528055,0.244451358 C6.64140471,0.148201929 7.22888681,0.15014356 7.80638338,0.149866185 C33.3643511,0.145705546 58.9223189,0.146260298 84.4802867,0.146260298" id="Fill-1" fill="#212121" mask="url(#mask-2)"></path>
                </g>
                <path d="M44.6244525,11.0940364 C44.3137915,12.1502837 44.0641532,12.9990539 43.8034199,13.8855472 L45.475719,13.8855472 C45.197511,12.9727032 44.9448216,12.1441815 44.6244525,11.0940364" id="Fill-4" fill="#212121"></path>
                <path d="M140.627599,14.6200662 C140.639248,14.7385057 140.646183,14.9321141 140.679468,15.1210071 C140.797907,15.7986363 141.11578,16.337855 141.853877,16.4188488 C142.633858,16.5042806 142.963103,15.9462003 143.196377,15.3198856 C143.253516,15.1662193 143.287911,15.0025676 143.318977,14.8411348 C143.507038,13.8667134 142.860197,12.7164356 142.070508,12.6146387 C141.299403,12.5150607 140.653117,13.3430277 140.627599,14.4636262 C140.627044,14.4910865 140.627599,14.518824 140.627599,14.6200662" id="Fill-6" fill="#212121"></path>
                <path d="M118.854508,13.7274984 C118.682812,12.9774741 118.382969,12.5661256 117.705617,12.6016297 C117.018557,12.6374112 116.715663,13.0656796 116.602216,13.7274984 L118.854508,13.7274984 Z" id="Fill-8" fill="#212121"></path>
                <path d="M81.9998806,13.4680133 C82.0595165,13.5761899 82.1194296,13.6846438 82.1790655,13.7928204 C82.7460217,13.7928204 83.312978,13.8022512 83.8796569,13.7900467 C84.3767145,13.779229 84.4815626,13.4513707 84.1850478,13.1601261 C83.9098909,12.8896846 83.4316949,12.5820747 83.1224208,12.6500318 C82.7082986,12.7412885 82.3704548,13.1789876 81.9998806,13.4680133" id="Fill-10" fill="#212121"></path>
                <path d="M29.6354763,27.5304985 C29.6354763,30.9264114 29.6185564,34.3223242 29.6493451,37.7176823 C29.6557248,38.4158373 29.4970658,38.6873883 28.7370559,38.6815634 C24.3475827,38.6482783 19.9575547,38.652439 15.5680815,38.6785123 C14.8746418,38.6826729 14.6779823,38.4585532 14.6802013,37.7773181 C14.7015593,30.9580322 14.704333,24.1387464 14.6774276,17.3197379 C14.6743764,16.5674945 14.927898,16.3963536 15.6329875,16.4007916 C19.9950004,16.4288066 24.3572908,16.4310256 28.7193038,16.3994047 C29.4560141,16.3941346 29.6576664,16.6226923 29.6504546,17.3433148 C29.6168921,20.7386729 29.6354763,24.1345857 29.6354763,27.5304985" id="Fill-12" fill="#212121"></path>
                <path d="M24.0002526,41.7696168 C24.0143988,42.7934111 23.2258192,43.6086188 22.2036891,43.6266482 C21.1732377,43.644955 20.3405553,42.8544338 20.3294603,41.8475594 C20.3183652,40.8531669 21.1477191,39.9819293 22.1285202,39.9577976 C23.0990584,39.9339432 23.9869385,40.7932537 24.0002526,41.7696168" id="Fill-14" fill="#212121"></path>
                <path d="M63.6356562,36.2480339 C63.7313508,35.403147 63.736621,34.5357927 63.9429886,33.7189207 C64.2944239,32.3284355 65.5281918,31.3626127 66.9392028,31.2655311 C68.4117913,31.1640115 69.5512514,31.7831145 70.1661937,33.108139 C71.1089943,35.1396399 71.1112133,37.2329957 70.1112733,39.2481314 C69.3526503,40.7770272 67.9269383,41.35175 66.2232957,40.9706356 C64.8242118,40.6577556 63.8106803,39.3510378 63.7407816,37.7466958 C63.7191463,37.2510251 63.7374531,36.7536902 63.7374531,36.2571873 C63.7036133,36.2541362 63.669496,36.2510851 63.6356562,36.2480339" id="Fill-16" fill="#212121"></path>
                <path d="M79.7138596,36.1883149 C79.8139923,35.3442601 79.7934665,34.4627596 80.0408858,33.6641945 C80.4763659,32.2606725 81.4885105,31.4168951 82.9949389,31.2654479 C84.3732196,31.1270373 85.6225205,31.7650019 86.2363533,33.0858658 C87.1797087,35.1165345 87.1952417,37.2101676 86.2002945,39.2258581 C85.4250289,40.7960829 83.9651997,41.3755211 82.2426955,40.9611216 C80.8882691,40.6349275 79.8891612,39.3301514 79.8200946,37.7707443 C79.7970724,37.2476134 79.8164887,36.7225408 79.8164887,36.1983004 C79.7823715,36.1949719 79.7479769,36.1916434 79.7138596,36.1883149" id="Fill-18" fill="#212121"></path>
                <path d="M52.1421708,34.7657927 L47.1935078,34.7657927 C48.02092,31.9784426 48.8219816,29.2804075 49.6255395,26.5737737 C50.4560028,29.2773563 51.2889626,31.9884281 52.1421708,34.7657927" id="Fill-20" fill="#212121"></path>
                <path d="M130.111863,36.0112382 C130.176769,37.5795213 129.772632,38.9614079 128.781846,40.1194522 C127.501479,41.6158951 125.271377,41.5717923 123.996003,40.0692472 C122.373631,38.1575727 122.330915,34.2132877 123.911403,32.2511308 C125.346823,30.4692682 127.93474,30.5985254 129.173501,32.5282293 C129.861115,33.5997323 130.184258,34.7805214 130.111863,36.0112382" id="Fill-22" fill="#212121"></path>
                <path d="M147.864918,34.4253693 C147.730113,32.7910707 149.106729,31.1481734 150.847263,30.8660821 C152.310976,30.6289257 153.774411,31.7539623 154.118079,33.3804944 C154.316958,34.3216308 154.174941,34.5016477 153.213557,34.5010929 C151.479957,34.4999834 149.746358,34.4944359 148.012759,34.4869468 C147.963386,34.4866694 147.914013,34.4475594 147.864918,34.4253693" id="Fill-24" fill="#212121"></path>
                <path d="M75.2581491,14.6802568 C75.1985133,14.9132525 75.2104404,15.3448494 75.0007443,15.5745166 C74.6784335,15.9273387 74.190252,16.372527 73.7977651,16.3495048 C73.4088841,16.3264826 72.9198705,15.8380237 72.716554,15.4327776 C72.5143469,15.029473 72.5271062,14.461962 72.6003335,13.9907004 C72.7071232,13.3022535 73.0591132,12.7533266 73.8865254,12.7458375 C74.6748276,12.7389031 74.9818827,13.2656399 75.1727173,13.905546 C75.2340174,14.1110815 75.2231997,14.3382524 75.2581491,14.6802568" id="Fill-26" fill="#212121"></path>
                <path d="M44.6244525,11.0940364 C44.9448216,12.1441815 45.197511,12.9727032 45.475719,13.8855472 L43.8034199,13.8855472 C44.0641532,12.9990539 44.3137915,12.1502837 44.6244525,11.0940364" id="Fill-28" fill="#212121"></path>
                <path d="M128.395489,11.7955477 C128.581886,11.3955717 128.677858,10.7614905 128.97465,10.6463795 C129.518029,10.4361286 130.284419,10.5024214 130.550977,11.1428823 C130.730994,11.5747565 130.74514,12.3353212 130.479414,12.6287848 C130.1363,13.0076803 129.445079,13.084236 128.889218,13.2398439 C128.828473,13.2567638 128.609068,12.9474897 128.576061,12.7688597 C128.52225,12.4770602 128.561637,12.1677861 128.561637,11.8660012 C128.506162,11.8427016 128.450964,11.8191247 128.395489,11.7955477" id="Fill-30" fill="#212121"></path>
                <path d="M90.7792431,14.5405703 C90.7709218,13.3958401 91.3467542,12.5795229 92.1350564,12.6094795 C92.9053292,12.638604 93.4953077,13.5195497 93.4614678,14.6040894 C93.4556429,14.7943692 93.432066,14.9885324 93.3826931,15.1718778 C93.1472009,16.0461666 92.6384936,16.4980119 91.9852734,16.4297774 C91.3278926,16.3612656 90.8341635,15.7241332 90.7800752,14.870925 C90.7731408,14.7613615 90.7792431,14.6506885 90.7792431,14.5405703" id="Fill-32" fill="#212121"></path>
                <path d="M140.627599,14.6200662 C140.627599,14.518824 140.627044,14.4910865 140.627599,14.4636262 C140.653117,13.3430277 141.299403,12.5150607 142.070508,12.6146387 C142.860197,12.7164356 143.507038,13.8667134 143.318977,14.8411348 C143.287911,15.0025676 143.253516,15.1662193 143.196377,15.3198856 C142.963103,15.9462003 142.633858,16.5042806 141.853877,16.4188488 C141.11578,16.337855 140.797907,15.7986363 140.679468,15.1210071 C140.646183,14.9321141 140.639248,14.7385057 140.627599,14.6200662" id="Fill-34" fill="#212121"></path>
                <path d="M67.9150666,14.7178412 C68.0032722,14.8645731 68.2298882,15.0784299 68.2540199,15.3130899 C68.321977,15.9721349 67.8512702,16.5174559 67.2479777,16.4048413 C66.9436963,16.3482566 66.4727121,15.9394046 66.4788144,15.6997518 C66.4960117,15.0146334 67.0646322,14.7905137 67.9150666,14.7178412" id="Fill-36" fill="#212121"></path>
                <path d="M55.4741207,16.4413162 C55.3667763,16.2782192 55.0167279,15.9875293 55.0128446,15.692124 C55.0025817,14.9443186 55.6128087,14.8056307 56.2230356,14.7448854 C56.6332745,14.7038338 56.8426933,14.8455728 56.8285471,15.2954765 C56.8088534,15.9165211 56.3489642,16.4299438 55.4741207,16.4413162" id="Fill-38" fill="#212121"></path>
                <path d="M118.854508,13.7274984 L116.602216,13.7274984 C116.715663,13.0656796 117.018557,12.6374112 117.705617,12.6016297 C118.382969,12.5661256 118.682812,12.9774741 118.854508,13.7274984" id="Fill-40" fill="#212121"></path>
                <path d="M81.9998806,13.4680133 C82.3704548,13.1789876 82.7082986,12.7412885 83.1224208,12.6500318 C83.4316949,12.5820747 83.9098909,12.8896846 84.1850478,13.1601261 C84.4815626,13.4513707 84.3767145,13.779229 83.8796569,13.7900467 C83.312978,13.8022512 82.7460217,13.7928204 82.1790655,13.7928204 C82.1194296,13.6846438 82.0595165,13.5761899 81.9998806,13.4680133" id="Fill-42" fill="#212121"></path>
                <path d="M152.692839,13.6945184 C152.851498,13.0426851 153.155779,12.6191322 153.843671,12.5986063 C154.52241,12.5783579 154.794239,13.0082905 154.985628,13.6945184 L152.692839,13.6945184 Z" id="Fill-44" fill="#212121"></path>
            </g>
        </g>
    </g>
</svg>