<?xml version="1.0" encoding="UTF-8" standalone="no"?>
<svg width="264px" height="120px" viewBox="0 0 264 120" version="1.1" xmlns="http://www.w3.org/2000/svg" xmlns:xlink="http://www.w3.org/1999/xlink">
    <!-- Generator: sketchtool 3.8.3 (29802) - http://www.bohemiancoding.com/sketch -->
    <title>awards</title>
    <desc>Created with sketchtool.</desc>
    <defs>
        <filter x="-50%" y="-50%" width="200%" height="200%" filterUnits="objectBoundingBox" id="filter-1">
            <feOffset dx="0" dy="2" in="SourceAlpha" result="shadowOffsetOuter1"></feOffset>
            <feGaussianBlur stdDeviation="2" in="shadowOffsetOuter1" result="shadowBlurOuter1"></feGaussianBlur>
            <feColorMatrix values="0 0 0 0 0   0 0 0 0 0   0 0 0 0 0  0 0 0 0.5 0" type="matrix" in="shadowBlurOuter1" result="shadowMatrixOuter1"></feColorMatrix>
            <feMerge>
                <feMergeNode in="shadowMatrixOuter1"></feMergeNode>
                <feMergeNode in="SourceGraphic"></feMergeNode>
            </feMerge>
        </filter>
        <polygon id="path-2" points="2.24243337e-20 0.807456405 2.24243337e-20 80.303856 79.9347094 80.303856 79.9347094 0.807456405 0 0.807456405"></polygon>
    </defs>
    <g id="Welcome" stroke="none" stroke-width="1" fill="none" fill-rule="evenodd">
        <g id="Home_Des_1" transform="translate(-1009.000000, -3085.000000)">
            <g id="awards" filter="url(#filter-1)" transform="translate(1012.492188, 3085.231308)">
                <g id="Group-10" transform="translate(0.000000, 0.396282)">
                    <path d="M63.9891,57.177924 C63.9891,57.177924 47.4867097,72.6701664 39.5478248,75.0867445 C31.6097673,72.6701664 15.1412968,57.177924 15.1412968,57.177924 L15.1412968,112.514334 L39.5486522,94.3970313 L64.1347069,112.514334 L63.9891,57.177924 Z" id="Fill-1" fill="#EC4F4F"></path>
                    <g id="Group-5">
                        <mask id="mask-3" fill="white">
                            <use xlink:href="#path-2"></use>
                        </mask>
                        <g id="Clip-4"></g>
                        <polygon id="Fill-3" fill="#F2F2F2" mask="url(#mask-3)" points="39.967272 0.807456405 47.6629272 4.78930853 56.3133003 4.28216635 61.7239201 11.0495776 69.8324039 14.1040131 72.0231258 22.4871645 78.1874267 28.57618 76.7793419 37.1256211 79.9347094 45.1960486 75.1702202 52.433373 74.7706286 61.08871 67.474565 65.7630222 63.5886811 73.5074888 55.0226938 74.8096777 48.3231221 80.303856 39.967272 78.0097201 31.6114219 80.303856 24.9118502 74.8096777 16.3458629 73.5074888 12.4599789 65.7630222 5.16391536 61.08871 4.76432372 52.433373 -0.000165462378 45.1960486 3.15520209 37.1256211 1.74711725 28.57618 7.91141815 22.4871645 10.10214 14.1040131 18.2106239 11.0495776 23.6212436 4.28216635 32.2716168 4.78930853"></polygon>
                    </g>
                    <path d="M13.2617269,38.4656182 C16.7629108,42.3184096 20.2632674,46.1712011 23.8968212,50.1687722 C24.7224785,45.3960099 25.5200072,40.7804368 26.3514556,35.9745821 C29.5184055,39.3615969 32.5604313,42.6154146 35.737309,46.0140118 C36.0425871,44.4553562 36.3304916,43.0505807 36.5902676,41.6416685 C36.8103325,40.4495121 36.9824134,39.2482552 37.2140607,38.0585807 C37.2570809,37.8360338 37.4407442,37.5282738 37.628544,37.4653981 C39.2161555,36.9317819 40.8194859,36.4461498 42.567596,35.8992967 C41.5673759,43.2780914 40.5853567,50.5278255 39.5752089,57.9860422 C36.2080495,54.2912673 32.9542318,50.7205892 29.5663896,47.0034769 C28.7374231,51.8035405 27.9374125,56.4381417 27.108446,61.2390326 C26.580621,60.6690147 26.1512461,60.2173024 25.7342809,59.754835 C21.7962763,55.396556 17.8607537,51.035795 13.9210945,46.6799979 C13.7225396,46.4615876 13.4826191,46.2812336 13.2617269,46.0826787 L13.2617269,38.4656182 Z" id="Fill-6" fill="#3A3A3A"></path>
                    <path d="M42.7395114,43.3748042 C44.3163678,42.8866902 45.8361398,42.4159497 47.369976,41.9410727 C47.5544666,42.1958847 47.7025554,42.4250501 47.8754636,42.6351874 C48.6845746,43.6172066 50.0364023,43.9944608 51.2401411,43.5824595 C52.5241291,43.1431569 53.4672647,41.8922613 53.4879475,40.6016547 C53.507803,39.3648235 52.7144108,38.1188917 51.4701338,37.7755573 C50.7950473,37.5885848 49.993382,37.6034764 49.3075405,37.7705934 C47.6818726,38.1660485 46.0917792,38.7062832 44.3420145,39.2324535 C44.6878309,37.1492822 45.0146191,35.1835892 45.364572,33.0747711 C42.7345475,33.8756091 40.2062824,34.6450091 37.5423381,35.4566021 C37.7954955,33.7134559 38.019697,32.1101255 38.2745091,30.5125862 C38.2960192,30.3760798 38.5069838,30.2106174 38.6616911,30.1642879 C42.8743632,28.8960188 47.0911719,27.641814 51.4444871,26.3437616 C51.0506866,28.4997364 50.6783963,30.5431968 50.2887324,32.6784888 C52.9063472,32.8340234 55.1831095,33.5777768 56.7293555,35.7610529 C57.8189252,37.2990257 58.2756014,39.0454811 58.2085891,40.9085874 C58.0365082,45.7028598 54.4798944,47.9084733 51.6116041,48.3750773 C47.9085561,48.9773603 43.9225674,46.7072165 42.7395114,43.3748042" id="Fill-8" fill="#3A3A3A"></path>
                </g>
                <text id="MOBILE" font-family="Montserrat-Bold, Montserrat" font-size="5.10484529" font-weight="bold" fill="#EC4F4F">
                    <tspan x="42.6033358" y="53.956268">MOBILE</tspan>
                </text>
                <text id="APP-/" font-family="Montserrat-Bold, Montserrat" font-size="5.10484529" font-weight="bold" fill="#EC4F4F">
                    <tspan x="42.6033358" y="58.6374111">APP /</tspan>
                </text>
                <text id="SITES" font-family="Montserrat-Bold, Montserrat" font-size="5.10484529" font-weight="bold" fill="#EC4F4F">
                    <tspan x="42.6033358" y="63.3185542">SITES</tspan>
                </text>
                <text id="2015" font-family="Montserrat-Bold, Montserrat" font-size="9.19011141" font-weight="bold" fill="#EC4F4F">
                    <tspan x="14.1927837" y="31.7732431">2015</tspan>
                </text>
                <g id="Group-37" transform="translate(4.963871, 1.223594)">
                    <path d="M69.9234909,40.5558216 C69.9234909,59.8412891 54.2889508,75.4758292 35.0034834,75.4758292 C15.7180159,75.4758292 0.0834757698,59.8412891 0.0834757698,40.5558216 C0.0834757698,21.2703542 15.7180159,5.63581406 35.0034834,5.63581406 C54.2889508,5.63581406 69.9234909,21.2703542 69.9234909,40.5558216 L69.9234909,40.5558216 Z" id="Stroke-11" stroke="#B5B5B5" stroke-width="0.5" stroke-dasharray="0.997,0.997"></path>
                    <path d="M68.8661864,40.5558216 C68.8661864,59.2580342 53.705696,74.4185246 35.0034834,74.4185246 C16.3012708,74.4185246 1.14078037,59.2580342 1.14078037,40.5558216 C1.14078037,21.8536091 16.3012708,6.69311866 35.0034834,6.69311866 C53.705696,6.69311866 68.8661864,21.8536091 68.8661864,40.5558216 L68.8661864,40.5558216 Z" id="Stroke-13" stroke="#B5B5B5" stroke-width="0.5"></path>
                    <path d="M67.8552112,40.5558216 C67.8552112,58.6995987 53.1472604,73.4075495 35.0034834,73.4075495 C16.8597063,73.4075495 2.1517555,58.6995987 2.1517555,40.5558216 C2.1517555,22.4120446 16.8597063,7.70409379 35.0034834,7.70409379 C53.1472604,7.70409379 67.8552112,22.4120446 67.8552112,40.5558216 L67.8552112,40.5558216 Z" id="Stroke-15" stroke="#B5B5B5" stroke-width="0.5" stroke-dasharray="0.998,0.998"></path>
                    <path d="M147.639515,57.177924 C147.639515,57.177924 131.090796,72.6701664 123.152738,75.0867445 C115.21468,72.6701664 98.6998804,57.177924 98.6998804,57.177924 L98.6998804,112.514334 L123.152738,94.3970313 L147.761957,112.514334 L147.639515,57.177924 Z" id="Fill-17" fill="#F1C419"></path>
                    <polygon id="Fill-19" fill="#F2F2F2" points="123.479857 0.275329397 131.175512 4.25718153 139.825885 3.75003934 145.236505 10.5174506 153.344989 13.5718861 155.535711 21.9550375 161.700012 28.044053 160.291927 36.5934941 163.447295 44.6639216 158.682805 51.901246 158.283214 60.556583 150.98715 65.2308952 147.101266 72.9753618 138.535279 74.2775507 131.835707 79.771729 123.479857 77.4775931 115.124007 79.771729 108.424435 74.2775507 99.858448 72.9753618 95.9725641 65.2308952 88.6765005 60.556583 88.2769089 51.901246 83.5124197 44.6639216 86.6677872 36.5934941 85.2597024 28.044053 91.4240033 21.9550375 93.6147252 13.5718861 101.723209 10.5174506 107.133829 3.75003934 115.784202 4.25718153"></polygon>
                    <path d="M158.399865,40.8510065 C158.399865,60.136474 142.765325,75.7710141 123.479857,75.7710141 C104.19439,75.7710141 88.5598495,60.136474 88.5598495,40.8510065 C88.5598495,21.5655391 104.19439,5.93099894 123.479857,5.93099894 C142.765325,5.93099894 158.399865,21.5655391 158.399865,40.8510065 L158.399865,40.8510065 Z" id="Stroke-21" stroke="#B5B5B5" stroke-width="0.5" stroke-dasharray="0.997,0.997"></path>
                    <path d="M157.34256,40.8510065 C157.34256,59.5532191 142.18207,74.7137095 123.479857,74.7137095 C104.777645,74.7137095 89.6171541,59.5532191 89.6171541,40.8510065 C89.6171541,22.1487939 104.777645,6.98830354 123.479857,6.98830354 C142.18207,6.98830354 157.34256,22.1487939 157.34256,40.8510065 L157.34256,40.8510065 Z" id="Stroke-23" stroke="#B5B5B5" stroke-width="0.5"></path>
                    <path d="M156.331585,40.8510065 C156.331585,58.9947836 141.623634,73.7027344 123.479857,73.7027344 C105.33608,73.7027344 90.6281292,58.9947836 90.6281292,40.8510065 C90.6281292,22.7072295 105.33608,7.99927867 123.479857,7.99927867 C141.623634,7.99927867 156.331585,22.7072295 156.331585,40.8510065 L156.331585,40.8510065 Z" id="Stroke-25" stroke="#B5B5B5" stroke-width="0.5" stroke-dasharray="0.998,0.998"></path>
                    <path d="M115.441529,25.2718963 C115.679795,25.3016795 115.918888,25.3281535 116.156327,25.361246 C117.286435,25.517608 118.351185,25.8576331 119.300939,26.5037637 C120.69496,27.4526905 121.483388,28.7846626 121.729927,30.4392864 C121.796939,30.8860348 121.796112,31.342711 121.823413,31.7952506 C121.828377,31.8663994 121.816795,31.9383755 121.812658,32.0194521 L117.523046,32.0194521 C117.504845,31.7596762 117.490781,31.4999002 117.465962,31.2417789 C117.422114,30.7784843 117.34021,30.3234627 117.154065,29.8924332 C116.908353,29.3257246 116.486424,28.9567435 115.897378,28.7763895 C115.25373,28.5786619 114.601808,28.4934488 113.943267,28.6820759 C112.972831,28.96088 112.404467,29.6392758 112.174475,30.5923391 C112.062788,31.0581157 112.011494,31.5454024 111.994948,32.0260706 C111.946964,33.3770709 111.898152,34.7288985 111.911389,36.0807262 C111.923799,37.2910835 112.011494,38.5014408 112.080161,39.7109707 C112.10498,40.1477914 112.226595,40.5680659 112.432596,40.9577298 C112.894236,41.8321984 113.661981,42.1854606 114.610908,42.2168985 C114.99809,42.2293081 115.383617,42.2094527 115.759217,42.1019021 C116.565019,41.8702548 117.059751,41.3200924 117.33111,40.5490377 C117.586749,39.8226579 117.599159,39.0731133 117.526355,38.3161229 C117.5156,38.2044358 117.441142,38.2309098 117.379094,38.2309098 C116.485597,38.2292552 115.591273,38.2300825 114.697776,38.2300825 L114.511631,38.2300825 L114.511631,35.1814381 C114.55796,35.1789562 114.608426,35.173165 114.65972,35.173165 C116.988603,35.173165 119.317486,35.1739923 121.646368,35.1698558 C121.787839,35.1698558 121.820931,35.212876 121.820104,35.3493825 C121.816795,38.5916178 121.816795,41.8338531 121.820104,45.075261 C121.820931,45.2192133 121.776256,45.2506512 121.640577,45.2489965 C121.017611,45.2415507 120.393818,45.242378 119.770852,45.2489965 C119.645101,45.2498239 119.583053,45.2167314 119.540032,45.0942892 C119.39608,44.6839425 119.238891,44.279387 119.085011,43.8731769 C119.068465,43.828502 119.046127,43.7863091 119.015517,43.7184695 C118.716857,43.9178517 118.425643,44.1048242 118.141875,44.3033791 C117.674444,44.6293399 117.211149,44.9619193 116.683324,45.1902574 C116.102552,45.4417602 115.491995,45.5443469 114.864066,45.5584112 C113.566013,45.5857125 112.300226,45.4194228 111.098142,44.8990436 C110.046628,44.4440221 109.176296,43.7697629 108.60876,42.7546512 C108.235643,42.0886651 108.061907,41.3548395 107.925401,40.6110861 C107.749183,39.6497497 107.674725,38.6768309 107.638324,37.7014302 C107.636669,37.6551007 107.621777,37.6095985 107.613504,37.5640964 L107.613504,34.6362396 C107.621777,34.5998379 107.636669,34.5634362 107.637496,34.5262071 C107.667279,33.8370563 107.692926,33.1470782 107.722709,32.4571001 C107.759938,31.6024869 107.804613,30.7495283 108.016405,29.9139433 C108.334093,28.6597385 108.917348,27.5652049 109.92915,26.7296199 C110.911169,25.9188542 112.066097,25.5308449 113.307892,25.361246 C113.554431,25.3281535 113.802624,25.3016795 114.049991,25.2718963 L115.441529,25.2718963 Z" id="Fill-27" fill="#4A4A4A"></path>
                    <path d="M129.239272,35.3911617 C129.239272,37.5024617 129.239272,39.6137616 129.238444,41.7242342 C129.238444,41.8177205 129.232653,41.8913512 129.366678,41.8921785 C129.878784,41.8963151 130.390062,41.9169979 130.902168,41.9178252 C131.40021,41.9178252 131.89577,41.8822508 132.381402,41.758154 C132.814914,41.6481215 133.205405,41.4628037 133.457735,41.0772763 C133.633952,40.8075727 133.806033,40.5304232 133.935094,40.2359001 C134.359505,39.2638087 134.517521,38.2271869 134.604389,37.17981 C134.757442,35.3349045 134.688775,33.4941355 134.460437,31.6575031 C134.294147,30.3222218 133.585968,29.4874641 132.297016,29.1259288 C131.360499,28.8628436 130.397508,28.8628436 129.435344,28.8777352 C129.239272,28.8802171 129.239272,28.8876629 129.239272,29.0870451 L129.239272,35.3911617 M124.945523,45.246101 L124.945523,45.0343091 L124.945523,26.0913487 C124.945523,25.9945533 124.938077,25.8985851 124.936422,25.8017896 C124.934768,25.6719016 124.991852,25.6131625 125.130841,25.6139898 C125.700859,25.617299 126.270877,25.6139898 126.840894,25.6098532 C128.004922,25.6024074 129.16895,25.58007 130.332978,25.5883431 C131.646749,25.5990982 132.958866,25.6636285 134.244509,25.9763524 C135.091676,26.1823531 135.888377,26.505832 136.58911,27.0394482 C137.568648,27.7848562 138.11881,28.7925221 138.403405,29.9706142 C138.683864,31.1305055 138.816234,32.3094249 138.87911,33.4974448 C138.960186,35.0370722 138.949431,36.577527 138.842708,38.1154998 C138.792242,38.8518073 138.735985,39.5914242 138.608579,40.3169767 C138.398442,41.5174063 137.889645,42.5862932 137.016003,43.45828 C136.265631,44.2069972 135.342351,44.6371994 134.330549,44.9011119 C133.301373,45.1691609 132.250687,45.2990489 131.191728,45.3081493 C129.738141,45.3213863 128.285381,45.2907758 126.831794,45.2767115 C126.262603,45.2709203 125.692585,45.2560287 125.123395,45.246101 C125.071274,45.2452736 125.019154,45.246101 124.945523,45.246101" id="Fill-29" fill="#4A4A4A"></path>
                    <path d="M116.451925,47.5767213 L116.451925,47.756248 C116.451925,49.7368326 116.456889,51.7174173 116.446961,53.6988293 C116.446134,54.0148624 116.413042,54.337514 116.341893,54.6452741 C116.132583,55.5561445 115.547673,56.1344355 114.66245,56.3917295 C113.695322,56.6730155 112.71413,56.6680516 111.745348,56.3975207 C110.814622,56.138572 110.262805,55.5065057 110.087415,54.5600609 C110.03364,54.2713291 110.00882,53.9743241 110.007993,53.6814557 C110.000547,51.7058349 110.005511,49.7293868 110.000547,47.753766 C110.000547,47.6180869 110.03033,47.5709301 110.174283,47.573412 C110.744301,47.5816851 111.315146,47.5767213 111.885164,47.5767213 C111.93232,47.5767213 111.979477,47.5808578 112.048144,47.5841671 L112.048144,47.7579026 C112.048144,49.7583427 112.04649,51.7587829 112.049799,53.7583957 C112.050626,53.9511594 112.067172,54.1455777 112.102747,54.3342048 C112.23098,55.0076367 112.657046,55.3220152 113.346196,55.2674126 C113.901323,55.2227378 114.224802,54.9497248 114.339798,54.4020444 C114.382818,54.1960437 114.403501,53.9809426 114.404328,53.7699781 C114.409292,51.7654014 114.409292,49.7599974 114.403501,47.7554206 C114.402674,47.6031953 114.447349,47.5717574 114.590474,47.573412 C115.150564,47.5816851 115.710654,47.5767213 116.271571,47.5767213 L116.451925,47.5767213" id="Fill-31" fill="#4A4A4A"></path>
                    <path d="M133.638503,49.1499376 L133.602928,49.1499376 C133.284413,50.4529538 132.965071,51.75597 132.643246,53.0672594 L134.598184,53.0672594 C134.275533,51.7493515 133.957018,50.4496445 133.638503,49.1499376 M137.542587,56.413736 L137.041236,56.413736 C136.548158,56.413736 136.055081,56.4104267 135.56283,56.4162179 C135.456107,56.4178725 135.411432,56.3847801 135.386613,56.2805388 C135.258379,55.745268 135.119391,55.2124791 134.991985,54.6772083 C134.967993,54.5762763 134.926627,54.5473203 134.825695,54.5473203 C134.02403,54.5514569 133.221537,54.5522842 132.419872,54.5473203 C132.30984,54.546493 132.272611,54.5853767 132.247791,54.6879634 C132.120385,55.2232342 131.983879,55.7568503 131.850682,56.2912938 C131.834135,56.3574788 131.82338,56.4170452 131.726585,56.4162179 C131.074663,56.4120813 130.421914,56.413736 129.769992,56.4120813 C129.751791,56.4120813 129.73359,56.4038082 129.701325,56.3955351 C129.755101,56.2160084 129.807221,56.0414456 129.860169,55.8668828 C130.680035,53.1491632 131.500729,50.432271 132.318113,47.7145514 C132.350378,47.6070009 132.398362,47.5739084 132.509222,47.5739084 C133.252975,47.5788723 133.997556,47.5788723 134.741309,47.5739084 C134.848033,47.5730811 134.891053,47.6086555 134.921663,47.7087603 C135.777104,50.5522312 136.635026,53.3940476 137.492949,56.2358639 C137.50784,56.2863299 137.521077,56.336796 137.542587,56.413736" id="Fill-33" fill="#4A4A4A"></path>
                    <path d="M122.033468,53.6505143 C122.048359,53.8879528 122.051669,54.1055358 122.078143,54.3206369 C122.142673,54.8360522 122.434714,55.1388483 122.945165,55.2315073 C123.277745,55.291901 123.607015,55.2902464 123.929667,55.1678043 C124.813236,54.8335703 124.710649,53.673679 124.225017,53.3104891 C123.888301,53.0598136 123.505256,52.9216525 123.118074,52.785146 C122.627478,52.6114105 122.129436,52.4533939 121.650422,52.2531845 C121.162308,52.0488384 120.735415,51.7468696 120.457439,51.2786111 C119.651637,49.9201649 120.316796,48.0992515 121.815885,47.6276837 C122.926965,47.2777308 124.048799,47.3042047 125.133405,47.7534351 C125.808492,48.0330665 126.213875,48.5592369 126.350381,49.2847894 C126.370237,49.3890307 126.351208,49.4370148 126.240349,49.4701073 C125.677777,49.6421881 125.117686,49.8233694 124.555942,50.0012415 C124.525331,50.0111692 124.492239,50.0161331 124.445082,50.0268882 C124.435154,49.9143738 124.431845,49.8093051 124.415299,49.7067185 C124.301957,48.9836479 123.91643,48.6783698 123.185086,48.7304904 C122.65147,48.7685468 122.313099,49.0026761 122.227059,49.4345329 C122.090552,50.1228564 122.293244,50.4752912 122.724273,50.7003201 C123.073399,50.883156 123.448998,51.0155259 123.815498,51.1627874 C124.258937,51.3406595 124.713958,51.4912302 125.148297,51.6889578 C125.448611,51.8262915 125.73817,52.000027 126.003737,52.1969273 C126.43394,52.5162697 126.644077,52.9704639 126.694543,53.5007708 C126.747491,54.0575517 126.704471,54.6010956 126.463723,55.1148563 C126.168373,55.7469226 125.65213,56.1332772 125.004345,56.3293502 C123.850245,56.6801304 122.679598,56.7099136 121.524671,56.3401052 C120.473158,56.002562 120.058674,55.2000694 120.018136,54.2329418 C120.016481,54.1924035 120.061983,54.1204274 120.097558,54.1121543 C120.738725,53.9541377 121.381546,53.8043943 122.033468,53.6505143" id="Fill-35" fill="#4A4A4A"></path>
                </g>
                <text id="H" font-family="Montserrat-Bold, Montserrat" font-size="4.36986141" font-weight="bold" fill="#F1C419">
                    <tspan x="99.3089475" y="42.754753">H</tspan>
                </text>
                <text id="e" font-family="Montserrat-Bold, Montserrat" font-size="3.57481468" font-weight="bold" fill="#F1C419">
                    <tspan x="99.9310033" y="47.9427451">e</tspan>
                </text>
                <text id="a" font-family="Montserrat-Bold, Montserrat" font-size="2.83221953" font-weight="bold" fill="#F1C419">
                    <tspan x="100.817302" y="51.025134">a</tspan>
                </text>
                <text id="l" font-family="Montserrat-Bold, Montserrat" font-size="2.23448669" font-weight="bold" fill="#F1C419">
                    <tspan x="102.068777" y="53.752341">l</tspan>
                </text>
                <text id="t" font-family="Montserrat-Bold, Montserrat" font-size="1.73619673" font-weight="bold" fill="#F1C419">
                    <tspan x="102.873503" y="55.9450992">t</tspan>
                </text>
                <text id="h" font-family="Montserrat-Bold, Montserrat" font-size="0.986734892" font-weight="bold" fill="#F1C419">
                    <tspan x="104.122496" y="57.9560034">h</tspan>
                </text>
                <text id="-" font-family="Montserrat-Bold, Montserrat" font-size="0.376013254" font-weight="bold"></text>
                <text id="&amp;" font-family="Montserrat-Bold, Montserrat" font-size="0.252330127" font-weight="bold" fill="#F1C419">
                    <tspan x="107.241958" y="61.7399693">&amp;</tspan>
                </text>
                <text id="-" font-family="Montserrat-Bold, Montserrat" font-size="0.874468668" font-weight="bold"></text>
                <text id="W" font-family="Montserrat-Bold, Montserrat" font-size="1.75191566" font-weight="bold" fill="#F1C419">
                    <tspan x="111.025421" y="65.3805913">W</tspan>
                </text>
                <text id="e" font-family="Montserrat-Bold, Montserrat" font-size="2.77099845" font-weight="bold" fill="#F1C419">
                    <tspan x="115.804306" y="67.9155337">e</tspan>
                </text>
                <text id="l" font-family="Montserrat-Bold, Montserrat" font-size="3.34928946" font-weight="bold" fill="#F1C419">
                    <tspan x="118.834749" y="68.4269765">l</tspan>
                </text>
                <text id="l" font-family="Montserrat-Bold, Montserrat" font-size="3.7348168" font-weight="bold" fill="#F1C419">
                    <tspan x="120.517667" y="69.4854665">l</tspan>
                </text>
                <text id="n" font-family="Montserrat-Bold, Montserrat" font-size="4.30177364" font-weight="bold" fill="#F1C419">
                    <tspan x="122.292665" y="69.2745337">n</tspan>
                </text>
                <text id="e" font-family="Montserrat-Bold, Montserrat" font-size="4.96767698" font-weight="bold" fill="#F1C419">
                    <tspan x="125.956581" y="69.9868095">e</tspan>
                </text>
                <text id="s" font-family="Montserrat-Bold, Montserrat" font-size="5.48176859" font-weight="bold" fill="#F1C419">
                    <tspan x="129.227855" y="70.430954">s</tspan>
                </text>
                <text id="s" font-family="Montserrat-Bold, Montserrat" font-size="5.91230169" font-weight="bold" fill="#F1C419">
                    <tspan x="132.046754" y="69.6828313">s</tspan>
                </text>
                <text id="-" font-family="Montserrat-Bold, Montserrat" font-size="6.19085761" font-weight="bold"></text>
                <text id="A" font-family="Montserrat-Bold, Montserrat" font-size="6.51706669" font-weight="bold" fill="#F1C419">
                    <tspan x="136.125154" y="69.1572667">A</tspan>
                </text>
                <text id="w" font-family="Montserrat-Bold, Montserrat" font-size="6.91996758" font-weight="bold" fill="#F1C419">
                    <tspan x="140.00475" y="67.3067345">w</tspan>
                </text>
                <text id="a" font-family="Montserrat-Bold, Montserrat" font-size="7.13721968" font-weight="bold" fill="#F1C419">
                    <tspan x="144.335232" y="64.5899907">a</tspan>
                </text>
                <text id="r" font-family="Montserrat-Bold, Montserrat" font-size="7.20282551" font-weight="bold" fill="#F1C419">
                    <tspan x="146.927862" y="62.5298515">r</tspan>
                </text>
                <text id="d" font-family="Montserrat-Bold, Montserrat" font-size="7.19753072" font-weight="bold" fill="#F1C419">
                    <tspan x="148.716593" y="60.9336194">d</tspan>
                </text>
                <text id="-" font-family="Montserrat-Bold, Montserrat" font-size="7.13333131" font-weight="bold"></text>
                <text id="-" font-family="Montserrat-Bold, Montserrat" font-size="7.06077606" font-weight="bold" fill="#F1C419">
                    <tspan x="151.901413" y="57.260901">-</tspan>
                </text>
                <text id="-" font-family="Montserrat-Bold, Montserrat" font-size="6.96414603" font-weight="bold"></text>
                <text id="2" font-family="Montserrat-Bold, Montserrat" font-size="6.79520894" font-weight="bold" fill="#F1C419">
                    <tspan x="153.706276" y="54.7212196">2</tspan>
                </text>
                <text id="0" font-family="Montserrat-Bold, Montserrat" font-size="6.44128492" font-weight="bold" fill="#F1C419">
                    <tspan x="155.140339" y="51.1331903">0</tspan>
                </text>
                <text id="1" font-family="Montserrat-Bold, Montserrat" font-size="6.06014233" font-weight="bold" fill="#F1C419">
                    <tspan x="156.284345" y="47.965778">1</tspan>
                </text>
                <text id="5" font-family="Montserrat-Bold, Montserrat" font-size="5.65864787" font-weight="bold" fill="#F1C419">
                    <tspan x="156.782884" y="46.2019997">5</tspan>
                </text>
                <text id="W" font-family="Montserrat-Bold, Montserrat" font-size="7.0953577" font-weight="bold" fill="#F1C419">
                    <tspan x="109.884393" y="22.0650179">W</tspan>
                </text>
                <text id="e" font-family="Montserrat-Bold, Montserrat" font-size="6.86056658" font-weight="bold" fill="#F1C419">
                    <tspan x="114.090943" y="19.49279">e</tspan>
                </text>
                <text id="b" font-family="Montserrat-Bold, Montserrat" font-size="6.57613676" font-weight="bold" fill="#F1C419">
                    <tspan x="116.729406" y="18.4658153">b</tspan>
                </text>
                <text id="-" font-family="Montserrat-Bold, Montserrat" font-size="6.32422028" font-weight="bold"></text>
                <text id="&amp;" font-family="Montserrat-Bold, Montserrat" font-size="6.03416474" font-weight="bold" fill="#F1C419">
                    <tspan x="121.021996" y="16.5771348">&amp;</tspan>
                </text>
                <text id="-" font-family="Montserrat-Bold, Montserrat" font-size="5.70679742" font-weight="bold"></text>
                <text id="B" font-family="Montserrat-Bold, Montserrat" font-size="5.33285245" font-weight="bold" fill="#F1C419">
                    <tspan x="125.491135" y="15.5634362">B</tspan>
                </text>
                <text id="r" font-family="Montserrat-Bold, Montserrat" font-size="4.83365245" font-weight="bold" fill="#F1C419">
                    <tspan x="129.054864" y="16.0259709">r</tspan>
                </text>
                <text id="a" font-family="Montserrat-Bold, Montserrat" font-size="4.36191921" font-weight="bold" fill="#F1C419">
                    <tspan x="131.065397" y="15.6688265">a</tspan>
                </text>
                <text id="n" font-family="Montserrat-Bold, Montserrat" font-size="3.70279983" font-weight="bold" fill="#F1C419">
                    <tspan x="134.032303" y="16.8505935">n</tspan>
                </text>
                <text id="d" font-family="Montserrat-Bold, Montserrat" font-size="2.95772274" font-weight="bold" fill="#F1C419">
                    <tspan x="137.251539" y="17.544533">d</tspan>
                </text>
                <text id="i" font-family="Montserrat-Bold, Montserrat" font-size="2.37951446" font-weight="bold" fill="#F1C419">
                    <tspan x="140.459193" y="18.4973875">i</tspan>
                </text>
                <text id="n" font-family="Montserrat-Bold, Montserrat" font-size="1.80205076" font-weight="bold" fill="#F1C419">
                    <tspan x="141.841962" y="19.810912">n</tspan>
                </text>
                <text id="g" font-family="Montserrat-Bold, Montserrat" font-size="1.01411892" font-weight="bold" fill="#F1C419">
                    <tspan x="144.726716" y="21.455979">g</tspan>
                </text>
                <g id="Group-58" transform="translate(176.217433, 1.223594)">
                    <path d="M64.8623277,57.177924 C64.8623277,57.177924 48.3367727,72.6701664 40.3978878,75.0867445 C32.4598302,72.6701664 15.968195,57.177924 15.968195,57.177924 L15.968195,112.514334 L40.3987151,94.3970313 L64.9963523,112.514334 L64.8623277,57.177924 Z" id="Fill-38" fill="#F1C419"></path>
                    <polygon id="Fill-40" fill="#F2F2F2" points="40.7026695 0.275329397 48.3983247 4.25718153 57.0486978 3.75003934 62.4593176 10.5174506 70.5678014 13.5718861 72.7585233 21.9550375 78.9228242 28.044053 77.5147394 36.5934941 80.6701069 44.6639216 75.9056178 51.901246 75.5060261 60.556583 68.2099626 65.2308952 64.3240786 72.9753618 55.7580913 74.2775507 49.0576923 79.771729 40.7026695 77.4775931 32.3468194 79.771729 25.6472477 74.2775507 17.0812604 72.9753618 13.1953765 65.2308952 5.8993129 60.556583 5.49972125 51.901246 0.735232077 44.6639216 3.89059963 36.5934941 2.48251479 28.044053 8.64681569 21.9550375 10.8375376 13.5718861 18.9460214 10.5174506 24.3566412 3.75003934 33.0070143 4.25718153"></polygon>
                    <path d="M75.6226771,40.8510065 C75.6226771,60.136474 59.988137,75.7710141 40.7026695,75.7710141 C21.417202,75.7710141 5.78266192,60.136474 5.78266192,40.8510065 C5.78266192,21.5655391 21.417202,5.93099894 40.7026695,5.93099894 C59.988137,5.93099894 75.6226771,21.5655391 75.6226771,40.8510065 L75.6226771,40.8510065 Z" id="Stroke-42" stroke="#B5B5B5" stroke-width="0.5" stroke-dasharray="0.997,0.997"></path>
                    <path d="M74.5654552,40.8510065 C74.5654552,59.5532191 59.4049648,74.7137095 40.7027522,74.7137095 C22.0005396,74.7137095 6.84004925,59.5532191 6.84004925,40.8510065 C6.84004925,22.1487939 22.0005396,6.98830354 40.7027522,6.98830354 C59.4049648,6.98830354 74.5654552,22.1487939 74.5654552,40.8510065 L74.5654552,40.8510065 Z" id="Stroke-44" stroke="#B5B5B5" stroke-width="0.5"></path>
                    <path d="M73.5543974,40.8510065 C73.5543974,58.9947836 58.8464466,73.7027344 40.7026695,73.7027344 C22.5588924,73.7027344 7.85094165,58.9947836 7.85094165,40.8510065 C7.85094165,22.7072295 22.5588924,7.99927867 40.7026695,7.99927867 C58.8464466,7.99927867 73.5543974,22.7072295 73.5543974,40.8510065 L73.5543974,40.8510065 Z" id="Stroke-46" stroke="#B5B5B5" stroke-width="0.5" stroke-dasharray="0.998,0.998"></path>
                    <path d="M32.6643417,25.2718963 C32.9026075,25.3016795 33.1417007,25.3281535 33.3791392,25.361246 C34.5092472,25.517608 35.5739976,25.8576331 36.5237517,26.5037637 C37.9177722,27.4526905 38.7062005,28.7846626 38.9527394,30.4392864 C39.0197517,30.8860348 39.0189244,31.342711 39.0462256,31.7952506 C39.0511895,31.8663994 39.0396071,31.9383755 39.0354706,32.0194521 L34.7458584,32.0194521 C34.7276576,31.7596762 34.7135933,31.4999002 34.6887739,31.2417789 C34.6449264,30.7784843 34.5630225,30.3234627 34.3768773,29.8924332 C34.1311657,29.3257246 33.7092366,28.9567435 33.1201906,28.7763895 C32.4765419,28.5786619 31.8246202,28.4934488 31.1660799,28.6820759 C30.195643,28.96088 29.6272798,29.6392758 29.3972871,30.5923391 C29.2856,31.0581157 29.2343066,31.5454024 29.2177604,32.0260706 C29.1697763,33.3770709 29.1209649,34.7288985 29.1342019,36.0807262 C29.1466116,37.2910835 29.2343066,38.5014408 29.3029735,39.7109707 C29.3277929,40.1477914 29.4494077,40.5680659 29.6554084,40.9577298 C30.1170484,41.8321984 30.8847938,42.1854606 31.8337206,42.2168985 C32.2209025,42.2293081 32.6064299,42.2094527 32.9820295,42.1019021 C33.7878313,41.8702548 34.2825638,41.3200924 34.5539221,40.5490377 C34.8095615,39.8226579 34.8219711,39.0731133 34.7491677,38.3161229 C34.7384126,38.2044358 34.6639546,38.2309098 34.6019062,38.2309098 C33.7084093,38.2292552 32.8140852,38.2300825 31.9205883,38.2300825 L31.7344432,38.2300825 L31.7344432,35.1814381 C31.7807726,35.1789562 31.8312386,35.173165 31.882532,35.173165 C34.211415,35.173165 36.5402979,35.1739923 38.8691809,35.1698558 C39.0106512,35.1698558 39.0437437,35.212876 39.0429164,35.3493825 C39.0396071,38.5916178 39.0396071,41.8338531 39.0429164,45.075261 C39.0437437,45.2192133 38.9990689,45.2506512 38.8633897,45.2489965 C38.2404239,45.2415507 37.6166307,45.242378 36.9936648,45.2489965 C36.8679134,45.2498239 36.805865,45.2167314 36.7628448,45.0942892 C36.6188926,44.6839425 36.4617033,44.279387 36.3078233,43.8731769 C36.291277,43.828502 36.2689396,43.7863091 36.2383291,43.7184695 C35.9396695,43.9178517 35.6484557,44.1048242 35.3646877,44.3033791 C34.8972565,44.6293399 34.4339619,44.9619193 33.9061369,45.1902574 C33.3253639,45.4417602 32.7148077,45.5443469 32.086878,45.5584112 C30.7888257,45.5857125 29.5230385,45.4194228 28.3209543,44.8990436 C27.2694409,44.4440221 26.3991088,43.7697629 25.8315728,42.7546512 C25.4584552,42.0886651 25.2847197,41.3548395 25.1482132,40.6110861 C24.9719958,39.6497497 24.8975377,38.6768309 24.861136,37.7014302 C24.8594813,37.6551007 24.8445897,37.6095985 24.8363166,37.5640964 L24.8363166,34.6362396 C24.8445897,34.5998379 24.8594813,34.5634362 24.8603087,34.5262071 C24.8900919,33.8370563 24.9157386,33.1470782 24.9455218,32.4571001 C24.9827508,31.6024869 25.0274257,30.7495283 25.2392175,29.9139433 C25.5569053,28.6597385 26.1401602,27.5652049 27.1519626,26.7296199 C28.1339818,25.9188542 29.2889092,25.5308449 30.5307044,25.361246 C30.7772433,25.3281535 31.0254369,25.3016795 31.2728031,25.2718963 L32.6643417,25.2718963 Z" id="Fill-48" fill="#4A4A4A"></path>
                    <path d="M46.462084,35.3911617 C46.462084,37.5024617 46.462084,39.6137616 46.4612567,41.7242342 C46.4612567,41.8177205 46.4554655,41.8913512 46.58949,41.8921785 C47.1015961,41.8963151 47.6128748,41.9169979 48.1249809,41.9178252 C48.6230226,41.9178252 49.1185824,41.8822508 49.6042145,41.758154 C50.037726,41.6481215 50.4282172,41.4628037 50.6805473,41.0772763 C50.8567647,40.8075727 51.0288456,40.5304232 51.1579063,40.2359001 C51.5823173,39.2638087 51.7403338,38.2271869 51.8272016,37.17981 C51.9802543,35.3349045 51.9115874,33.4941355 51.6832493,31.6575031 C51.5169596,30.3222218 50.8087806,29.4874641 49.5198287,29.1259288 C48.5833117,28.8628436 47.6203206,28.8628436 46.6581569,28.8777352 C46.462084,28.8802171 46.462084,28.8876629 46.462084,29.0870451 L46.462084,35.3911617 M42.1683353,45.246101 L42.1683353,45.0343091 L42.1683353,26.0913487 C42.1683353,25.9945533 42.1608894,25.8985851 42.1592348,25.8017896 C42.1575802,25.6719016 42.2146647,25.6131625 42.3536531,25.6139898 C42.923671,25.617299 43.4936889,25.6139898 44.0637068,25.6098532 C45.2277346,25.6024074 46.3917625,25.58007 47.5557903,25.5883431 C48.8695616,25.5990982 50.1816782,25.6636285 51.4673209,25.9763524 C52.3144883,26.1823531 53.1111896,26.505832 53.8119228,27.0394482 C54.7914601,27.7848562 55.3416225,28.7925221 55.6270451,29.9706142 C55.9066765,31.1305055 56.0390464,32.3094249 56.1019221,33.4974448 C56.1829987,35.0370722 56.1722436,36.577527 56.0655204,38.1154998 C56.0150544,38.8518073 55.9587972,39.5914242 55.8313911,40.3169767 C55.6212539,41.5174063 55.1124571,42.5862932 54.2388157,43.45828 C53.4884439,44.2069972 52.5651638,44.6371994 51.5533613,44.9011119 C50.5241853,45.1691609 49.4734992,45.2990489 48.41454,45.3081493 C46.960953,45.3213863 45.5081934,45.2907758 44.0546064,45.2767115 C43.4854158,45.2709203 42.9153979,45.2560287 42.3462073,45.246101 C42.2940867,45.2452736 42.241966,45.246101 42.1683353,45.246101" id="Fill-50" fill="#4A4A4A"></path>
                    <path d="M33.6748205,47.5767213 L33.6748205,47.756248 C33.6748205,49.7368326 33.6797843,51.7174173 33.6698566,53.6988293 C33.6690293,54.0148624 33.6359368,54.337514 33.564788,54.6452741 C33.3554781,55.5561445 32.7705686,56.1344355 31.8853448,56.3917295 C30.9182172,56.6730155 29.9370253,56.6680516 28.9682431,56.3975207 C28.0375172,56.138572 27.4857002,55.5065057 27.3103101,54.5600609 C27.2565348,54.2713291 27.2317155,53.9743241 27.2308881,53.6814557 C27.2234423,51.7058349 27.2284062,49.7293868 27.2234423,47.753766 C27.2234423,47.6180869 27.2532256,47.5709301 27.3971778,47.573412 C27.9671957,47.5816851 28.5380409,47.5767213 29.1080588,47.5767213 C29.1552156,47.5767213 29.2023724,47.5808578 29.2710393,47.5841671 L29.2710393,47.7579026 C29.2710393,49.7583427 29.2693846,51.7587829 29.2726939,53.7583957 C29.2735212,53.9511594 29.2900674,54.1455777 29.3256419,54.3342048 C29.4538752,55.0076367 29.8799408,55.3220152 30.5690916,55.2674126 C31.1242179,55.2227378 31.4476969,54.9497248 31.5626932,54.4020444 C31.6057134,54.1960437 31.6263962,53.9809426 31.6272235,53.7699781 C31.6321874,51.7654014 31.6321874,49.7599974 31.6263962,47.7554206 C31.6255689,47.6031953 31.6702438,47.5717574 31.8133687,47.573412 C32.3734589,47.5816851 32.933549,47.5767213 33.4944665,47.5767213 L33.6748205,47.5767213" id="Fill-52" fill="#4A4A4A"></path>
                    <path d="M50.8613149,49.1499376 L50.8257405,49.1499376 C50.5072255,50.4529538 50.1878831,51.75597 49.8660587,53.0672594 L51.8209967,53.0672594 C51.4983451,51.7493515 51.17983,50.4496445 50.8613149,49.1499376 M54.7653998,56.413736 L54.2640488,56.413736 C53.7709709,56.413736 53.277893,56.4104267 52.7856424,56.4162179 C52.6789192,56.4178725 52.6342443,56.3847801 52.609425,56.2805388 C52.4811916,55.745268 52.3422032,55.2124791 52.2147972,54.6772083 C52.1908052,54.5762763 52.1494396,54.5473203 52.0485075,54.5473203 C51.2468423,54.5514569 50.4443498,54.5522842 49.6426845,54.5473203 C49.532652,54.546493 49.495423,54.5853767 49.4706037,54.6879634 C49.3431976,55.2232342 49.2066912,55.7568503 49.0734939,56.2912938 C49.0569477,56.3574788 49.0461927,56.4170452 48.9493972,56.4162179 C48.2974754,56.4120813 47.6447263,56.413736 46.9928045,56.4120813 C46.9746037,56.4120813 46.9564028,56.4038082 46.9241377,56.3955351 C46.9779129,56.2160084 47.0300336,56.0414456 47.0829815,55.8668828 C47.9028476,53.1491632 48.723541,50.432271 49.5409252,47.7145514 C49.5731903,47.6070009 49.6211744,47.5739084 49.7320342,47.5739084 C50.4757876,47.5788723 51.2203683,47.5788723 51.9641217,47.5739084 C52.0708449,47.5730811 52.1138651,47.6086555 52.1444757,47.7087603 C52.9999162,50.5522312 53.8578386,53.3940476 54.715761,56.2358639 C54.7306527,56.2863299 54.7438896,56.336796 54.7653998,56.413736" id="Fill-54" fill="#4A4A4A"></path>
                    <path d="M39.2563629,53.6505143 C39.2712545,53.8879528 39.2745637,54.1055358 39.3010377,54.3206369 C39.365568,54.8360522 39.6576091,55.1388483 40.1680606,55.2315073 C40.5006399,55.291901 40.8299101,55.2902464 41.1525617,55.1678043 C42.0361308,54.8335703 41.9335441,53.673679 41.4479121,53.3104891 C41.1111961,53.0598136 40.7281507,52.9216525 40.3409688,52.785146 C39.8503728,52.6114105 39.352331,52.4533939 38.8733175,52.2531845 C38.3860308,52.0488384 37.9583105,51.7468696 37.6803337,51.2786111 C36.8745319,49.9201649 37.5396907,48.0992515 39.0387798,47.6276837 C40.1498597,47.2777308 41.2716946,47.3042047 42.3563005,47.7534351 C43.031387,48.0330665 43.4367698,48.5592369 43.5732763,49.2847894 C43.5931318,49.3890307 43.5741036,49.4370148 43.4632438,49.4701073 C42.9006717,49.6421881 42.3405816,49.8233694 41.7788368,50.0012415 C41.7482263,50.0111692 41.7151338,50.0161331 41.667977,50.0268882 C41.6580493,49.9143738 41.65474,49.8093051 41.6381938,49.7067185 C41.5248521,48.9836479 41.1393247,48.6783698 40.407981,48.7304904 C39.8743648,48.7685468 39.5359943,49.0026761 39.4499538,49.4345329 C39.3134474,50.1228564 39.5161388,50.4752912 39.9471683,50.7003201 C40.2962939,50.883156 40.6718935,51.0155259 41.0383927,51.1627874 C41.4818318,51.3406595 41.9368534,51.4912302 42.3711921,51.6889578 C42.6715063,51.8262915 42.9610655,52.000027 43.2266326,52.1969273 C43.6568348,52.5162697 43.866972,52.9704639 43.9174381,53.5007708 C43.970386,54.0575517 43.9273658,54.6010956 43.686618,55.1148563 C43.3912677,55.7469226 42.8750251,56.1332772 42.2272399,56.3293502 C41.0731398,56.6801304 39.9024934,56.7099136 38.7475661,56.3401052 C37.6960526,56.002562 37.2815694,55.2000694 37.2410311,54.2329418 C37.2393765,54.1924035 37.2848786,54.1204274 37.320453,54.1121543 C37.9616198,53.9541377 38.6044411,53.8043943 39.2563629,53.6505143" id="Fill-56" fill="#4A4A4A"></path>
                </g>
                <text id="A" font-family="Montserrat-Bold, Montserrat" font-size="5.44081665" font-weight="bold" fill="#F1C419">
                    <tspan x="187.999347" y="36.5462992">A</tspan>
                </text>
                <text id="m" font-family="Montserrat-Bold, Montserrat" font-size="4.56618252" font-weight="bold" fill="#F1C419">
                    <tspan x="187.6738" y="41.8758776">m</tspan>
                </text>
                <text id="e" font-family="Montserrat-Bold, Montserrat" font-size="3.64323337" font-weight="bold" fill="#F1C419">
                    <tspan x="188.342681" y="47.5544544">e</tspan>
                </text>
                <text id="r" font-family="Montserrat-Bold, Montserrat" font-size="3.01455907" font-weight="bold" fill="#F1C419">
                    <tspan x="189.199942" y="50.4629917">r</tspan>
                </text>
                <text id="i" font-family="Montserrat-Bold, Montserrat" font-size="2.54017843" font-weight="bold" fill="#F1C419">
                    <tspan x="190.028081" y="53.2261152">i</tspan>
                </text>
                <text id="c" font-family="Montserrat-Bold, Montserrat" font-size="1.97289067" font-weight="bold" fill="#F1C419">
                    <tspan x="190.732537" y="54.5093651">c</tspan>
                </text>
                <text id="a" font-family="Montserrat-Bold, Montserrat" font-size="1.21093641" font-weight="bold" fill="#F1C419">
                    <tspan x="192.217479" y="57.0802105">a</tspan>
                </text>
                <text id="n" font-family="Montserrat-Bold, Montserrat" font-size="0.349042887" font-weight="bold" fill="#F1C419">
                    <tspan x="194.137918" y="59.8157409">n</tspan>
                </text>
                <text id="-" font-family="Montserrat-Bold, Montserrat" font-size="0.268297246" font-weight="bold"></text>
                <text id="W" font-family="Montserrat-Bold, Montserrat" font-size="1.1575748" font-weight="bold" fill="#F1C419">
                    <tspan x="197.593435" y="63.5595519">W</tspan>
                </text>
                <text id="e" font-family="Montserrat-Bold, Montserrat" font-size="2.19254197" font-weight="bold" fill="#F1C419">
                    <tspan x="202.105676" y="66.4575683">e</tspan>
                </text>
                <text id="b" font-family="Montserrat-Bold, Montserrat" font-size="3.01935748" font-weight="bold" fill="#F1C419">
                    <tspan x="205.069935" y="67.9911163">b</tspan>
                </text>
                <text id="-" font-family="Montserrat-Bold, Montserrat" font-size="3.58474242" font-weight="bold"></text>
                <text id="D" font-family="Montserrat-Bold, Montserrat" font-size="4.16410894" font-weight="bold" fill="#F1C419">
                    <tspan x="209.867351" y="69.2530901">D</tspan>
                </text>
                <text id="e" font-family="Montserrat-Bold, Montserrat" font-size="4.89263979" font-weight="bold" fill="#F1C419">
                    <tspan x="214.016072" y="70.0416936">e</tspan>
                </text>
                <text id="s" font-family="Montserrat-Bold, Montserrat" font-size="5.41459086" font-weight="bold" fill="#F1C419">
                    <tspan x="217.288173" y="69.5228189">s</tspan>
                </text>
                <text id="i" font-family="Montserrat-Bold, Montserrat" font-size="5.76942493" font-weight="bold" fill="#F1C419">
                    <tspan x="220.063308" y="69.8922574">i</tspan>
                </text>
                <text id="g" font-family="Montserrat-Bold, Montserrat" font-size="6.14130163" font-weight="bold" fill="#F1C419">
                    <tspan x="221.836734" y="69.2229612">g</tspan>
                </text>
                <text id="n" font-family="Montserrat-Bold, Montserrat" font-size="6.56844276" font-weight="bold" fill="#F1C419">
                    <tspan x="225.301103" y="68.8718275">n</tspan>
                </text>
                <text id="-" font-family="Montserrat-Bold, Montserrat" font-size="6.80075193" font-weight="bold"></text>
                <text id="A" font-family="Montserrat-Bold, Montserrat" font-size="6.99814855" font-weight="bold" fill="#F1C419">
                    <tspan x="229.936117" y="66.4805807">A</tspan>
                </text>
                <text id="w" font-family="Montserrat-Bold, Montserrat" font-size="7.1828873" font-weight="bold" fill="#F1C419">
                    <tspan x="233.464354" y="64.1554532">w</tspan>
                </text>
                <text id="a" font-family="Montserrat-Bold, Montserrat" font-size="7.199599" font-weight="bold" fill="#F1C419">
                    <tspan x="237.231685" y="60.8754594">a</tspan>
                </text>
                <text id="r" font-family="Montserrat-Bold, Montserrat" font-size="7.12762286" font-weight="bold" fill="#F1C419">
                    <tspan x="239.387246" y="58.5105885">r</tspan>
                </text>
                <text id="d" font-family="Montserrat-Bold, Montserrat" font-size="6.97250188" font-weight="bold" fill="#F1C419">
                    <tspan x="240.835786" y="56.7653745">d</tspan>
                </text>
                <text id="-" font-family="Montserrat-Bold, Montserrat" font-size="6.78602578" font-weight="bold"></text>
                <text id="-" font-family="Montserrat-Bold, Montserrat" font-size="6.63297308" font-weight="bold" fill="#F1C419">
                    <tspan x="243.200574" y="52.788636">-</tspan>
                </text>
                <text id="-" font-family="Montserrat-Bold, Montserrat" font-size="6.4587412" font-weight="bold"></text>
                <text id="2" font-family="Montserrat-Bold, Montserrat" font-size="6.1820881" font-weight="bold" fill="#F1C419">
                    <tspan x="244.403569" y="49.1727596">2</tspan>
                </text>
                <text id="0" font-family="Montserrat-Bold, Montserrat" font-size="5.67287763" font-weight="bold" fill="#F1C419">
                    <tspan x="245.210694" y="46.5484448">0</tspan>
                </text>
                <text id="1" font-family="Montserrat-Bold, Montserrat" font-size="5.18037887" font-weight="bold" fill="#F1C419">
                    <tspan x="245.614671" y="42.3753409">1</tspan>
                </text>
                <text id="6" font-family="Montserrat-Bold, Montserrat" font-size="4.66198523" font-weight="bold" fill="#F1C419">
                    <tspan x="245.669604" y="40.6770528">6</tspan>
                </text>
                <text id="M" font-family="Montserrat-Bold, Montserrat" font-size="7.20613476" font-weight="bold" fill="#F1C419">
                    <tspan x="195.702034" y="24.5497">M</tspan>
                </text>
                <text id="o" font-family="Montserrat-Bold, Montserrat" font-size="7.10967019" font-weight="bold" fill="#F1C419">
                    <tspan x="199.03213" y="21.6082093">o</tspan>
                </text>
                <text id="b" font-family="Montserrat-Bold, Montserrat" font-size="6.92766158" font-weight="bold" fill="#F1C419">
                    <tspan x="201.594894" y="19.9896568">b</tspan>
                </text>
                <text id="i" font-family="Montserrat-Bold, Montserrat" font-size="6.73208505" font-weight="bold" fill="#F1C419">
                    <tspan x="204.606392" y="18.604307">i</tspan>
                </text>
                <text id="l" font-family="Montserrat-Bold, Montserrat" font-size="6.58283798" font-weight="bold" fill="#F1C419">
                    <tspan x="206.013319" y="18.154895">l</tspan>
                </text>
                <text id="e" font-family="Montserrat-Bold, Montserrat" font-size="6.32926689" font-weight="bold" fill="#F1C419">
                    <tspan x="207.485686" y="16.862689">e</tspan>
                </text>
                <text id="-" font-family="Montserrat-Bold, Montserrat" font-size="6.06891184" font-weight="bold"></text>
                <text id="A" font-family="Montserrat-Bold, Montserrat" font-size="5.71333319" font-weight="bold" fill="#F1C419">
                    <tspan x="211.463898" y="16.4847744">A</tspan>
                </text>
                <text id="p" font-family="Montserrat-Bold, Montserrat" font-size="5.12436985" font-weight="bold" fill="#F1C419">
                    <tspan x="215.260515" y="15.7053207">p</tspan>
                </text>
                <text id="p" font-family="Montserrat-Bold, Montserrat" font-size="4.49635739" font-weight="bold" fill="#F1C419">
                    <tspan x="218.648853" y="16.4347796">p</tspan>
                </text>
                <text id="l" font-family="Montserrat-Bold, Montserrat" font-size="3.99393088" font-weight="bold" fill="#F1C419">
                    <tspan x="222.034379" y="16.4562298">l</tspan>
                </text>
                <text id="i" font-family="Montserrat-Bold, Montserrat" font-size="3.65944869" font-weight="bold" fill="#F1C419">
                    <tspan x="223.59866" y="17.1720705">i</tspan>
                </text>
                <text id="c" font-family="Montserrat-Bold, Montserrat" font-size="3.18184153" font-weight="bold" fill="#F1C419">
                    <tspan x="225.079714" y="17.100117">c</tspan>
                </text>
                <text id="a" font-family="Montserrat-Bold, Montserrat" font-size="2.52917518" font-weight="bold" fill="#F1C419">
                    <tspan x="227.68161" y="18.7585315">a</tspan>
                </text>
                <text id="t" font-family="Montserrat-Bold, Montserrat" font-size="1.92366561" font-weight="bold" fill="#F1C419">
                    <tspan x="230.392463" y="19.7349645">t</tspan>
                </text>
                <text id="i" font-family="Montserrat-Bold, Montserrat" font-size="1.37706064" font-weight="bold" fill="#F1C419">
                    <tspan x="232.287669" y="20.4616816">i</tspan>
                </text>
                <text id="o" font-family="Montserrat-Bold, Montserrat" font-size="0.912442284" font-weight="bold" fill="#F1C419">
                    <tspan x="233.568099" y="21.8267639">o</tspan>
                </text>
                <text id="n" font-family="Montserrat-Bold, Montserrat" font-size="0.103413986" font-weight="bold" fill="#F1C419">
                    <tspan x="236.079487" y="23.7263947">n</tspan>
                </text>
                <text id="F" font-family="Montserrat-Bold, Montserrat" font-size="6.98515975" font-weight="bold" fill="#EC4F4F">
                    <tspan x="23.7551027" y="19.510974">F</tspan>
                </text>
                <text id="a" font-family="Montserrat-Bold, Montserrat" font-size="6.76277832" font-weight="bold" fill="#EC4F4F">
                    <tspan x="26.3401214" y="18.2436651">a</tspan>
                </text>
                <text id="m" font-family="Montserrat-Bold, Montserrat" font-size="6.34978422" font-weight="bold" fill="#EC4F4F">
                    <tspan x="28.9756062" y="16.4326026">m</tspan>
                </text>
                <text id="i" font-family="Montserrat-Bold, Montserrat" font-size="5.91685191" font-weight="bold" fill="#EC4F4F">
                    <tspan x="33.9737282" y="15.5552063">i</tspan>
                </text>
                <text id="l" font-family="Montserrat-Bold, Montserrat" font-size="5.68719013" font-weight="bold" fill="#EC4F4F">
                    <tspan x="35.4863026" y="15.5583672">l</tspan>
                </text>
                <text id="y" font-family="Montserrat-Bold, Montserrat" font-size="5.32937774" font-weight="bold" fill="#EC4F4F">
                    <tspan x="37.0497566" y="14.7657752">y</tspan>
                </text>
                <text id="-" font-family="Montserrat-Bold, Montserrat" font-size="4.97719106" font-weight="bold"></text>
                <text id="&amp;" font-family="Montserrat-Bold, Montserrat" font-size="4.55170456" font-weight="bold" fill="#EC4F4F">
                    <tspan x="41.0796755" y="15.5719097">&amp;</tspan>
                </text>
                <text id="-" font-family="Montserrat-Bold, Montserrat" font-size="4.09883403" font-weight="bold"></text>
                <text id="K" font-family="Montserrat-Bold, Montserrat" font-size="3.58234322" font-weight="bold" fill="#EC4F4F">
                    <tspan x="45.5883599" y="16.270582">K</tspan>
                </text>
                <text id="i" font-family="Montserrat-Bold, Montserrat" font-size="2.99867468" font-weight="bold" fill="#EC4F4F">
                    <tspan x="49.1696276" y="16.9921367">i</tspan>
                </text>
                <text id="d" font-family="Montserrat-Bold, Montserrat" font-size="2.42220375" font-weight="bold" fill="#EC4F4F">
                    <tspan x="50.6219736" y="17.1791321">d</tspan>
                </text>
                <text id="s" font-family="Montserrat-Bold, Montserrat" font-size="1.71923684" font-weight="bold" fill="#EC4F4F">
                    <tspan x="53.6932035" y="19.4994458">s</tspan>
                </text>
            </g>
        </g>
    </g>
</svg>