<?xml version="1.0" encoding="UTF-8" standalone="no"?>
<svg width="74px" height="48px" viewBox="0 0 74 48" version="1.1" xmlns="http://www.w3.org/2000/svg" xmlns:xlink="http://www.w3.org/1999/xlink">
    <!-- Generator: sketchtool 3.8.3 (29802) - http://www.bohemiancoding.com/sketch -->
    <title>cloud-8</title>
    <desc>Created with sketchtool.</desc>
    <defs></defs>
    <g id="Welcome" stroke="none" stroke-width="1" fill="none" fill-rule="evenodd" opacity="0.15">
        <g id="Home_Des_1" transform="translate(-199.000000, -2059.000000)" stroke="#000000">
            <g id="cloud-8" transform="translate(200.401428, 2059.612681)">
                <path d="M59.4337272,21.5773696 C61.5683223,15.4013334 60.1956762,8.28342347 55.9606244,4.07179666 C48.9304952,-2.91872673 35.407916,-0.521006222 30.3914753,8.30506443 C29.2668064,7.39663576 28.0411448,6.66920425 26.7988882,6.18228255 C19.8982004,3.47716198 10.5395514,7.36564984 9.16643112,14.2725604 C8.78569371,16.1858184 9.05927464,18.1413747 9.80273201,19.9754464 C3.76024428,22.0180584 -0.23678738,27.6870074 0.0107156484,33.2669334 C0.369642454,41.3434397 9.4665641,45.8162336 15.9481089,45.5776912 C17.0395878,45.5378521 50.6947841,45.5806422 55.6216116,45.9293568 C63.0689872,46.4566094 71.1213702,41.0389907 71.5590049,35.0252617 C71.955389,29.570755 66.1011364,23.4360334 59.4337272,21.5773696 L59.4337272,21.5773696 Z" id="Stroke-1"></path>
            </g>
        </g>
    </g>
</svg>