<?xml version="1.0" encoding="UTF-8" standalone="no"?>
<svg width="57px" height="36px" viewBox="0 0 57 36" version="1.1" xmlns="http://www.w3.org/2000/svg" xmlns:xlink="http://www.w3.org/1999/xlink">
    <!-- Generator: sketchtool 3.8.3 (29802) - http://www.bohemiancoding.com/sketch -->
    <title>cloud-5</title>
    <desc>Created with sketchtool.</desc>
    <defs></defs>
    <g id="Welcome" stroke="none" stroke-width="1" fill="none" fill-rule="evenodd" opacity="0.15">
        <g id="Home_Des_1" transform="translate(-121.000000, -1212.000000)" stroke="#000000">
            <g id="cloud-5" transform="translate(122.000000, 1212.790140)">
                <path d="M46.085241,15.9245598 C47.7404179,11.3665131 46.6760605,6.11334349 43.3921779,3.00507293 C37.9409768,-2.15408268 27.455494,-0.384513722 23.5657182,6.12931498 C22.6936436,5.45887522 21.7432589,4.92201522 20.7800063,4.5626566 C15.4291747,2.56621983 8.17242647,5.43600694 7.10770143,10.5334545 C6.81247553,11.9454798 7.0246117,13.3887221 7.60109266,14.7423062 C2.91571423,16.2497975 -0.183606245,20.433603 0.00830897304,24.5517075 C0.286622805,30.5123418 7.3404262,33.8133592 12.3662519,33.6373098 C13.2125907,33.6079077 39.3090162,33.6394877 43.1293055,33.8968466 C48.9040418,34.2859702 55.1479041,30.2876519 55.4872484,25.8493914 C55.7946069,21.8238489 51.255187,17.2962933 46.085241,15.9245598 L46.085241,15.9245598 Z" id="Stroke-1"></path>
            </g>
        </g>
    </g>
</svg>