<?xml version="1.0" encoding="UTF-8" standalone="no"?>
<svg width="90px" height="55px" viewBox="0 0 90 55" version="1.1" xmlns="http://www.w3.org/2000/svg" xmlns:xlink="http://www.w3.org/1999/xlink">
    <!-- Generator: sketchtool 3.8.3 (29802) - http://www.bohemiancoding.com/sketch -->
    <title>cloud-6</title>
    <desc>Created with sketchtool.</desc>
    <defs></defs>
    <g id="Welcome" stroke="none" stroke-width="1" fill="none" fill-rule="evenodd" opacity="0.15">
        <g id="Home_Des_1" transform="translate(-334.000000, -1228.000000)" stroke="#000000">
            <g id="cloud-6" transform="translate(335.019487, 1228.769163)">
                <path d="M72.7791921,25.1485415 C75.393097,17.9503378 73.7122319,9.65437503 68.5262262,4.74570112 C59.9175263,-3.40179185 43.358538,-0.60723558 37.2156875,9.67959769 C35.8384814,8.62081914 34.3376053,7.77299377 32.8164079,7.20548388 C24.3662145,4.05265117 12.9061405,8.58470488 11.2246949,16.6347467 C10.7584653,18.8646592 11.0934771,21.1438707 12.0038731,23.2814912 C4.60458319,25.6621666 -0.289956478,32.2693574 0.0131217789,38.7727915 C0.452643313,48.1860035 11.5922208,53.399069 19.5291552,53.1210465 C20.8657187,53.0746139 62.077975,53.124486 68.1110902,53.5309148 C77.2307266,54.1454305 87.0912209,47.8311665 87.6271237,40.8221327 C88.1125134,34.4648755 80.9437256,27.3148242 72.7791921,25.1485415 L72.7791921,25.1485415 Z" id="Stroke-1"></path>
            </g>
        </g>
    </g>
</svg>