<?xml version="1.0" encoding="UTF-8" standalone="no"?>
<svg width="63px" height="42px" viewBox="0 0 63 42" version="1.1" xmlns="http://www.w3.org/2000/svg" xmlns:xlink="http://www.w3.org/1999/xlink">
    <!-- Generator: sketchtool 3.8.3 (29802) - http://www.bohemiancoding.com/sketch -->
    <title>cloud-9</title>
    <desc>Created with sketchtool.</desc>
    <defs></defs>
    <g id="Welcome" stroke="none" stroke-width="1" fill="none" fill-rule="evenodd" opacity="0.15">
        <g id="Home_Des_1" transform="translate(-391.000000, -2069.000000)" stroke="#000000">
            <g id="cloud-9" transform="translate(391.752641, 2070.246477)">
                <path d="M50.9849244,18.5100382 C52.816076,13.2119565 51.6385585,7.10589322 48.0055406,3.49297032 C41.9747796,-2.50381506 30.3745029,-0.44694257 26.0711745,7.12445781 C25.1063829,6.34516684 24.0549553,5.72114337 22.9892917,5.30344003 C17.0695712,2.98286594 9.04130121,6.31858572 7.8633769,12.2436443 C7.53676322,13.884923 7.77145325,15.5624871 8.40922442,17.1358364 C3.22570667,18.8880808 -0.203126865,23.7511602 0.00919236512,28.5378717 C0.317095922,35.4662621 8.12084447,39.3032259 13.6810051,39.0985934 C14.6173248,39.0644177 43.4882659,39.101125 47.7147201,39.4002681 C54.1034139,39.8525691 61.0111102,35.205092 61.3865329,30.0462449 C61.7265691,25.3671236 56.7045278,20.1044835 50.9849244,18.5100382 L50.9849244,18.5100382 Z" id="Stroke-1"></path>
            </g>
        </g>
    </g>
</svg>