<?xml version="1.0" encoding="UTF-8" standalone="no"?>
<svg width="50px" height="31px" viewBox="0 0 50 31" version="1.1" xmlns="http://www.w3.org/2000/svg" xmlns:xlink="http://www.w3.org/1999/xlink">
    <!-- Generator: sketchtool 3.8.3 (29802) - http://www.bohemiancoding.com/sketch -->
    <title>cloud-3</title>
    <desc>Created with sketchtool.</desc>
    <defs></defs>
    <g id="Welcome" stroke="none" stroke-width="1" fill="none" fill-rule="evenodd" opacity="0.15">
        <g id="Home_Des_1" transform="translate(-963.000000, -456.000000)" stroke="#000000">
            <g id="cloud-3" transform="translate(964.492188, 457.354286)">
                <path d="M39.1021133,13.6852218 C40.5064873,9.76813525 39.6034081,5.25367502 36.8171202,2.5824946 C32.1919196,-1.85117201 23.2952636,-0.330442767 19.9948912,5.26740057 C19.254959,4.69123916 18.4485826,4.2298733 17.6312881,3.92104828 C13.0912484,2.20535375 6.93408863,4.67158666 6.03069748,9.05222271 C5.78020607,10.2656867 5.96019803,11.5059778 6.44932694,12.6692187 C2.47390674,13.9647241 -0.155785064,17.5601959 0.0070499448,21.0992058 C0.243191901,26.2216458 6.22815832,29.0584687 10.4924391,28.9071757 C11.2105352,28.8819082 33.352665,28.9090473 36.5940799,29.130216 C41.4937915,29.4646204 46.7915443,26.0285522 47.079469,22.2144073 C47.3402546,18.7549432 43.4886763,14.86406 39.1021133,13.6852218 L39.1021133,13.6852218 Z" id="Stroke-1"></path>
            </g>
        </g>
    </g>
</svg>