<?xml version="1.0" encoding="UTF-8" standalone="no"?>
<svg width="74px" height="47px" viewBox="0 0 74 47" version="1.1" xmlns="http://www.w3.org/2000/svg" xmlns:xlink="http://www.w3.org/1999/xlink">
    <!-- Generator: sketchtool 3.8.3 (29802) - http://www.bohemiancoding.com/sketch -->
    <title>cloud-1</title>
    <desc>Created with sketchtool.</desc>
    <defs></defs>
    <g id="Welcome" stroke="none" stroke-width="1" fill="none" fill-rule="evenodd" opacity="0.15">
        <g id="Home_Des_1" transform="translate(-235.000000, -390.000000)" stroke="#000000">
            <g id="cloud-1" transform="translate(235.901428, 391.401161)">
                <path d="M60.1036596,21.0354849 C62.2623157,15.014551 60.8741973,8.07539717 56.5914083,3.96953933 C49.4820361,-2.84542709 35.8070313,-0.507921897 30.7340457,8.09649465 C29.5966996,7.21087986 28.3572225,6.50171675 27.1009633,6.02702339 C20.1224914,3.38983804 10.6583524,7.1806721 9.26975443,13.9141255 C8.88472537,15.7793348 9.16139009,17.68578 9.91322766,19.4737917 C3.80262947,21.4651064 -0.239456429,26.9916879 0.0108364343,32.431482 C0.373809035,40.3051585 9.57327049,44.6656246 16.1278748,44.4330728 C17.2316567,44.3942342 51.2662118,44.4359497 56.2485742,44.7759069 C63.779896,45.2899183 71.9230449,40.0083553 72.3656125,34.1456525 C72.7664647,28.8281279 66.8462233,22.847471 60.1036596,21.0354849 L60.1036596,21.0354849 Z" id="Stroke-1"></path>
            </g>
        </g>
    </g>
</svg>