<?xml version="1.0" encoding="UTF-8" standalone="no"?>
<svg width="56px" height="36px" viewBox="0 0 56 36" version="1.1" xmlns="http://www.w3.org/2000/svg" xmlns:xlink="http://www.w3.org/1999/xlink">
    <!-- Generator: sketchtool 3.8.3 (29802) - http://www.bohemiancoding.com/sketch -->
    <title>cloud-4</title>
    <desc>Created with sketchtool.</desc>
    <defs></defs>
    <g id="Welcome" stroke="none" stroke-width="1" fill="none" fill-rule="evenodd" opacity="0.15">
        <g id="Home_Des_1" transform="translate(-992.000000, -385.000000)" stroke="#000000">
            <g id="cloud-4" transform="translate(992.500000, 385.844521)">
                <path d="M45.5817943,15.9530244 C47.2188896,11.3868304 46.1661595,6.12427088 42.9181509,3.0104444 C37.5265001,-2.15793303 27.1555634,-0.385201028 23.3082804,6.14027093 C22.4457326,5.46863277 21.5057301,4.93081315 20.5530003,4.57081219 C15.2606225,2.57080686 8.08314884,5.44572362 7.03005512,10.5522827 C6.73805434,11.9668319 6.94787308,13.412654 7.51805642,14.7686576 C2.88386224,16.2788434 -0.181600484,20.4701273 0.00821820374,24.5955929 C0.283491665,30.5668815 7.26023755,33.8737995 12.2311599,33.6974354 C13.068253,33.6679807 38.8795946,33.6996172 42.6581502,33.957436 C48.3698018,34.3472553 54.5454546,30.34179 54.8810919,25.8955964 C55.1850927,21.8628583 50.6952625,17.3272099 45.5817943,15.9530244 L45.5817943,15.9530244 Z" id="Stroke-1"></path>
            </g>
        </g>
    </g>
</svg>