<?xml version="1.0" encoding="UTF-8" standalone="no"?>
<svg width="97px" height="63px" viewBox="0 0 97 63" version="1.1" xmlns="http://www.w3.org/2000/svg" xmlns:xlink="http://www.w3.org/1999/xlink">
    <!-- Generator: sketchtool 3.8.3 (29802) - http://www.bohemiancoding.com/sketch -->
    <title>cloud-10</title>
    <desc>Created with sketchtool.</desc>
    <defs></defs>
    <g id="Welcome" stroke="none" stroke-width="1" fill="none" fill-rule="evenodd" opacity="0.15">
        <g id="Home_Des_1" transform="translate(-441.000000, -2158.000000)" stroke="#000000">
            <g id="cloud-10" transform="translate(442.217328, 2159.038805)">
                <path d="M78.3686681,28.4516856 C81.183322,20.3080312 79.3733658,10.9224323 73.7890724,5.36902692 C64.5192204,-3.84860141 46.688494,-0.686993153 40.0738697,10.9509679 C38.5908935,9.7531237 36.9747494,8.79394039 35.3367234,8.15189072 C26.2375512,4.58494807 13.8973381,9.71226599 12.0867567,18.8196434 C11.5847204,21.3424446 11.9454613,23.9210199 12.9257761,26.339407 C4.95821733,29.032773 -0.312225271,36.5077877 0.0141295377,43.8654175 C0.487406531,54.5150112 12.4825088,60.4127887 21.0290035,60.0982492 C22.4682157,60.0457179 66.8455925,60.1021404 73.3420538,60.5619518 C83.1620825,61.2571813 93.7798674,54.113568 94.3569277,46.1839303 C94.8795956,38.9916768 87.1602415,30.9024994 78.3686681,28.4516856 L78.3686681,28.4516856 Z" id="Stroke-1"></path>
            </g>
        </g>
    </g>
</svg>