<?xml version="1.0" encoding="UTF-8" standalone="no"?>
<svg width="77px" height="136px" viewBox="0 0 77 136" version="1.1" xmlns="http://www.w3.org/2000/svg" xmlns:xlink="http://www.w3.org/1999/xlink">
    <!-- Generator: sketchtool 3.8.3 (29802) - http://www.bohemiancoding.com/sketch -->
    <title>house-1</title>
    <desc>Created with sketchtool.</desc>
    <defs></defs>
    <g id="Welcome" stroke="none" stroke-width="1" fill="none" fill-rule="evenodd" opacity="0.15">
        <g id="Home_Des_1" transform="translate(-265.000000, -453.000000)" stroke="#090909">
            <g id="house-1" transform="translate(265.500000, 453.862099)">
                <polygon id="Stroke-1" points="74.6768129 37.8926942 65.4594362 28.6631042 65.5717671 28.6631042 65.5717671 8.56396235 53.5645105 8.56396235 53.5645105 16.7530204 37.0636884 0.230910784 0.167248271 36.8267517 0.707553468 48.7925433 37.0653306 14.4429353 75.0124919 49.1010542"></polygon>
                <path d="M62.0819539,78.4595295 L52.0490284,78.4595295 L52.0490284,62.0185384 C52.7272838,59.6419947 54.9624065,58.0528541 57.3584712,58.1851196 C59.5538511,58.3063087 61.4710313,59.8498404 62.0819539,62.0185384 L62.0819539,78.4595295 L62.0819539,78.4595295 Z M62.0819539,101.399447 L52.0490284,101.399447 L52.0490284,84.9584562 C52.7272838,82.5819125 54.9624065,80.992772 57.3584712,81.1250375 C59.5538511,81.2462265 61.4710313,82.7897583 62.0819539,84.9584562 L62.0819539,101.399447 L62.0819539,101.399447 Z M62.0819539,123.589426 L52.0490284,123.589426 L52.0490284,107.148435 C52.7272838,104.771892 54.9624065,103.182751 57.3584712,103.315017 C59.5538511,103.436206 61.4710313,104.979737 62.0819539,107.148435 L62.0819539,123.589426 L62.0819539,123.589426 Z M44.2045852,78.4595295 L34.1719881,78.4595295 L34.1719881,62.0185384 C34.8499151,59.6419947 37.0853663,58.0528541 39.4811025,58.1851196 C41.6764824,58.3063087 43.5936626,59.8498404 44.2045852,62.0185384 L44.2045852,78.4595295 L44.2045852,78.4595295 Z M44.2045852,101.399447 L34.1719881,101.399447 L34.1719881,84.9584562 C34.8499151,82.5819125 37.0853663,80.992772 39.4811025,81.1250375 C41.6764824,81.2462265 43.5936626,82.7897583 44.2045852,84.9584562 L44.2045852,101.399447 L44.2045852,101.399447 Z M44.2045852,123.589426 L34.1719881,123.589426 L34.1719881,107.148435 C34.8499151,104.771892 37.0853663,103.182751 39.4811025,103.315017 C41.6764824,103.436206 43.5936626,104.979737 44.2045852,107.148435 L44.2045852,123.589426 L44.2045852,123.589426 Z M26.3272165,78.4595295 L16.2946194,78.4595295 L16.2946194,62.0185384 C16.9725464,59.6419947 19.2079975,58.0528541 21.6037338,58.1851196 C23.7991137,58.3063087 25.7162939,59.8498404 26.3272165,62.0185384 L26.3272165,78.4595295 L26.3272165,78.4595295 Z M26.3272165,101.399447 L16.2946194,101.399447 L16.2946194,84.9584562 C16.9725464,82.5819125 19.2079975,80.992772 21.6037338,81.1250375 C23.7991137,81.2462265 25.7162939,82.7897583 26.3272165,84.9584562 L26.3272165,101.399447 L26.3272165,101.399447 Z M26.3272165,123.589426 L16.2946194,123.589426 L16.2946194,107.148435 C16.9725464,104.771892 19.2079975,103.182751 21.6037338,103.315017 C23.7991137,103.436206 25.7162939,104.979737 26.3272165,107.148435 L26.3272165,123.589426 L26.3272165,123.589426 Z M37.0653306,14.443033 L0.707553468,48.792641 L0.707553468,134.257322 L75.0124919,134.257322 L75.0124919,49.1011519 L37.0653306,14.443033 L37.0653306,14.443033 Z" id="Stroke-3"></path>
            </g>
        </g>
    </g>
</svg>