<?xml version="1.0" encoding="UTF-8" standalone="no"?>
<svg width="56px" height="56px" viewBox="0 0 56 56" version="1.1" xmlns="http://www.w3.org/2000/svg" xmlns:xlink="http://www.w3.org/1999/xlink">
    <!-- Generator: sketchtool 3.8.3 (29802) - http://www.bohemiancoding.com/sketch -->
    <title>instagram</title>
    <desc>Created with sketchtool.</desc>
    <defs>
        <filter x="-50%" y="-50%" width="200%" height="200%" filterUnits="objectBoundingBox" id="filter-1">
            <feOffset dx="0" dy="2" in="SourceAlpha" result="shadowOffsetOuter1"></feOffset>
            <feGaussianBlur stdDeviation="2" in="shadowOffsetOuter1" result="shadowBlurOuter1"></feGaussianBlur>
            <feColorMatrix values="0 0 0 0 0   0 0 0 0 0   0 0 0 0 0  0 0 0 0.5 0" type="matrix" in="shadowBlurOuter1" result="shadowMatrixOuter1"></feColorMatrix>
            <feMerge>
                <feMergeNode in="shadowMatrixOuter1"></feMergeNode>
                <feMergeNode in="SourceGraphic"></feMergeNode>
            </feMerge>
        </filter>
        <polygon id="path-2" points="48 23.99995 48 0 0 0 0 23.99995 0 47.9999 48 47.9999"></polygon>
    </defs>
    <g id="Welcome" stroke="none" stroke-width="1" fill="none" fill-rule="evenodd">
        <g id="Home_Des_1" transform="translate(-695.000000, -3093.000000)">
            <g id="instagram" filter="url(#filter-1)" transform="translate(698.673514, 3094.731308)">
                <path d="M32.2031,24 C32.2031,28.523 28.5231,32.203 24.0001,32.203 C19.4761,32.203 15.7971,28.523 15.7971,24 C15.7971,22.912 16.0141,21.873 16.4001,20.922 L11.9221,20.922 L11.9221,33.203 C11.9221,34.789 13.2111,36.078 14.7971,36.078 L33.2011,36.078 C34.7871,36.078 36.0781,34.789 36.0781,33.203 L36.0781,20.922 L31.5981,20.922 C31.9841,21.873 32.2031,22.912 32.2031,24" id="Fill-1" fill="#FFFFFF"></path>
                <path d="M24,29.2793 C26.91,29.2793 29.281,26.9103 29.281,24.0003 C29.281,22.8513 28.906,21.7893 28.281,20.9223 C27.32,19.5913 25.762,18.7203 24,18.7203 C22.238,18.7203 20.68,19.5913 19.719,20.9223 C19.094,21.7893 18.719,22.8513 18.719,24.0003 C18.719,26.9103 21.088,29.2793 24,29.2793" id="Fill-3" fill="#FFFFFF"></path>
                <polygon id="Fill-5" fill="#FFFFFF" points="35.5273 17.5391 35.5273 13.1171 35.5273 12.4551 34.8653 12.4591 30.4433 12.4731 30.4613 17.5571"></polygon>
                <g id="Group-9">
                    <mask id="mask-3" fill="white">
                        <use xlink:href="#path-2"></use>
                    </mask>
                    <g id="Clip-8"></g>
                    <path d="M39,20.9219 L39,33.2029 C39,36.4009 36.398,38.9999 33.201,38.9999 L14.797,38.9999 C11.6,38.9999 9,36.4009 9,33.2029 L9,20.9219 L9,14.7969 C9,11.5999 11.6,8.9999 14.797,8.9999 L33.201,8.9999 C36.398,8.9999 39,11.5999 39,14.7969 L39,20.9219 Z M24.001,-0.0001 C10.746,-0.0001 0,10.7439 0,23.9999 C0,37.2539 10.746,47.9999 24.001,47.9999 C37.254,47.9999 48,37.2539 48,23.9999 C48,10.7439 37.254,-0.0001 24.001,-0.0001 L24.001,-0.0001 Z" id="Fill-7" fill="#FFFFFF" mask="url(#mask-3)"></path>
                </g>
            </g>
        </g>
    </g>
</svg>