<?xml version="1.0" encoding="UTF-8" standalone="no"?>
<svg width="124px" height="126px" viewBox="0 0 124 126" version="1.1" xmlns="http://www.w3.org/2000/svg" xmlns:xlink="http://www.w3.org/1999/xlink">
    <!-- Generator: sketchtool 3.8.3 (29802) - http://www.bohemiancoding.com/sketch -->
    <title>learn</title>
    <desc>Created with sketchtool.</desc>
    <defs>
        <filter x="-50%" y="-50%" width="200%" height="200%" filterUnits="objectBoundingBox" id="filter-1">
            <feOffset dx="0" dy="2" in="SourceAlpha" result="shadowOffsetOuter1"></feOffset>
            <feGaussianBlur stdDeviation="2" in="shadowOffsetOuter1" result="shadowBlurOuter1"></feGaussianBlur>
            <feColorMatrix values="0 0 0 0 0   0 0 0 0 0   0 0 0 0 0  0 0 0 0.208559783 0" type="matrix" in="shadowBlurOuter1" result="shadowMatrixOuter1"></feColorMatrix>
            <feMerge>
                <feMergeNode in="shadowMatrixOuter1"></feMergeNode>
                <feMergeNode in="SourceGraphic"></feMergeNode>
            </feMerge>
        </filter>
    </defs>
    <g id="Welcome" stroke="none" stroke-width="1" fill="none" fill-rule="evenodd">
        <g id="Home_Des_1" transform="translate(-640.000000, -1077.000000)">
            <g id="learn" filter="url(#filter-1)" transform="translate(644.000000, 1078.941676)">
                <path d="M116.021475,58.8261547 C116.021475,91.3147842 90.0490269,117.652309 58.0107377,117.652309 C25.9724485,117.652309 0,91.3147842 0,58.8261547 C0,26.3375253 25.9724485,0 58.0107377,0 C90.0490269,0 116.021475,26.3375253 116.021475,58.8261547" id="Fill-1" fill="#FFFFFF"></path>
                <path d="M44.725535,41.2656425 L44.725535,61.4098296 C43.2351053,61.4399969 42.5895499,60.9678793 42.586575,60.9678793 L41.814586,60.2845909 L40.9890485,60.9015113 C40.4059662,61.3359198 39.2487264,61.5289903 38.2655188,61.5863081 L38.2655188,41.2656425 L44.725535,41.2656425 Z" id="Fill-3" fill="#E0E0E0"></path>
                <path d="M41.5443154,84.716903 C40.6964662,84.7304782 39.8828284,84.3910966 39.2566099,83.765126 C38.6170043,83.1240717 38.2644776,82.2748634 38.265965,81.371354 L38.265965,64.1820499 C39.2328106,64.1383074 40.6131687,63.9754042 41.7466093,63.4399353 C42.3713403,63.7265243 43.3575228,64.01613 44.7259813,63.999538 L44.7259813,81.4724143 C44.6768953,83.2356906 43.2504261,84.6912608 41.5443154,84.716903" id="Fill-5" fill="#BFA4D8"></path>
                <path d="M61.2179877,41.2656425 L61.2179877,61.3917293 C59.5237767,61.4927896 58.788974,60.9678793 58.7845117,60.9678793 L58.0125226,60.2845909 L57.1869852,60.9015113 C56.6619137,61.2936857 55.6697813,61.4882645 54.7579715,61.565191 L54.7579715,41.2656425 L61.2179877,41.2656425 Z" id="Fill-7" fill="#E0E0E0"></path>
                <path d="M58.0369169,84.716903 C57.1890676,84.7304782 56.3754299,84.3910966 55.7492114,83.765126 C55.1096058,83.1240717 54.757079,82.2748634 54.7585665,81.371354 L54.7585665,64.1654579 C55.6986379,64.1021066 56.9243007,63.9226115 57.9461821,63.4399353 C58.6155368,63.7476414 59.6924541,64.0628892 61.2185827,63.9950129 L61.2185827,81.4724143 C61.1694967,83.2356906 59.7430276,84.6912608 58.0369169,84.716903" id="Fill-9" fill="#BFA4D8"></path>
                <path d="M77.7102917,41.2656425 L77.7102917,61.3887126 C75.9893065,61.5003314 75.2426042,60.9678793 75.2426042,60.9678793 L74.4676402,60.2845909 L73.6421028,60.9015113 C73.1244685,61.2876522 72.1516731,61.4837394 71.2502755,61.5621743 L71.2502755,41.2656425 L77.7102917,41.2656425 Z" id="Fill-11" fill="#E0E0E0"></path>
                <path d="M74.5292209,84.716903 C73.6813716,84.7304782 72.8677338,84.3910966 72.2415154,83.765126 C71.6019098,83.1240717 71.249383,82.2748634 71.2508705,81.371354 L71.2508705,64.1624412 C72.1864795,64.0975816 73.3928054,63.916578 74.4012997,63.4399353 C75.0751168,63.7506581 76.1639337,64.0689227 77.7108867,63.9935045 L77.7108867,81.4724143 C77.6618007,83.2356906 76.2353315,84.6912608 74.5292209,84.716903" id="Fill-13" fill="#BFA4D8"></path>
                <path d="M74.5292209,83.20854 C73.6813716,83.2221153 72.8677338,82.8827336 72.2415154,82.256763 C71.6019098,81.6157088 71.249383,80.7665004 71.2508705,79.862991 L71.2508705,62.6540782 C72.1864795,62.5892186 73.3928054,62.4082151 74.4012997,61.9315724 C75.0751168,62.2422951 76.1639337,62.5605597 77.7108867,62.4851416 L77.7108867,79.9640514 C77.6618007,81.7273276 76.2353315,83.1828979 74.5292209,83.20854 L74.5292209,83.20854 Z M77.7108867,39.7571288 L77.7108867,59.8817071 C75.9899015,59.9918176 75.2431992,59.4593655 75.2431992,59.4593655 L74.4682352,58.7775855 L73.6426978,59.3929975 C73.1235761,59.7791385 72.1522681,59.9752256 71.2508705,60.0536605 L71.2508705,39.7571288 L77.7108867,39.7571288 Z M58.0363219,83.20854 C57.1884727,83.2221153 56.3763223,82.8827336 55.7501039,82.256763 C55.1090108,81.6157088 54.7579715,80.7665004 54.7579715,79.862991 L54.7579715,62.657095 C55.6980429,62.5937437 56.9237057,62.4142485 57.9455872,61.9315724 C58.6149418,62.2392784 59.6918591,62.5545263 61.2179877,62.4866499 L61.2179877,79.9640514 C61.1703892,81.7273276 59.7424326,83.1828979 58.0363219,83.20854 L58.0363219,83.20854 Z M61.2179877,39.7571288 L61.2179877,59.8832155 C59.5237767,59.9842758 58.788974,59.4593655 58.7859991,59.4593655 L58.0125226,58.7775855 L57.1869852,59.3929975 C56.6619137,59.7851719 55.6697813,59.9797507 54.7579715,60.0566772 L54.7579715,39.7571288 L61.2179877,39.7571288 Z M41.5449104,83.20854 C40.6955737,83.2221153 39.8834234,82.8827336 39.2572049,82.256763 C38.6175993,81.6157088 38.2650725,80.7665004 38.26656,79.862991 L38.26656,62.6736869 C39.2319182,62.6299444 40.6137637,62.4670412 41.7472043,61.9315724 C42.3719353,62.2181613 43.3566304,62.507767 44.7250888,62.491175 L44.7265762,79.9640514 C44.6774902,81.7273276 43.2495336,83.1828979 41.5449104,83.20854 L41.5449104,83.20854 Z M44.7250888,39.7571288 L44.7250888,59.9013159 C43.2346591,59.9314831 42.5891037,59.4593655 42.5861288,59.4593655 L41.8141397,58.7775855 L40.9886023,59.3929975 C40.40552,59.8274061 39.2497676,60.0219849 38.26656,60.0777943 L38.26656,39.7571288 L44.7250888,39.7571288 Z M80.2975706,36.2335929 L68.7102976,36.2335929 C67.8059251,36.2335929 67.0711224,36.9772159 67.0711224,37.8958089 L67.0711224,38.0949128 C67.0711224,38.9411044 67.6958535,39.6319346 68.502054,39.7360117 L68.502054,66.9016283 L63.9668042,66.9016283 L63.9668042,39.7405368 C64.7938291,39.6575768 65.4423594,38.9576964 65.4423594,38.0949128 L65.4423594,37.8958089 C65.4423594,36.9772159 64.7090442,36.2335929 63.8046717,36.2335929 L52.2173987,36.2335929 C51.3130262,36.2335929 50.5797109,36.9772159 50.5797109,37.8958089 L50.5797109,38.0949128 C50.5797109,38.9411044 51.204442,39.6319346 52.009155,39.7360117 L52.009155,66.9016283 L47.4739053,66.9016283 L47.4739053,39.7405368 C48.3024176,39.6575768 48.9509479,38.9576964 48.9509479,38.0949128 L48.9509479,37.8958089 C48.9509479,36.9772159 48.2176327,36.2335929 47.3117727,36.2335929 L35.7259872,36.2335929 C34.8201272,36.2335929 34.086812,36.9772159 34.086812,37.8958089 L34.086812,38.0949128 C34.086812,38.9411044 34.711543,39.6319346 35.5177435,39.7360117 L35.5177435,79.8614827 C35.516256,81.5161568 36.1573491,83.071279 37.3264886,84.2402603 C38.4599291,85.3745492 39.9384592,85.9959948 41.4973118,85.9959948 L41.5850717,85.9959948 C44.7429382,85.9492355 47.384658,83.2779247 47.4739053,80.0032688 L47.4739053,69.689083 L52.009155,69.689083 L52.009155,79.8614827 C52.0076675,81.5161568 52.650248,83.071279 53.8193875,84.2402603 C54.9528281,85.3745492 56.4313582,85.9959948 57.9902108,85.9959948 L58.0764832,85.9959948 C61.2343498,85.9492355 63.877557,83.2779247 63.9668042,80.0032688 L63.9668042,69.689083 L68.502054,69.689083 L68.502054,79.8614827 C68.5005665,81.5161568 69.143147,83.071279 70.3122865,84.2402603 C71.445727,85.3745492 72.9227697,85.9959948 74.4816223,85.9959948 L74.5693821,85.9959948 C77.7272487,85.9492355 80.3689685,83.2779247 80.4597032,80.0032688 L80.4597032,39.7405368 C81.2867281,39.6575768 81.9352584,38.9576964 81.9352584,38.0949128 L81.9352584,37.8958089 C81.9352584,36.9772159 81.2019432,36.2335929 80.2975706,36.2335929 L80.2975706,36.2335929 Z" id="Fill-15" fill="#4F4F4F"></path>
            </g>
        </g>
    </g>
</svg>