<?xml version="1.0" encoding="UTF-8" standalone="no"?>
<svg width="191px" height="193px" viewBox="0 0 191 193" version="1.1" xmlns="http://www.w3.org/2000/svg" xmlns:xlink="http://www.w3.org/1999/xlink">
    <!-- Generator: sketchtool 39.1 (31720) - http://www.bohemiancoding.com/sketch -->
    <title>E34497B4-0FEE-4299-9E2E-0213ED802589</title>
    <desc>Created with sketchtool.</desc>
    <defs></defs>
    <g id="Welcome" stroke="none" stroke-width="1" fill="none" fill-rule="evenodd" opacity="0.15">
        <g id="Home_Des_3" transform="translate(-165.000000, -2824.000000)" stroke="#000000">
            <g id="SectionD" transform="translate(165.000000, 2711.000000)">
                <g id="LineArt_4" transform="translate(0.000000, 114.000000)">
                    <g id="cloud-14-copy-3" transform="translate(0.570313, 0.390625)">
                        <path d="M67.3691076,24.4583035 C69.7887063,17.4576649 68.2327893,9.38939679 63.4322884,4.61544851 C55.4635214,-3.30842477 40.1354553,-0.590569124 34.4492373,9.41392718 C33.1744065,8.38420833 31.785099,7.55965275 30.3769807,7.00771898 C22.5549375,3.94142031 11.9467549,8.34908528 10.3903005,16.178182 C9.95872836,18.3468915 10.2688369,20.5635467 11.111558,22.6424972 C4.26229876,24.9578314 -0.268402391,31.3836784 0.0121463637,37.7086163 C0.418995803,46.8634691 10.7305062,51.9334546 18.0774439,51.6630628 C19.3146531,51.6179046 57.4633718,51.6664079 63.0480119,52.0616816 C71.4897347,52.6593311 80.6172433,46.5183711 81.1133094,39.7017104 C81.5626173,33.5189373 74.9267256,26.5651294 67.3691076,24.4583035 L67.3691076,24.4583035 Z" id="Stroke-1"></path>
                    </g>
                    <g id="Page-1" transform="translate(57.500000, 106.302945)">
                        <path d="M50.4237136,25.6183872 L50.304621,19.8050067 C50.304621,19.8050067 46.6579872,19.8133155 44.8060511,19.6452934 C44.8060511,19.6452934 44.8808302,16.9329364 44.8060511,15.5416763 L46.8638604,15.5416763 L46.8426269,17.7859717 L50.0802838,17.7859717 C50.0802838,17.7859717 52.5119884,17.6733415 52.3993582,20.890688 L52.3411967,25.6442368 C52.3411967,25.6442368 51.4595422,25.6054624 50.4237136,25.6183872 L50.4237136,25.6183872 Z" id="Stroke-1"></path>
                        <path d="M104.387801,81.1608668 C91.0420443,81.1608668 80.2240051,70.0409417 80.2240051,56.3231362 C80.2240051,42.6062539 91.0420443,31.4863288 104.387801,31.4863288 C117.733557,31.4863288 128.551597,42.6062539 128.551597,56.3231362 C128.551597,70.0409417 117.733557,81.1608668 104.387801,81.1608668 L104.387801,81.1608668 Z M104.387801,27.7455287 C88.6048004,27.7455287 75.8101933,40.5401358 75.8101933,56.3231362 C75.8101933,72.1070598 88.6048004,84.9016669 104.387801,84.9016669 C120.170801,84.9016669 132.965408,72.1070598 132.965408,56.3231362 C132.965408,40.5401358 120.170801,27.7455287 104.387801,27.7455287 L104.387801,27.7455287 Z" id="Stroke-3"></path>
                        <path d="M27.3563083,79.519697 C14.7971168,79.519697 4.61516128,69.0543195 4.61516128,56.1452359 C4.61516128,43.2361522 14.7971168,32.7707748 27.3563083,32.7707748 C39.9154997,32.7707748 50.0974552,43.2361522 50.0974552,56.1452359 C50.0974552,69.0543195 39.9154997,79.519697 27.3563083,79.519697 L27.3563083,79.519697 Z M27.3563083,29.2506191 C12.5029687,29.2506191 0.461691536,41.2918963 0.461691536,56.1452359 C0.461691536,70.9985754 12.5029687,83.0398526 27.3563083,83.0398526 C42.2096478,83.0398526 54.250925,70.9985754 54.250925,56.1452359 C54.250925,41.2918963 42.2096478,29.2506191 27.3563083,29.2506191 L27.3563083,29.2506191 Z" id="Stroke-5"></path>
                        <path d="M81.052391,19.805376 C81.052391,19.805376 80.3793793,18.5710597 80.5289375,17.4115224 L74.469063,3.1222571 C74.469063,3.1222571 74.9925165,2.74836173 75.3294839,1.70053151 L82.1750003,16.7006596 C82.1750003,16.7006596 83.2966864,17.7106387 83.5210236,18.7206178 C83.5210236,18.7206178 82.8849399,19.6927458 81.052391,19.805376 L81.052391,19.805376 Z" id="Stroke-7"></path>
                        <path d="M69.7183762,6.33932668 C69.7183762,6.33932668 76.1152181,3.12290334 75.2547972,1.02816609 C75.2547972,1.02816609 74.5060832,-0.991792076 66.9506273,2.59852663 C66.9506273,2.59852663 66.7262901,3.38416849 67.5488599,3.83284293 C67.5488599,3.83284293 73.0852809,1.02816609 73.7582925,1.8507359 C73.7582925,1.8507359 74.6371774,2.39265338 69.0822925,5.25456852 C69.0822925,5.25456852 68.8958064,6.11498946 69.7183762,6.33932668 L69.7183762,6.33932668 Z" id="Stroke-9"></path>
                        <path d="M69.0824771,5.25456852 C69.0824771,5.25456852 65.8466666,5.51675687 63.0410666,8.39621278 C63.0410666,8.39621278 63.0041386,9.444043 63.9208747,9.7431593 C63.9208747,9.7431593 67.7170666,8.73318021 69.7185608,6.33932668 C69.7185608,6.33932668 68.8950678,6.15191739 69.0824771,5.25456852 L69.0824771,5.25456852 Z" id="Stroke-11"></path>
                        <path d="M67.5488599,3.83311989 C67.5488599,3.83311989 65.2297854,5.64720481 61.3578912,6.11526642 C61.3578912,6.11526642 60.7596586,5.66566878 60.8159737,4.69354083 C60.8159737,4.69354083 63.8643749,2.84160477 66.9506273,2.59880359 C66.9506273,2.59880359 66.781682,3.45922453 67.5488599,3.83311989 L67.5488599,3.83311989 Z" id="Stroke-13"></path>
                        <path d="M82.0426136,21.5582528 C82.0426136,21.5582528 74.1880414,27.0245107 53.7087306,25.7901944 C53.7087306,25.7901944 47.2564967,24.7063595 45.2365385,27.7455287 L43.6652548,30.054448 L45.4608758,31.0644271 L46.9195293,28.9327619 C46.9195293,28.9327619 47.5925409,27.3439374 51.1274677,27.7455287 C51.1274677,27.7455287 72.1163841,29.7091718 82.9436553,23.6262173 L82.0426136,21.5582528 L82.0426136,21.5582528 Z" id="Stroke-15"></path>
                        <path d="M44.5069348,32.8319828 C44.5069348,32.8319828 42.0096831,31.3447101 42.6549988,30.5036764 C42.6549988,30.5036764 43.228305,29.8085079 43.6649779,30.0550019 L45.4605988,31.064981 C45.4605988,31.064981 56.5140536,38.9195533 57.9727072,51.0393023 L58.3096746,51.0393023 C58.3096746,51.0393023 66.3895073,34.6248342 84.3438704,26.8413482 L85.2412193,28.9010039 C85.2412193,28.9010039 65.8891337,36.9909917 58.8571313,55.4088005 L56.8528675,55.1198394 C56.8528675,55.1198394 56.6636118,41.7251533 44.5069348,32.8319828 L44.5069348,32.8319828 Z" id="Stroke-17"></path>
                        <path d="M29.1078003,57.3217599 C29.1078003,58.2892719 28.3240049,59.0730674 27.3564929,59.0730674 C26.3889809,59.0730674 25.6051855,58.2892719 25.6051855,57.3217599 C25.6051855,56.354248 26.3889809,55.5704525 27.3564929,55.5704525 C28.3240049,55.5704525 29.1078003,56.354248 29.1078003,57.3217599 L29.1078003,57.3217599 Z" id="Stroke-19"></path>
                        <path d="M54.4047299,55.4795175 L57.3275761,55.6023029 C57.3534256,55.6032261 59.8802198,55.7223187 61.1708512,57.2114377 C62.0248097,58.1955673 62.7726004,59.552669 62.5768824,61.3141316 C62.5584184,61.53016 62.100512,66.801623 56.4320736,66.2984799 C56.2760531,66.2984799 56.1163397,66.2947871 55.9520104,66.2874015 L52.5435618,65.5977723" id="Stroke-21"></path>
                        <path d="M55.0553078,9.31950353 C55.0553078,9.31950353 37.9982936,12.5368501 33.4349237,12.3863687 C33.4349237,12.3863687 31.4518935,13.1350827 31.7140818,14.7432943 C31.7140818,14.7432943 34.3701237,16.5389153 37.7739563,15.8659036 C37.7739563,15.8659036 41.0651587,15.0054827 45.7790099,15.379378 C45.7790099,15.379378 55.9905078,16.8011036 55.0553078,9.31950353 L55.0553078,9.31950353 Z" id="Stroke-23"></path>
                        <path d="M89.1866924,32.1996842 L83.894919,20.0670104 C83.894919,20.0670104 84.7931911,18.7957662 83.5210236,18.7209871 C82.9744901,19.3819972 82.2091586,19.6737279 81.052391,19.8057452 C81.052391,19.8057452 80.4910864,20.8157243 81.8001817,21.0022104 L87.1898142,33.3739926" id="Stroke-25"></path>
                        <path d="M104.387801,55.6244596 C104.387801,55.6244596 98.8763062,53.2278365 96.3513585,48.6266155 L90.8084751,35.9169427 L88.8854527,37.2657356 L93.3214212,47.4486143 C93.3214212,47.4486143 95.446624,52.1163056 99.9426004,54.5553958 L103.698172,56.4128711 C103.742485,56.7563009 104.032369,57.0221821 104.387801,57.0221821 C104.773698,57.0221821 105.086662,56.7092178 105.086662,56.3233208 C105.086662,55.9374239 104.773698,55.6244596 104.387801,55.6244596 L104.387801,55.6244596 Z" id="Stroke-27"></path>
                        <path d="M48.2690608,64.7324584 L26.3043237,60.2872579 C26.2941685,60.2854115 25.040465,60.0093752 24.3683765,58.9550826 C23.9206253,58.2516054 23.8199967,57.3450245 24.068337,56.2602664 C24.1228058,56.0848587 24.7782766,54.1267548 27.0733479,54.1267548 C27.2866068,54.1267548 27.510944,54.1433724 27.7408204,54.1766075 L27.7685164,54.1803003 L32.2257184,54.5449637 L50.0831457,55.2973704" id="Stroke-29"></path>
                    </g>
                </g>
            </g>
        </g>
    </g>
</svg>