<?xml version="1.0" encoding="UTF-8" standalone="no"?>
<svg width="136px" height="306px" viewBox="0 0 136 306" version="1.1" xmlns="http://www.w3.org/2000/svg" xmlns:xlink="http://www.w3.org/1999/xlink">
    <!-- Generator: sketchtool 39.1 (31720) - http://www.bohemiancoding.com/sketch -->
    <title>15EA6DEF-8C46-4E68-9766-7918FA0B99B1</title>
    <desc>Created with sketchtool.</desc>
    <defs></defs>
    <g id="Welcome" stroke="none" stroke-width="1" fill="none" fill-rule="evenodd" opacity="0.15">
        <g id="Home_Des_3" transform="translate(-1069.000000, -2711.000000)">
            <g id="SectionD" transform="translate(165.000000, 2711.000000)">
                <g id="LineArt_5" transform="translate(905.000000, 0.000000)">
                    <g id="Group-4" stroke="#000000">
                        <g id="cloud-11" transform="translate(39.250000, 86.244765)">
                            <path d="M78.3686681,28.4516856 C81.183322,20.3080312 79.3733658,10.9224323 73.7890724,5.36902692 C64.5192204,-3.84860141 46.688494,-0.686993153 40.0738697,10.9509679 C38.5908935,9.7531237 36.9747494,8.79394039 35.3367234,8.15189072 C26.2375512,4.58494807 13.8973381,9.71226599 12.0867567,18.8196434 C11.5847204,21.3424446 11.9454613,23.9210199 12.9257761,26.339407 C4.95821733,29.032773 -0.312225271,36.5077877 0.0141295377,43.8654175 C0.487406531,54.5150112 12.4825088,60.4127887 21.0290035,60.0982492 C22.4682157,60.0457179 66.8455925,60.1021404 73.3420538,60.5619518 C83.1620825,61.2571813 93.7798674,54.113568 94.3569277,46.1839303 C94.8795956,38.9916768 87.1602415,30.9024994 78.3686681,28.4516856 L78.3686681,28.4516856 Z" id="Stroke-1"></path>
                        </g>
                        <g id="cloud-14" transform="translate(0.464844, 0.803358)">
                            <path d="M50.9849244,18.5100382 C52.816076,13.2119565 51.6385585,7.10589322 48.0055406,3.49297032 C41.9747796,-2.50381506 30.3745029,-0.44694257 26.0711745,7.12445781 C25.1063829,6.34516684 24.0549553,5.72114337 22.9892917,5.30344003 C17.0695712,2.98286594 9.04130121,6.31858572 7.8633769,12.2436443 C7.53676322,13.884923 7.77145325,15.5624871 8.40922442,17.1358364 C3.22570667,18.8880808 -0.203126865,23.7511602 0.00919236512,28.5378717 C0.317095922,35.4662621 8.12084447,39.3032259 13.6810051,39.0985934 C14.6173248,39.0644177 43.4882659,39.101125 47.7147201,39.4002681 C54.1034139,39.8525691 61.0111102,35.205092 61.3865329,30.0462449 C61.7265691,25.3671236 56.7045278,20.1044835 50.9849244,18.5100382 L50.9849244,18.5100382 Z" id="Stroke-1"></path>
                        </g>
                    </g>
                    <g id="Page-1" transform="translate(31.464844, 227.703125)" fill="#000000">
                        <g id="Group-3" transform="translate(0.000000, 0.168028)">
                            <path d="M44.7254595,9.8476396 C40.9647882,6.27880849 34.7970592,6.30060851 31.0648957,9.90163658 C31.3033543,10.0005751 31.5421484,10.0995137 31.7806071,10.1981169 C32.1679767,5.11502275 28.6715887,0.112421031 23.263842,0.167759546 C18.5241821,0.216725746 14.9429417,4.87622868 16.5521187,9.44517768 C16.8073466,9.33751911 17.0629099,9.22986055 17.3181378,9.1218666 C15.3179021,6.3609778 11.8825542,5.08416734 8.53272942,5.6462725 C4.83376895,6.26707001 2.00077238,9.23019593 0.815186628,12.6886854 C-0.0350141874,15.1678509 0.142739829,17.9230381 0.0964567079,20.5112037 C0.0370935741,23.8097145 -0.00114030879,27.1092316 0.00187815565,30.4084132 C0.00825046946,36.5104067 -0.20706666,42.5741664 2.45957898,48.2267441 C3.90206959,51.284784 6.092804,53.9578019 8.93519134,55.8108037 C10.2136787,56.6442353 11.6072031,57.300919 13.0496938,57.7972887 C13.8069929,58.0578828 14.5803906,58.271523 15.3621729,58.444917 C15.6224316,58.5026032 17.394941,58.8795759 17.0562022,58.4385447 C17.3332302,58.7990835 17.0562022,60.5521406 17.0562022,60.9753964 L17.0562022,65.529253 L17.0562022,71.9948039 C17.1960577,71.8549483 17.3355779,71.7150928 17.4754334,71.5755727 C15.4456837,71.5755727 12.8461151,71.1627138 11.049458,72.3228103 C9.71194286,73.1864265 8.98918832,74.8754251 9.03681298,76.4433497 C9.04352068,76.6697345 9.223287,76.8625808 9.45604415,76.8625808 L20.0780205,76.8625808 C20.3047407,76.8625808 20.4972517,76.6704053 20.4972517,76.4433497 L20.4972517,71.9948039 C20.4972517,71.7680836 20.3050761,71.5755727 20.0780205,71.5755727 L20.0293897,71.5755727 C20.1692452,71.7150928 20.3087653,71.8549483 20.4486209,71.9948039 L20.4486209,58.6166341 C20.3087653,58.7564896 20.1692452,58.8963451 20.0293897,59.0358653 C22.5632229,59.1136746 25.0678776,58.9121082 27.5688431,58.5133355 C27.3920952,58.3785108 27.2153473,58.243686 27.0382641,58.1088613 L27.0382641,72.2708257 C27.1781196,72.1309701 27.3176398,71.99145 27.4574953,71.8515945 L27.4088645,71.8515945 C27.1824796,71.8515945 26.9896333,72.0437701 26.9896333,72.2708257 L26.9896333,76.7193715 C26.9896333,76.9460917 27.1818089,77.1386026 27.4088645,77.1386026 L38.0311762,77.1386026 C38.2629272,77.1386026 38.4433643,76.9464271 38.4504074,76.7193715 C38.4976966,75.1514469 37.7749421,73.4627837 36.4377624,72.5991675 C34.6421114,71.4394064 32.0398597,71.8515945 30.0114516,71.8515945 C30.1513071,71.99145 30.2911626,72.1309701 30.4306827,72.2708257 L30.4306827,60.5521406 C30.4306827,59.7861214 30.3508611,58.9630867 30.4306827,58.200086 C30.443092,58.0840428 30.362935,57.7429563 30.4306827,57.6453593 C30.5209013,57.5159007 30.6272183,57.916015 30.7456092,57.8640303 C31.4522653,57.55447 32.3410353,57.4551961 33.0855899,57.2335066 C36.3700146,56.2551888 39.5964177,54.9703291 42.2090664,52.691053 C44.4501085,50.7364296 46.166944,48.1294825 46.691486,45.1744058 C47.012114,43.3670164 47.1281572,41.5150208 47.2374927,39.6851605 C47.57053,34.1211244 47.5859577,28.5178483 47.2961851,22.9517999 C47.1516342,20.1791726 46.940677,17.3907822 46.4543689,14.6543765 C46.1746578,13.0797442 45.8684514,11.0717946 44.7254595,9.8476396 C44.3565361,9.45255615 43.7642463,10.0461875 44.132499,10.4406002 C45.6460912,12.0611802 45.7715252,15.3660634 46.0123315,17.4213023 C46.4402827,21.0723027 46.5821505,24.7591893 46.6314521,28.4323251 C46.6810891,32.131621 46.6237383,35.8366184 46.4080858,39.5302127 C46.2528025,42.1935045 46.2048425,45.0841873 45.0870045,47.5559743 C42.3958758,53.50738 35.7951648,55.8188529 29.9001038,57.201645 C29.7220144,57.2432328 29.5922204,57.4270237 29.5922204,57.6057839 L29.5922204,72.2708257 C29.5922204,72.4975459 29.784396,72.6900568 30.0114516,72.6900568 C31.6447762,72.6900568 33.6433351,72.3955889 35.2146135,72.9335463 C36.7879042,73.4721745 37.6605758,75.1101945 37.611945,76.7193715 C37.7514652,76.5795159 37.8913207,76.4396604 38.0311762,76.3001403 L27.4088645,76.3001403 C27.54872,76.4396604 27.6885755,76.5795159 27.8280956,76.7193715 L27.8280956,72.2708257 C27.6885755,72.4106812 27.54872,72.5502013 27.4088645,72.6900568 L27.4574953,72.6900568 C27.6842155,72.6900568 27.8767264,72.4978813 27.8767264,72.2708257 L27.8767264,58.1088613 C27.8767264,57.8127164 27.6100954,57.6624639 27.3461475,57.7047225 C24.916619,58.0920921 22.4887674,58.2728645 20.0293897,58.1974029 C19.8030048,58.1906952 19.6101585,58.39528 19.6101585,58.6166341 L19.6101585,71.9948039 C19.6101585,72.2211887 19.8023341,72.414035 20.0293897,72.414035 L20.0780205,72.414035 C19.938165,72.2741795 19.7986448,72.134324 19.6587893,71.9948039 L19.6587893,76.4433497 C19.7986448,76.3034941 19.938165,76.1636386 20.0780205,76.0241185 L9.45604415,76.0241185 C9.59556429,76.1636386 9.7354198,76.3034941 9.87527532,76.4433497 C9.82664451,74.8351789 10.700993,73.1951465 12.2722715,72.6575245 C13.8425437,72.1199024 15.8424441,72.414035 17.4754334,72.414035 C17.7021536,72.414035 17.8946646,72.2218595 17.8946646,71.9948039 L17.8946646,58.3956154 C17.8946646,58.2312768 17.7658767,58.0166304 17.5867812,57.9914766 C13.0493584,57.3468667 8.80606814,55.4821265 5.79800064,51.9307354 C2.78289006,48.3709596 1.27399322,43.6909982 1.01742375,39.0844861 C0.778294285,34.7918943 0.820888172,30.4785086 0.8581159,26.1812214 C0.888300545,22.6972427 0.791374298,19.1539008 1.05096224,15.6769652 C1.31591634,12.1282572 3.3919491,8.56646914 6.70320459,7.0666277 C10.0895863,5.532577 14.3955935,6.51022409 16.5943772,9.54512239 C16.8509466,9.89962427 17.5311073,9.70610716 17.3603964,9.2221467 C15.8686042,4.98623494 19.3431921,0.725504696 23.7608825,1.01728959 C28.5075855,1.33120989 31.2832313,5.72542334 30.9421448,10.1981169 C30.9133017,10.5750895 31.4123545,10.7317143 31.6578562,10.4945971 C35.0576533,7.21419708 40.7041941,7.18669551 44.132499,10.4406002 C44.5238932,10.8118713 45.1178599,10.2199169 44.7254595,9.8476396" id="Fill-1"></path>
                        </g>
                        <path d="M22.4820597,31.3322981 C22.3673581,33.8839067 20.4335285,36.0219856 17.7923722,36.0219856 C15.2397574,36.0219856 13.1026846,33.8845774 13.1026846,31.3322981 C13.1026846,28.7763295 15.2367389,26.6426105 17.7923722,26.6426105 C20.436547,26.6426105 22.3673581,28.7763295 22.4820597,31.3322981 C22.5062074,31.8695847 23.3446698,31.8726032 23.3205221,31.3322981 C23.1856973,28.3275844 20.900049,25.8041481 17.7923722,25.8041481 C14.7856462,25.8041481 12.2642222,28.3255721 12.2642222,31.3322981 C12.2642222,34.349421 14.78464,36.847368 17.7923722,36.860448 C20.8987074,36.8738634 23.1860327,34.325944 23.3205221,31.3322981 C23.3446698,30.7929991 22.5062074,30.7940052 22.4820597,31.3322981" id="Fill-4"></path>
                        <path d="M35.0062053,30.9795067 C34.8915036,33.5311153 32.9576741,35.6691942 30.3165177,35.6691942 C27.763903,35.6691942 25.6268301,33.531786 25.6268301,30.9795067 C25.6268301,28.423538 27.7608845,26.2898191 30.3165177,26.2898191 C32.9606926,26.2898191 34.8915036,28.423538 35.0062053,30.9795067 C35.030353,31.5167933 35.8688153,31.5198118 35.8446676,30.9795067 C35.7098429,27.974793 33.4241945,25.4513567 30.3165177,25.4513567 C27.3097917,25.4513567 24.7883678,27.9727807 24.7883678,30.9795067 C24.7883678,33.9966295 27.3087856,36.4945766 30.3165177,36.5076566 C33.422853,36.521072 35.7101783,33.9731526 35.8446676,30.9795067 C35.8688153,30.4398723 35.030353,30.4412138 35.0062053,30.9795067" id="Fill-6"></path>
                        <path d="M32.2347519,32.2706045 C32.2347519,33.3884425 31.3285418,34.2943172 30.2110391,34.2943172 C29.0932011,34.2943172 28.1873264,33.3884425 28.1873264,32.2706045 C28.1873264,31.1527665 29.0932011,30.2468918 30.2110391,30.2468918 C31.3285418,30.2468918 32.2347519,31.1527665 32.2347519,32.2706045" id="Fill-8"></path>
                        <path d="M20.31497,32.2706045 C20.31497,33.3884425 19.4087599,34.2943172 18.2912572,34.2943172 C17.1734192,34.2943172 16.2675445,33.3884425 16.2675445,32.2706045 C16.2675445,31.1527665 17.1734192,30.2468918 18.2912572,30.2468918 C19.4087599,30.2468918 20.31497,31.1527665 20.31497,32.2706045" id="Fill-10"></path>
                    </g>
                </g>
            </g>
        </g>
    </g>
</svg>