<?xml version="1.0" encoding="UTF-8" standalone="no"?>
<svg width="100%" height="100%"  viewBox="0 0 885 411" version="1.1" xmlns="http://www.w3.org/2000/svg" xmlns:xlink="http://www.w3.org/1999/xlink">
    <!-- Generator: sketchtool 39.1 (31720) - http://www.bohemiancoding.com/sketch -->
    <title>03C995A4-D983-49C7-B80E-D2E93E3C3BF8</title>
    <desc>Created with sketchtool.</desc>
    <defs></defs>
    <g id="Welcome" stroke="none" stroke-width="1" fill="none" fill-rule="evenodd">
        <g id="Home_Des_3" transform="translate(0.000000, -1531.000000)">
            <g id="SectionB" transform="translate(0.000000, 1412.000000)">
                <g id="LineArt_2" transform="translate(0.000000, 119.000000)">
                    <path d="M0.5,410.480469 L884.5,410.480469" id="Line-Copy-4" stroke="#E3E3E3" stroke-linecap="square"></path>
                    <g id="cloud-14-copy-2" opacity="0.15" transform="translate(220.717542, 58.827137)" stroke="#000000">
                        <path d="M71.7188057,26.0374581 C74.2946262,18.584822 72.6382512,9.99562482 67.5278051,4.91344574 C59.0445333,-3.52203378 42.726808,-0.628699322 36.6734583,10.021739 C35.3163178,8.9255362 33.8373094,8.04774303 32.3382758,7.46017357 C24.0112009,4.1958988 12.7180992,8.88814541 11.061152,17.2227292 C10.6017154,19.5314617 10.9318461,21.8912356 11.8289777,24.1044139 C4.53749482,26.5692381 -0.285731838,33.409971 0.0129305958,40.1432796 C0.44604834,49.8892171 11.4233232,55.2865471 19.2446172,54.9986974 C20.561707,54.9506235 61.1735044,55.0022584 67.1187177,55.4230531 C76.1054818,56.0592899 85.8223096,49.5218378 86.3504042,42.2650582 C86.8287219,35.6830933 79.7643826,28.2803116 71.7188057,26.0374581 L71.7188057,26.0374581 Z" id="Stroke-1"></path>
                    </g>
                    <g id="cloud-14-copy" opacity="0.15" transform="translate(212.717542, 0.602137)" stroke="#000000">
                        <path d="M32.3920918,11.7599244 C33.5554717,8.39391084 32.8073631,4.51456482 30.4992093,2.21917786 C26.6677048,-1.59074096 19.2977375,-0.283954619 16.5637174,4.5263594 C15.9507593,4.03125491 15.2827591,3.63479604 14.6057145,3.36941789 C10.8447571,1.89509485 5.74418149,4.01436721 4.99581454,7.77871604 C4.7883081,8.82146453 4.93741298,9.88726606 5.34260613,10.8868571 C2.04937809,12.000105 -0.129051953,15.08975 0.00584015645,18.1308764 C0.201459556,22.5326689 5.15939061,24.970395 8.69191002,24.8403865 C9.28677905,24.8186738 27.6292634,24.8419949 30.3144432,25.0320485 C34.373352,25.3194075 38.761997,22.3667405 39.0005131,19.0891864 C39.2165472,16.116415 36.0259095,12.7729184 32.3920918,11.7599244 L32.3920918,11.7599244 Z" id="Stroke-1"></path>
                    </g>
                    <g id="Page-1" opacity="0.15" transform="translate(703.717542, 344.980469)" fill="#000000">
                        <g id="Group-3" transform="translate(0.000000, 0.030507)">
                            <path d="M59.7691338,9.38079684 C47.9017966,-1.43529819 29.2671581,-2.78181736 15.8920889,6.08600914 C9.63921321,10.2319223 5.0205769,16.4646464 2.38659397,23.4527758 C1.06666373,26.9546772 0.252762723,30.6564154 0.0487277046,34.395658 C-0.0542693965,36.2865504 0.00422623975,38.1855595 0.240727736,40.0649767 C0.411176743,41.4187728 0.357719008,42.9139101 1.34934599,43.9659919 C2.67879227,45.3766044 5.19914253,45.7922313 6.9610087,46.3461206 C9.50990707,47.1477067 12.0921116,47.8415377 14.6995056,48.4256544 C19.831728,49.5754156 25.0504344,50.2860396 30.299648,50.5969901 C30.1832165,50.4802787 30.0665051,50.3638472 29.9497937,50.2471358 L29.9497937,58.3732712 C30.0665051,58.2565598 30.1832165,58.1398484 30.299648,58.0234169 C28.7348198,58.0234169 26.7532451,57.7133061 25.3809767,58.6352421 C24.3756354,59.3108807 23.8357403,60.5885485 23.8701659,61.7842105 C23.8754837,61.9734117 24.026061,62.1340648 24.2200202,62.1340648 L32.3649078,62.1340648 C32.5538291,62.1340648 32.7147621,61.9739715 32.7147621,61.7842105 L32.7147621,58.3732712 C32.7147621,58.18407 32.5543889,58.0234169 32.3649078,58.0234169 L32.3083714,58.0234169 C32.4250828,58.1398484 32.5417942,58.2565598 32.6582257,58.3732712 L32.6582257,50.3394973 C32.5417942,50.4562087 32.4250828,50.5726402 32.3083714,50.6893516 C34.582984,50.7640805 36.8564771,50.767719 39.1310897,50.6924303 C39.0143783,50.5757189 38.8979468,50.4592874 38.7812354,50.342576 L38.7812354,58.3732712 C38.8979468,58.2565598 39.0143783,58.1398484 39.1310897,58.0234169 L39.0938652,58.0234169 C38.904664,58.0234169 38.7440109,58.1835102 38.7440109,58.3732712 L38.7440109,61.7842105 C38.7440109,61.9734117 38.9043841,62.1340648 39.0938652,62.1340648 L47.2387528,62.1340648 C47.4318724,62.1340648 47.5830094,61.9736916 47.5886071,61.7842105 C47.6241523,60.546566 47.0428344,59.2173996 45.9686418,58.5607931 C44.5902159,57.7180641 42.6310319,58.0234169 41.089434,58.0234169 C41.2061454,58.1398484 41.3225769,58.2565598 41.4392883,58.3732712 L41.4392883,50.2518938 C41.3225769,50.3683253 41.2061454,50.4850367 41.089434,50.6017481 C46.4276506,50.2854798 51.7331209,49.5541444 56.9498681,48.373876 C59.5569822,47.7838817 62.1394666,47.0836134 64.688085,46.2775491 C66.2862194,45.7720797 68.4779865,45.3855607 69.7990363,44.2548316 C71.1447158,43.1031113 71.0834213,41.2833093 71.2675846,39.6496297 C71.511643,37.4844515 71.5166809,35.2946436 71.3165642,33.1258269 C70.935363,28.9978262 69.8295436,24.9557498 68.1328903,21.1764839 C66.1429191,16.74397 63.3169361,12.7046924 59.7691338,9.38079684 C59.4408306,9.07320496 58.9448771,9.56691932 59.2742999,9.87563074 C65.1090297,15.3417541 68.9890537,22.8062451 70.3005874,30.6824446 C70.6325291,32.6752146 70.7881443,34.6984919 70.755398,36.7186905 C70.7405642,37.6280317 70.6854271,38.5370931 70.589707,39.4416763 C70.4897886,40.3882421 70.4679577,42.0927321 70.0036311,42.9424582 C69.1197592,44.5607442 66.3382777,45.0163944 64.7574961,45.5213041 C62.4646911,46.2534792 60.1444575,46.9000099 57.8029527,47.4578175 C52.3135991,48.7654329 46.7212483,49.5681386 41.089434,49.9020395 C40.9005127,49.9132349 40.7395797,50.0531766 40.7395797,50.2518938 L40.7395797,58.3732712 C40.7395797,58.5621925 40.8999529,58.7231255 41.089434,58.7231255 C42.2990902,58.7231255 43.7178193,58.5260876 44.8958486,58.8552305 C46.1872308,59.2160002 46.926123,60.4855514 46.8888985,61.7842105 C47.00533,61.667779 47.1220414,61.5510676 47.2387528,61.4343562 L39.0938652,61.4343562 C39.2102967,61.5510676 39.3270081,61.667779 39.4437195,61.7842105 L39.4437195,58.3732712 C39.3270081,58.4897027 39.2102967,58.6064141 39.0938652,58.7231255 L39.1310897,58.7231255 C39.3202909,58.7231255 39.480944,58.5627523 39.480944,58.3732712 L39.480944,50.342576 C39.480944,50.1581329 39.3205708,49.9865643 39.1310897,49.9927217 C36.8564771,50.0680104 34.582984,50.0643719 32.3083714,49.989643 C32.1194501,49.9834856 31.9585171,50.1550541 31.9585171,50.3394973 L31.9585171,58.3732712 C31.9585171,58.5621925 32.1188903,58.7231255 32.3083714,58.7231255 L32.3649078,58.7231255 C32.2481964,58.6064141 32.1314851,58.4897027 32.0150535,58.3732712 L32.0150535,61.7842105 C32.1314851,61.667779 32.2481964,61.5510676 32.3649078,61.4343562 L24.2200202,61.4343562 C24.3367316,61.5510676 24.4531631,61.667779 24.5698745,61.7842105 C24.5348891,60.5683969 25.1685452,59.3920469 26.3239039,58.9433937 C27.4985747,58.4869039 29.0620035,58.7231255 30.299648,58.7231255 C30.4888492,58.7231255 30.6495023,58.5627523 30.6495023,58.3732712 L30.6495023,50.2471358 C30.6495023,50.049818 30.4888492,49.9084768 30.299648,49.8972815 C21.6352968,49.3836954 13.0672254,47.7326631 4.85376638,44.9184352 C4.03314817,44.6374323 3.07118883,44.4118462 2.35048901,43.9091756 C1.35102529,43.2122658 1.24886784,42.309082 1.11228473,41.2102597 C0.889777403,39.4226442 0.683223434,37.6814894 0.700296323,35.8751218 C0.73360245,32.3441125 1.34710692,28.830456 2.42269893,25.4704554 C4.62146313,18.6012765 8.7917262,12.2529606 14.5676805,7.87754296 C20.626317,3.28829441 28.1537818,0.919081197 35.7293865,0.919081197 C44.3842217,0.919081197 52.858812,4.02830619 59.2742999,9.87563074 C59.6065215,10.1784646 60.1027549,9.68503013 59.7691338,9.38079684" id="Fill-1"></path>
                        </g>
                        <path d="M34.9539415,30.3931571 C34.8559823,34.1475134 31.8973346,37.2637354 28.0738471,37.2732515 C24.3323654,37.2827675 21.1842366,34.1351985 21.1934728,30.3931571 C21.2029888,26.6432789 24.3186511,23.5130627 28.0738471,23.5130627 C31.8970547,23.5130627 34.8562622,26.6457979 34.9539415,30.3931571 C34.9656966,30.8426499 35.6654052,30.8443292 35.6536501,30.3931571 C35.5716442,27.2458679 33.7120987,24.4168063 30.7274219,23.2922347 C27.7337887,22.1645843 24.2693917,23.1119897 22.234919,25.5654478 C17.8457871,30.8577636 22.5511873,38.9575899 29.3025353,37.8719221 C32.9897196,37.2788491 35.5579299,34.0562714 35.6536501,30.3931571 C35.6654052,29.9428246 34.9656966,29.9431045 34.9539415,30.3931571" id="Fill-4"></path>
                        <path d="M31.9339153,30.3931571 C31.9339153,31.973099 30.6531688,33.2535657 29.0735067,33.2535657 C27.4935648,33.2535657 26.2128182,31.973099 26.2128182,30.3931571 C26.2128182,28.8132151 27.4935648,27.5327485 29.0735067,27.5327485 C30.6531688,27.5327485 31.9339153,28.8132151 31.9339153,30.3931571" id="Fill-6"></path>
                        <path d="M50.2650203,30.3931571 C50.1670611,34.1475134 47.2084134,37.2637354 43.3849259,37.2732515 C39.6434443,37.2827675 36.4953155,34.1351985 36.5045516,30.3931571 C36.5140677,26.6432789 39.62973,23.5130627 43.3849259,23.5130627 C47.2081335,23.5130627 50.167341,26.6457979 50.2650203,30.3931571 C50.2767754,30.8426499 50.976484,30.8443292 50.9647289,30.3931571 C50.8824432,27.2458679 49.0231776,24.4168063 46.0385007,23.2922347 C43.0448676,22.1645843 39.5804705,23.1119897 37.5459979,25.5654478 C33.156866,30.8577636 37.8622662,38.9575899 44.6136142,37.8719221 C48.3007984,37.2788491 50.8690088,34.0562714 50.9647289,30.3931571 C50.976484,29.9428246 50.2767754,29.9431045 50.2650203,30.3931571" id="Fill-8"></path>
                        <path d="M45.2002218,30.3931571 C45.2002218,31.973099 43.9194753,33.2535657 42.3398132,33.2535657 C40.7598713,33.2535657 39.4791247,31.973099 39.4791247,30.3931571 C39.4791247,28.8132151 40.7598713,27.5327485 42.3398132,27.5327485 C43.9194753,27.5327485 45.2002218,28.8132151 45.2002218,30.3931571" id="Fill-10"></path>
                    </g>
                </g>
            </g>
        </g>
    </g>
</svg>