<?xml version="1.0" encoding="UTF-8" standalone="no"?>
<svg width="100%" height="100%"  viewBox="0 0 899 322" version="1.1" xmlns="http://www.w3.org/2000/svg" xmlns:xlink="http://www.w3.org/1999/xlink">
    <!-- Generator: sketchtool 39.1 (31720) - http://www.bohemiancoding.com/sketch -->
    <title>E4A9DF4C-56B2-4723-9CAF-C1801732B1E7</title>
    <desc>Created with sketchtool.</desc>
    <defs>
        <polygon id="path-1" points="71.2705225 93.2420551 71.2705225 0.184298966 0 0.184298966 0 93.2420551 71.2705225 93.2420551"></polygon>
        <polygon id="path-3" points="71.2705225 93.2420551 71.2705225 0.184298966 0 0.184298966 0 93.2420551 71.2705225 93.2420551"></polygon>
    </defs>
    <g id="Welcome" stroke="none" stroke-width="1" fill="none" fill-rule="evenodd">
        <g id="Home_Des_3" transform="translate(-541.000000, -962.000000)">
            <g id="SectionA" transform="translate(160.000000, 782.000000)">
                <g id="LineArt_1" transform="translate(381.000000, 180.000000)">
                    <g id="Page-1" opacity="0.15" transform="translate(162.842061, 227.960938)">
                        <g id="Group-3" transform="translate(0.000000, 0.179928)">
                            <mask id="mask-2" fill="white">
                                <use xlink:href="#path-1"></use>
                            </mask>
                            <g id="Clip-2"></g>
                            <path d="M66.8962995,42.9288018 C66.9199742,42.2833912 66.9392783,41.6379805 66.9538474,40.9922057 C66.7618996,41.138625 66.5695877,41.2846802 66.3776399,41.4310995 C68.686112,42.2087246 71.2316959,40.8461506 71.270304,38.2492106 C71.3092763,35.6089276 68.7596858,34.1407278 66.3852887,34.931465 C66.5776007,35.0778844 66.7695484,35.2239395 66.9614961,35.3703588 C66.95494,34.676506 66.9472913,33.9826532 66.9381856,33.2888003 C66.7462379,33.4352197 66.5539259,33.581639 66.3619782,33.7280583 C68.7600501,34.3964153 71.2422585,32.8590122 71.0998456,30.2220073 C70.962532,27.6738737 68.4504569,26.3863306 66.1754938,27.1909085 C66.3678058,27.3373278 66.5597535,27.4837471 66.7520655,27.6301665 C66.7447809,27.1599492 66.7382249,26.6897318 66.7323972,26.2191503 C66.5404495,26.3655696 66.3481375,26.511989 66.1561898,26.6584083 C68.5637316,27.3799424 71.094018,25.832341 70.9505125,23.1742109 C70.8117419,20.6060448 68.2548669,19.3130383 65.9740762,20.1653299 C66.1660239,20.311385 66.3583359,20.4578044 66.5502836,20.6042237 C66.512404,20.15586 66.4639618,19.708589 66.4056854,19.2624107 C66.2538027,19.4139292 66.1019199,19.5658119 65.9504014,19.7176947 C68.3481091,19.8378897 70.3972514,17.91477 69.8174016,15.4303763 C69.2098707,12.8261517 66.3033376,12.0375998 64.2028393,13.4526225 C64.4104488,13.5072566 64.6180583,13.5615265 64.8256678,13.6161606 C64.5441202,13.0592572 64.2337986,12.5333131 63.8888754,12.0128324 C63.8342414,12.2204419 63.7799715,12.4280514 63.7253374,12.6356609 C66.1576467,11.5458931 66.9013986,8.40188389 64.7491801,6.59932345 C62.7080508,4.88964095 60.024789,6.08066391 59.1200486,8.33923681 C59.3429557,8.24854424 59.5658627,8.15785166 59.7887698,8.06715909 C59.4336483,7.8344179 59.0705137,7.61551735 58.6993662,7.40972898 C58.7299613,7.6482978 58.7609206,7.88650239 58.7915157,8.12470699 C60.345309,6.28681651 60.1519043,3.430911 57.7567462,2.3852147 C55.2199037,1.27796399 52.8516985,3.24333399 52.799614,5.83444632 C52.9915617,5.68802699 53.1835094,5.54160765 53.3758214,5.39518831 C52.5519395,5.2156243 51.7389843,5.08559519 50.9008975,4.99526684 L50.9008975,5.90583486 L51.983745,5.95245594 C52.1425481,5.95937625 52.2977089,5.86067068 52.3767462,5.7269993 C53.7484258,3.406872 52.4754518,0.295278995 49.6057056,0.196209195 C46.7552635,0.0975036227 45.3092815,2.98436845 46.3797453,5.41631349 C46.5105028,5.18830726 46.6416246,4.95993681 46.7727464,4.73156635 C46.2333259,4.70934849 45.6942697,4.68931599 45.1548492,4.67110463 C45.3009043,4.86305237 45.4473236,5.05536433 45.5937429,5.24731207 C46.5629515,2.83722066 45.0474021,0.124092209 42.3109632,0.185282379 C39.7380622,0.243194505 38.3660183,2.85543202 39.1931783,5.13112359 C39.3395976,4.93881163 39.486017,4.74686389 39.6324363,4.55455193 C38.9076241,4.54690316 38.182812,4.54143975 37.4579999,4.53706902 C37.6044192,4.72938098 37.7504743,4.92132872 37.8968937,5.11364069 C38.7258748,2.71556877 37.204862,0.10442394 34.5270636,0.196209195 C31.946878,0.284352179 30.6170845,2.83685643 31.4307681,5.13075936 C31.5771874,4.93881163 31.7236068,4.74649966 31.8696619,4.55455193 C31.3775909,4.56037956 30.8851557,4.56729988 30.3930848,4.57458442 C30.5395041,4.76689639 30.6855592,4.95884412 30.8319786,5.15115609 C31.7243352,2.7494419 30.1596151,0.104059712 27.477446,0.196209195 C24.7224314,0.290179814 23.5223028,3.07506102 24.5126366,5.40902895 L24.9060019,4.72391758 C24.245658,4.75269153 23.5860426,4.78437929 22.9260629,4.82043779 L23.3653209,5.39664522 C23.8759674,2.99893754 22.2675401,0.564807126 19.6341774,0.845626301 C16.8951888,1.13773652 15.8305527,3.99692008 17.028496,6.26641979 C17.1191885,6.04351274 17.2098811,5.82060569 17.3005737,5.59769864 C16.5928802,5.79948051 15.9008485,6.02785097 15.2113664,6.28572383 C15.3978508,6.39171395 15.5846993,6.49770406 15.7715479,6.60369418 C15.1603746,4.35677655 12.849353,2.97635545 10.6607117,4.12549228 C8.33111454,5.34893146 8.31108205,8.2252337 10.042254,9.95385601 L10.042254,9.30990231 C9.81315504,9.50512809 9.59061222,9.70763842 9.37426126,9.91670483 L10.0178507,9.91670483 C8.35988849,8.21394265 5.6689779,8.16914271 4.3140527,10.288945 C2.97296814,12.3876222 4.23792922,14.7722177 6.39269736,15.5702395 C6.28670724,15.3833909 6.18071713,15.1965424 6.07472701,15.0100581 C5.9406914,15.3761064 5.82013219,15.7468897 5.71341362,16.1220437 C5.93632067,16.0313511 6.15922772,15.9406586 6.38213477,15.849966 C4.12975374,14.6050374 1.27166286,15.6354362 0.916905565,18.3562134 C0.574531993,20.9848411 3.03342985,22.6843253 5.44388549,22.1634804 C5.25157353,22.017061 5.05962579,21.8706417 4.86731383,21.7242224 C4.83963256,22.2873176 4.81814315,22.8496844 4.80175293,23.4127797 C5.03012339,23.2820221 5.25849384,23.1509003 5.4868643,23.0197785 C3.16236628,21.7030972 0.101036627,22.9695152 0.00233105411,25.82105 C-0.0971029728,28.7028156 2.87717638,30.1695586 5.31057834,29.0007535 C5.08220788,28.8696317 4.85383742,28.7385099 4.62546696,28.6073881 C4.64950596,28.8780089 4.67318073,29.1489939 4.6968555,29.4196147 L5.60742351,29.4196147 C5.58047069,29.1493582 5.56298779,28.8780089 5.53603497,28.6073881 C5.47957976,28.0355514 4.6312946,28.0096912 4.62546696,28.6073881 C4.61818242,29.4061383 4.49798744,30.2963096 4.63967182,31.0885038 C4.71652376,31.5179277 5.45007735,31.5284903 5.51782361,31.0885038 C5.55861706,30.8229822 5.57063656,30.5377923 5.55424634,30.2693568 C5.52328702,29.7721867 4.80066025,29.6330519 4.65970432,30.1484334 C4.64185719,30.21363 4.6393076,30.2872039 4.63347996,30.3542217 C4.86185042,30.2230999 5.09022088,30.0919782 5.31859133,29.9612206 C2.98862991,28.8390366 0.0988512634,30.0846936 0.00233105411,32.8706675 C-0.0960102912,35.7171031 2.78138463,37.161264 5.21332967,36.101727 C4.98495921,35.9706052 4.75658876,35.8394834 4.5282183,35.7083617 C4.52166221,36.4903575 4.51692726,37.2727175 4.51474189,38.0547133 C4.74311235,37.9235915 4.97148281,37.7924697 5.19985326,37.6613479 C2.76936513,36.6171085 -0.0949176095,38.0572629 0.00233105411,40.899692 C0.0973943545,43.6765602 2.97661041,44.9240384 5.3047507,43.8178804 C5.07674447,43.6867586 4.84837401,43.556001 4.62000356,43.4248792 C4.6567905,44.139493 4.70086199,44.8526499 4.75294648,45.5661709 C4.94489422,45.4201158 5.13720619,45.2736965 5.32915392,45.1272772 C2.84366748,44.4833235 0.350532262,46.1868141 0.661946522,48.8955718 C0.973725009,51.6043295 3.9578385,52.6536681 6.15813504,51.3715884 C5.93522799,51.2808958 5.71232094,51.1902032 5.48941389,51.0995106 C5.57027233,51.5129085 5.65768686,51.9252137 5.75202171,52.3356978 C5.89844104,52.14375 6.04486038,51.9514381 6.19127972,51.7594903 C3.80886957,51.872765 1.90578243,53.9179008 2.68085792,56.3560377 C3.45520495,58.7923534 6.18618054,59.3805804 8.19088707,58.0751901 C7.98327756,58.020556 7.77566806,57.9662861 7.56805855,57.911652 C7.80444201,58.4361392 8.05029537,58.9518849 8.30707555,59.4669022 C8.39776812,59.2439952 8.4884607,59.0210881 8.57915327,58.7978168 C6.27723734,59.4129966 4.90555768,61.7983206 6.15594968,64.0015309 C7.46498225,66.3070891 10.4399901,66.2517266 12.0608011,64.3468183 L11.4168474,64.3468183 C11.7246194,64.7372699 12.0374906,65.1211653 12.3572821,65.5014185 C12.3878771,65.2632139 12.4188365,65.0250094 12.4494315,64.7864405 C10.5980647,66.1151414 9.96139551,68.6501627 11.7344535,70.3693151 C13.5144319,72.0957521 16.0075671,71.4343155 17.2969314,69.5257649 L16.5819534,69.6179144 C16.9214132,69.888171 17.251403,70.1453154 17.5955977,70.4093801 C17.5646384,70.1711755 17.5340433,69.9326067 17.5034482,69.6944021 C15.9733298,71.4004423 15.9587607,74.0039384 18.062537,75.2790979 C20.1714125,76.5571711 22.3819074,75.3927367 23.2156235,73.2499881 C22.9923522,73.3406807 22.7694452,73.4313732 22.5465381,73.5220658 C24.0038112,74.229395 25.4967785,74.8398398 27.0356384,75.3468441 C27.4224477,75.4739594 27.8107139,75.5952471 28.2011655,75.7099786 C28.3373864,75.7500436 29.2388488,75.8553053 29.163818,75.8105053 C29.4253331,75.9660304 29.0876945,75.5209447 29.2730861,75.9088467 C29.4406306,76.2595975 29.2730861,77.118081 29.2730861,77.5096253 L29.2730861,80.1058368 L29.2730861,88.7802719 C29.4249689,88.6287534 29.5764874,88.4768706 29.7283701,88.3249879 C27.9032276,88.3249879 25.5586971,87.9487412 23.953912,89.0133773 C22.7432208,89.816134 22.113472,91.3604574 22.1524443,92.7867711 C22.1590004,93.0329887 22.3556831,93.2420551 22.6077283,93.2420551 L32.2779606,93.2420551 C32.5241782,93.2420551 32.7332446,93.0337172 32.7332446,92.7867711 L32.7332446,76.0858611 C32.5412968,76.2322804 32.3489849,76.3786998 32.1570371,76.5251191 C34.5707708,76.8645789 36.905103,76.8645789 39.3192009,76.5251191 L38.7429935,76.0858611 L38.7429935,92.7867711 C38.7429935,93.0329887 38.9516956,93.2420551 39.1982775,93.2420551 L48.8856284,93.2420551 C49.136581,93.2420551 49.3339921,93.0333529 49.3409124,92.7867711 C49.3795205,91.3615501 48.7501359,89.8146771 47.5394447,89.0133773 C45.9295604,87.9476485 43.5784738,88.3249879 41.7478679,88.3249879 C41.8997506,88.4768706 42.0512692,88.6287534 42.2031519,88.7802719 L42.2031519,79.9353784 L42.2031519,77.5096253 C42.2031519,77.1490403 42.0370643,76.2486707 42.2031519,75.9088467 C42.4322508,75.439722 42.0388854,76.1128139 42.4602963,75.9467263 C43.2299084,75.6440535 44.0807431,75.4885285 44.8667454,75.2186361 C46.5400052,74.6442498 48.1557171,73.934371 49.7240794,73.1177736 C49.5164699,73.0635038 49.3088604,73.0088697 49.1012509,72.9545998 C51.4425034,77.8862362 58.3930511,73.3723684 54.7478653,69.1130955 L54.7478653,69.7570492 C55.180203,69.4044773 55.6037992,69.0453492 56.0237532,68.6782082 C55.7855486,68.6472489 55.5469798,68.6166538 55.3087752,68.5860587 C56.3999999,70.9291323 59.4434824,71.6608648 61.2362087,69.6197355 C63.0165513,67.5924469 61.9136713,64.8738551 59.6110269,63.9214009 C59.6780447,64.1749031 59.7450625,64.4287694 59.8120803,64.6822716 C60.4064991,63.9188513 60.9739651,63.1434116 61.515571,62.3413833 L60.800593,62.4335328 C62.4942495,64.4331401 65.6775952,64.359202 66.8518637,61.8281872 C67.9733193,59.4111755 66.153276,57.0761148 63.6983846,56.8240696 C63.8448039,57.0160174 63.9908591,57.2083293 64.1372784,57.4002771 C64.3372391,56.909663 64.5273657,56.4183205 64.7087509,55.9204219 C64.4858438,56.0111145 64.2629368,56.1018071 64.0396655,56.1924996 C66.1729442,57.5609013 68.9946124,56.7676144 69.6130702,54.1608403 C70.1980191,51.6953863 68.065833,49.7201822 65.6845156,49.8997462 C65.8309349,50.091694 65.97699,50.2836417 66.1234093,50.4759537 C66.2199295,49.9117657 66.3077083,49.347942 66.3892952,48.7812045 C66.2028109,48.8871946 66.0159623,48.9931847 65.829478,49.0991748 C68.0479859,49.9084877 70.5819146,48.7061737 70.7869745,46.1966482 C70.9989547,43.6037148 68.7028664,42.0677686 66.320092,42.489908 C65.7438846,42.5918916 65.9879168,43.4693149 66.5619389,43.3676955 C71.1278911,42.5591111 70.566617,49.8607739 66.0713248,48.221023 C65.8604373,48.1441711 65.5442881,48.3088018 65.5111434,48.5389934 C65.4299207,49.1057309 65.3417778,49.6695546 65.2452575,50.2337426 C65.1997291,50.5014496 65.3632672,50.8343532 65.6845156,50.8103142 C67.3621461,50.6839274 69.077292,51.8713081 68.7447525,53.7357871 C68.3659562,55.8614171 66.2326775,56.5181188 64.4993202,55.4061331 C64.2341628,55.236039 63.9263908,55.415603 63.8305991,55.6782108 C63.6492139,56.1761094 63.4594516,56.6674519 63.2591266,57.1584302 C63.136382,57.4596461 63.4394191,57.708049 63.6983846,57.7346376 C65.6397156,57.9338699 66.8864653,59.8515261 65.8720926,61.6092866 C64.8504353,63.3794308 62.7226199,63.2985724 61.4445467,61.7895791 C61.2427648,61.5513745 60.8803587,61.6580931 60.7295687,61.8817286 C60.2298489,62.621474 59.7181097,63.3320813 59.1681266,64.0383179 C58.9437627,64.3264216 59.0319057,64.6600537 59.3691801,64.7995527 C61.2584266,65.5808201 61.9519152,68.1708397 60.0870719,69.416861 C58.5667875,70.4326907 56.8290595,69.7031436 56.0951417,68.126404 C55.9629272,67.8430352 55.5808529,67.858697 55.3801637,68.0342545 C54.9602097,68.4017598 54.5366135,68.7605236 54.1042758,69.1130955 C53.9035866,69.2769977 53.9574922,69.5858624 54.1042758,69.7570492 C56.8155831,72.9250974 51.6694169,76.2483064 49.8872532,72.4949451 C49.7783493,72.2651177 49.4672993,72.2257812 49.2644247,72.3314071 C46.8295659,73.599282 44.2865315,74.5477296 41.6269445,75.2179077 C41.4335398,75.2663499 41.2925839,75.4601188 41.2925839,75.6568015 L41.2925839,88.7802719 C41.2925839,89.0264895 41.5012861,89.2355559 41.7478679,89.2355559 C44.5054321,89.2355559 48.5359703,88.9015595 48.4303444,92.7867711 C48.5818629,92.6352526 48.7337457,92.4833699 48.8856284,92.3314871 L39.1982775,92.3314871 C39.3501602,92.4833699 39.5016787,92.6352526 39.6535615,92.7867711 L39.6535615,76.0858611 C39.6535615,75.7598778 39.3640008,75.6065381 39.077354,75.6469673 C36.8293437,75.9631165 34.6468943,75.9631165 32.398884,75.6469673 C32.1122372,75.6065381 31.8226766,75.7598778 31.8226766,76.0858611 L31.8226766,92.7867711 C31.9745593,92.6352526 32.1260778,92.4833699 32.2779606,92.3314871 L22.6077283,92.3314871 C22.7592468,92.4833699 22.9111295,92.6352526 23.0630123,92.7867711 C22.9573864,88.9084799 26.9737198,89.2355559 29.7283701,89.2355559 C29.9745877,89.2355559 30.1836541,89.0272179 30.1836541,88.7802719 L30.1836541,75.6568015 C30.1836541,75.4593903 30.042334,75.268171 29.8492936,75.2179077 C27.4891013,74.6023637 25.2028471,73.8021565 23.0061928,72.7360635 C22.7217314,72.5980214 22.4492895,72.720766 22.3374717,73.0081412 C20.8128166,76.9279544 15.2558022,73.5621308 18.1470377,70.3383558 C18.3615675,70.0990585 18.2941855,69.8065841 18.0548882,69.6230136 C17.7784398,69.4066626 17.5019913,69.1903117 17.2259071,68.9739607 C16.9873383,68.7841983 16.6883078,68.8031382 16.5105649,69.0661102 C14.0425613,72.7193091 9.36843362,68.1136561 12.9090863,65.5728071 C13.1611315,65.3917862 13.2022892,65.0971263 13.0012358,64.8578291 C12.68108,64.4772116 12.3685731,64.0933162 12.0608011,63.7028646 C11.9165671,63.5196583 11.5625383,63.5316778 11.4168474,63.7028646 C10.1802961,65.1564954 7.97963529,65.31457 6.99221534,63.5149234 C6.07290587,61.839114 7.03482992,60.1534705 8.82136436,59.6759686 C9.1203949,59.5962029 9.22237851,59.2654846 9.09344208,59.0072475 C8.8366619,58.4925944 8.59044431,57.9768487 8.35442508,57.4519973 C8.25644797,57.2349179 7.92099471,57.1653505 7.73159656,57.2888235 C6.23425853,58.2638598 4.20660568,57.9899609 3.55864548,56.1138266 C2.93800232,54.3163653 4.44335336,52.7531021 6.19127972,52.6700583 C6.49650211,52.6554893 6.69609862,52.3914245 6.6301735,52.0934867 C6.53583865,51.6830026 6.4480599,51.2710617 6.36720146,50.8572995 C6.30783242,50.5655536 5.93850604,50.4457228 5.69848031,50.5852218 C4.09770174,51.5180077 1.7648265,50.870776 1.5921828,48.7699134 C1.42390983,46.7280557 3.18713373,45.513358 5.08730706,46.005429 C5.35537828,46.0749964 5.68536813,45.8688438 5.6635145,45.5661709 C5.61143001,44.8526499 5.56735851,44.139493 5.53057157,43.4248792 C5.51163175,43.0624731 5.16233786,42.881088 4.84546019,43.0318781 C3.22938409,43.7993048 1.11395248,43.0548244 0.951142922,41.0796202 C0.776313864,38.955083 2.78575535,37.6078065 4.74019853,38.4477145 C5.04651361,38.5795647 5.42458145,38.4316885 5.4253099,38.0547133 C5.42749527,37.2727175 5.43223022,36.4903575 5.43878631,35.7083617 C5.44206436,35.3317507 5.05671197,35.183146 4.75367494,35.3153605 C2.93181046,36.1093758 0.608405123,34.8779236 0.951142922,32.6907393 C1.24871655,30.7920228 3.14634028,29.9222483 4.85930083,30.7472229 C5.1841915,30.9038406 5.51381712,30.7111644 5.54404797,30.3542217 C5.54222684,30.3662412 5.54004147,30.3782607 5.53785611,30.3906445 C5.23955403,30.3502152 4.94161618,30.309786 4.64367832,30.2693568 C4.65351246,30.4325306 4.64768482,30.7945724 4.63967182,30.8462927 L5.51782361,30.8462927 C5.4118335,30.253695 5.52984311,29.2731954 5.53603497,28.6073881 L4.62546696,28.6073881 C4.65241978,28.8780089 4.66990268,29.1493582 4.6968555,29.4196147 C4.75403917,29.9954579 5.65877954,30.0063848 5.60742351,29.4196147 C5.58374874,29.1489939 5.56007397,28.8780089 5.53603497,28.6073881 C5.50507566,28.2504454 5.17690695,28.0577692 4.85128783,28.2143869 C3.02541685,29.0910818 0.599299443,27.8854897 0.951142922,25.6411217 C1.26583523,23.6338656 3.31752707,22.8376649 5.02720957,23.8061451 C5.33352465,23.9795172 5.70248681,23.7584313 5.71232094,23.4127797 C5.72871117,22.8496844 5.75020057,22.2873176 5.77788184,21.7242224 C5.79317938,21.4135365 5.47593749,21.2259595 5.2016744,21.2853286 C3.43735782,21.6666745 1.57251453,20.4552548 1.84714185,18.4815076 C2.13123907,16.4392856 4.22153899,15.6958979 5.92248004,16.6363325 C6.1843594,16.7809307 6.50451511,16.6494447 6.59120119,16.3642548 C6.69791976,15.9891008 6.81847896,15.6183175 6.9528788,15.2519049 C7.03810797,15.0053231 6.85344477,14.7729462 6.63490845,14.6920877 C5.04578516,14.1038608 4.07912616,12.2852743 5.10041924,10.7485998 C6.15740659,9.15838379 8.15337167,9.30698849 9.37426126,10.5606585 C9.54981877,10.740951 9.84010785,10.7274746 10.0178507,10.5606585 C10.2342017,10.3512279 10.4571087,10.1490818 10.6862076,9.95385601 C10.8708708,9.79104645 10.8515668,9.47526146 10.6862076,9.30990231 C9.4135978,8.03911359 9.32545481,5.80494392 11.1203665,4.91185881 C12.7841563,4.08397038 14.4457609,5.19996253 14.8933961,6.84590527 C14.9538578,7.06771964 15.2226575,7.25019747 15.4532133,7.16387562 C16.1426954,6.90600276 16.8347271,6.6776323 17.5427848,6.47585043 C17.8345308,6.3924424 17.9521762,6.06718751 17.8148625,5.80712928 C17.0150196,4.29157988 17.5435132,2.20310109 19.3919663,1.8002658 C21.430546,1.35590861 22.8961962,3.23459254 22.4871691,5.15443413 C22.4288927,5.42760454 22.6146486,5.74776025 22.9260629,5.7310058 C23.5860426,5.6949473 24.245658,5.66325954 24.9060019,5.63448559 C25.2804275,5.61809536 25.4337672,5.26661611 25.2990031,4.94937422 C24.4357846,2.91480105 26.0449404,0.559707945 28.3104336,1.25028273 C29.9523699,1.7507309 30.5362261,3.34167533 29.9538268,4.908945 C29.8503863,5.18794304 30.1173648,5.48952316 30.3930848,5.48515243 C30.8851557,5.47786789 31.3775909,5.47094757 31.8696619,5.46511994 C32.147203,5.46184189 32.410175,5.1741024 32.3089199,4.8889125 C31.7345336,3.26955835 32.4054401,1.30455258 34.3471353,1.14465684 C36.4982612,0.967642415 37.6943833,2.91698641 37.0187419,4.87142959 C36.9207647,5.15589104 37.1779092,5.44618012 37.4579999,5.44763703 C38.182812,5.45200776 38.9076241,5.45747117 39.6324363,5.46511994 C39.9096132,5.46803376 40.1729495,5.16900322 40.0713301,4.8889125 C39.4565145,3.19780559 40.3040713,1.1843576 42.3109632,1.09585039 C44.5254646,0.998601727 45.4342114,3.21893077 44.7155912,5.00510098 C44.6001311,5.2932047 44.8889633,5.57256696 45.1548492,5.58167264 C45.6942697,5.599884 46.2333259,5.6199165 46.7727464,5.64213436 C47.1508142,5.6574319 47.2954124,5.25131857 47.1657476,4.95702299 C45.8829393,2.04101999 49.803481,-0.466684317 51.6045845,2.29452212 C51.8952378,2.73997199 52.5162452,4.63577459 51.8708346,5.03715297 C51.7043828,5.1405935 51.1106924,5.00437252 50.9008975,4.99526684 C50.3050218,4.96940671 50.330882,5.84428046 50.9008975,5.90583486 C51.6559405,5.98705752 52.3920437,6.11162323 53.1336103,6.27334011 C53.4249921,6.33707987 53.7039901,6.14185408 53.710182,5.83444632 C53.7447836,4.11128742 55.2319232,2.52107144 57.0559731,3.08963011 C59.0249853,3.70335295 59.409245,5.98851443 58.147562,7.48111752 C57.9618061,7.70111075 57.9690907,8.03947782 58.2397115,8.19609552 C58.6112232,8.40151966 58.9743578,8.62078444 59.3291151,8.85352562 C59.601557,9.02471241 59.8936672,8.84150613 59.9978362,8.5814479 C60.7270191,6.76140456 63.0664504,5.99652743 64.4632617,7.57836618 C65.7828569,9.07315463 64.922188,11.1073636 63.2660469,11.8496586 C63.049696,11.946543 62.977579,12.2841817 63.1025089,12.4724871 C63.4474321,12.9926036 63.7577536,13.5189119 64.0393013,14.0754511 C64.1456556,14.2852459 64.4672682,14.3704751 64.662494,14.2389891 C66.2487035,13.1703465 68.7112436,13.6514906 68.949084,15.8561579 C69.1475878,17.6925914 67.7300155,18.8963623 65.9504014,18.8071267 C65.725309,18.7958356 65.4667077,19.0260272 65.4951174,19.2624107 C65.5533938,19.708589 65.601836,20.15586 65.6397156,20.6042237 C65.6655757,20.8712022 65.9139787,21.1560279 66.215923,21.0431175 C67.822165,20.4432353 69.7562115,21.0751695 69.9966014,22.9950111 C70.2624873,25.1159061 68.309501,26.3531859 66.3984009,25.7802565 C66.116489,25.6957558 65.8181869,25.9281328 65.8218292,26.2191503 C65.8276568,26.6897318 65.8342129,27.1599492 65.8414975,27.6301665 C65.845504,27.9077076 66.1314223,28.1703154 66.4177049,28.0690603 C68.0173908,27.5030512 69.9088227,28.1480976 70.1459346,30.0431717 C70.4081782,32.1342001 68.5061837,33.3802214 66.6041892,32.8499065 C66.3219132,32.7712335 66.0239753,32.9934121 66.0276176,33.2888003 C66.0367233,33.9826532 66.044372,34.676506 66.0509281,35.3703588 C66.0538419,35.6529991 66.3415814,35.9046801 66.6274998,35.8096168 C68.4428082,35.2049997 70.5637032,36.2823837 70.3265913,38.4302316 C70.1197102,40.3012667 68.3135075,41.1236917 66.6194868,40.5533119 C66.3313831,40.4560633 66.0498354,40.7113865 66.0432794,40.9922057 C66.0287103,41.6379805 66.0094062,42.2833912 65.9857315,42.9288018 C65.964242,43.5148433 66.8748101,43.5141149 66.8962995,42.9288018" id="Fill-1" fill="#000000" mask="url(#mask-2)"></path>
                        </g>
                        <g id="Group-6" transform="translate(0.000000, 0.179928)">
                            <mask id="mask-4" fill="white">
                                <use xlink:href="#path-3"></use>
                            </mask>
                            <g id="Clip-5"></g>
                            <path d="M66.8962995,42.9288018 C66.9199742,42.2833912 66.9392783,41.6379805 66.9538474,40.9922057 C66.7618996,41.138625 66.5695877,41.2846802 66.3776399,41.4310995 C68.686112,42.2087246 71.2316959,40.8461506 71.270304,38.2492106 C71.3092763,35.6089276 68.7596858,34.1407278 66.3852887,34.931465 C66.5776007,35.0778844 66.7695484,35.2239395 66.9614961,35.3703588 C66.95494,34.676506 66.9472913,33.9826532 66.9381856,33.2888003 C66.7462379,33.4352197 66.5539259,33.581639 66.3619782,33.7280583 C68.7600501,34.3964153 71.2422585,32.8590122 71.0998456,30.2220073 C70.962532,27.6738737 68.4504569,26.3863306 66.1754938,27.1909085 C66.3678058,27.3373278 66.5597535,27.4837471 66.7520655,27.6301665 C66.7447809,27.1599492 66.7382249,26.6897318 66.7323972,26.2191503 C66.5404495,26.3655696 66.3481375,26.511989 66.1561898,26.6584083 C68.5637316,27.3799424 71.094018,25.832341 70.9505125,23.1742109 C70.8117419,20.6060448 68.2548669,19.3130383 65.9740762,20.1653299 C66.1660239,20.311385 66.3583359,20.4578044 66.5502836,20.6042237 C66.512404,20.15586 66.4639618,19.708589 66.4056854,19.2624107 C66.2538027,19.4139292 66.1019199,19.5658119 65.9504014,19.7176947 C68.3481091,19.8378897 70.3972514,17.91477 69.8174016,15.4303763 C69.2098707,12.8261517 66.3033376,12.0375998 64.2028393,13.4526225 C64.4104488,13.5072566 64.6180583,13.5615265 64.8256678,13.6161606 C64.5441202,13.0592572 64.2337986,12.5333131 63.8888754,12.0128324 C63.8342414,12.2204419 63.7799715,12.4280514 63.7253374,12.6356609 C66.1576467,11.5458931 66.9013986,8.40188389 64.7491801,6.59932345 C62.7080508,4.88964095 60.024789,6.08066391 59.1200486,8.33923681 C59.3429557,8.24854424 59.5658627,8.15785166 59.7887698,8.06715909 C59.4336483,7.8344179 59.0705137,7.61551735 58.6993662,7.40972898 C58.7299613,7.6482978 58.7609206,7.88650239 58.7915157,8.12470699 C60.345309,6.28681651 60.1519043,3.430911 57.7567462,2.3852147 C55.2199037,1.27796399 52.8516985,3.24333399 52.799614,5.83444632 C52.9915617,5.68802699 53.1835094,5.54160765 53.3758214,5.39518831 C52.5519395,5.2156243 51.7389843,5.08559519 50.9008975,4.99526684 L50.9008975,5.90583486 L51.983745,5.95245594 C52.1425481,5.95937625 52.2977089,5.86067068 52.3767462,5.7269993 C53.7484258,3.406872 52.4754518,0.295278995 49.6057056,0.196209195 C46.7552635,0.0975036227 45.3092815,2.98436845 46.3797453,5.41631349 C46.5105028,5.18830726 46.6416246,4.95993681 46.7727464,4.73156635 C46.2333259,4.70934849 45.6942697,4.68931599 45.1548492,4.67110463 C45.3009043,4.86305237 45.4473236,5.05536433 45.5937429,5.24731207 C46.5629515,2.83722066 45.0474021,0.124092209 42.3109632,0.185282379 C39.7380622,0.243194505 38.3660183,2.85543202 39.1931783,5.13112359 C39.3395976,4.93881163 39.486017,4.74686389 39.6324363,4.55455193 C38.9076241,4.54690316 38.182812,4.54143975 37.4579999,4.53706902 C37.6044192,4.72938098 37.7504743,4.92132872 37.8968937,5.11364069 C38.7258748,2.71556877 37.204862,0.10442394 34.5270636,0.196209195 C31.946878,0.284352179 30.6170845,2.83685643 31.4307681,5.13075936 C31.5771874,4.93881163 31.7236068,4.74649966 31.8696619,4.55455193 C31.3775909,4.56037956 30.8851557,4.56729988 30.3930848,4.57458442 C30.5395041,4.76689639 30.6855592,4.95884412 30.8319786,5.15115609 C31.7243352,2.7494419 30.1596151,0.104059712 27.477446,0.196209195 C24.7224314,0.290179814 23.5223028,3.07506102 24.5126366,5.40902895 L24.9060019,4.72391758 C24.245658,4.75269153 23.5860426,4.78437929 22.9260629,4.82043779 L23.3653209,5.39664522 C23.8759674,2.99893754 22.2675401,0.564807126 19.6341774,0.845626301 C16.8951888,1.13773652 15.8305527,3.99692008 17.028496,6.26641979 C17.1191885,6.04351274 17.2098811,5.82060569 17.3005737,5.59769864 C16.5928802,5.79948051 15.9008485,6.02785097 15.2113664,6.28572383 C15.3978508,6.39171395 15.5846993,6.49770406 15.7715479,6.60369418 C15.1603746,4.35677655 12.849353,2.97635545 10.6607117,4.12549228 C8.33111454,5.34893146 8.31108205,8.2252337 10.042254,9.95385601 L10.042254,9.30990231 C9.81315504,9.50512809 9.59061222,9.70763842 9.37426126,9.91670483 L10.0178507,9.91670483 C8.35988849,8.21394265 5.6689779,8.16914271 4.3140527,10.288945 C2.97296814,12.3876222 4.23792922,14.7722177 6.39269736,15.5702395 C6.28670724,15.3833909 6.18071713,15.1965424 6.07472701,15.0100581 C5.9406914,15.3761064 5.82013219,15.7468897 5.71341362,16.1220437 C5.93632067,16.0313511 6.15922772,15.9406586 6.38213477,15.849966 C4.12975374,14.6050374 1.27166286,15.6354362 0.916905565,18.3562134 C0.574531993,20.9848411 3.03342985,22.6843253 5.44388549,22.1634804 C5.25157353,22.017061 5.05962579,21.8706417 4.86731383,21.7242224 C4.83963256,22.2873176 4.81814315,22.8496844 4.80175293,23.4127797 C5.03012339,23.2820221 5.25849384,23.1509003 5.4868643,23.0197785 C3.16236628,21.7030972 0.101036627,22.9695152 0.00233105411,25.82105 C-0.0971029728,28.7028156 2.87717638,30.1695586 5.31057834,29.0007535 C5.08220788,28.8696317 4.85383742,28.7385099 4.62546696,28.6073881 C4.64950596,28.8780089 4.67318073,29.1489939 4.6968555,29.4196147 L5.60742351,29.4196147 C5.58047069,29.1493582 5.56298779,28.8780089 5.53603497,28.6073881 C5.47957976,28.0355514 4.6312946,28.0096912 4.62546696,28.6073881 C4.61818242,29.4061383 4.49798744,30.2963096 4.63967182,31.0885038 C4.71652376,31.5179277 5.45007735,31.5284903 5.51782361,31.0885038 C5.55861706,30.8229822 5.57063656,30.5377923 5.55424634,30.2693568 C5.52328702,29.7721867 4.80066025,29.6330519 4.65970432,30.1484334 C4.64185719,30.21363 4.6393076,30.2872039 4.63347996,30.3542217 C4.86185042,30.2230999 5.09022088,30.0919782 5.31859133,29.9612206 C2.98862991,28.8390366 0.0988512634,30.0846936 0.00233105411,32.8706675 C-0.0960102912,35.7171031 2.78138463,37.161264 5.21332967,36.101727 C4.98495921,35.9706052 4.75658876,35.8394834 4.5282183,35.7083617 C4.52166221,36.4903575 4.51692726,37.2727175 4.51474189,38.0547133 C4.74311235,37.9235915 4.97148281,37.7924697 5.19985326,37.6613479 C2.76936513,36.6171085 -0.0949176095,38.0572629 0.00233105411,40.899692 C0.0973943545,43.6765602 2.97661041,44.9240384 5.3047507,43.8178804 C5.07674447,43.6867586 4.84837401,43.556001 4.62000356,43.4248792 C4.6567905,44.139493 4.70086199,44.8526499 4.75294648,45.5661709 C4.94489422,45.4201158 5.13720619,45.2736965 5.32915392,45.1272772 C2.84366748,44.4833235 0.350532262,46.1868141 0.661946522,48.8955718 C0.973725009,51.6043295 3.9578385,52.6536681 6.15813504,51.3715884 C5.93522799,51.2808958 5.71232094,51.1902032 5.48941389,51.0995106 C5.57027233,51.5129085 5.65768686,51.9252137 5.75202171,52.3356978 C5.89844104,52.14375 6.04486038,51.9514381 6.19127972,51.7594903 C3.80886957,51.872765 1.90578243,53.9179008 2.68085792,56.3560377 C3.45520495,58.7923534 6.18618054,59.3805804 8.19088707,58.0751901 C7.98327756,58.020556 7.77566806,57.9662861 7.56805855,57.911652 C7.80444201,58.4361392 8.05029537,58.9518849 8.30707555,59.4669022 C8.39776812,59.2439952 8.4884607,59.0210881 8.57915327,58.7978168 C6.27723734,59.4129966 4.90555768,61.7983206 6.15594968,64.0015309 C7.46498225,66.3070891 10.4399901,66.2517266 12.0608011,64.3468183 L11.4168474,64.3468183 C11.7246194,64.7372699 12.0374906,65.1211653 12.3572821,65.5014185 C12.3878771,65.2632139 12.4188365,65.0250094 12.4494315,64.7864405 C10.5980647,66.1151414 9.96139551,68.6501627 11.7344535,70.3693151 C13.5144319,72.0957521 16.0075671,71.4343155 17.2969314,69.5257649 L16.5819534,69.6179144 C16.9214132,69.888171 17.251403,70.1453154 17.5955977,70.4093801 C17.5646384,70.1711755 17.5340433,69.9326067 17.5034482,69.6944021 C15.9733298,71.4004423 15.9587607,74.0039384 18.062537,75.2790979 C20.1714125,76.5571711 22.3819074,75.3927367 23.2156235,73.2499881 C22.9923522,73.3406807 22.7694452,73.4313732 22.5465381,73.5220658 C24.0038112,74.229395 25.4967785,74.8398398 27.0356384,75.3468441 C27.4224477,75.4739594 27.8107139,75.5952471 28.2011655,75.7099786 C28.3373864,75.7500436 29.2388488,75.8553053 29.163818,75.8105053 C29.4253331,75.9660304 29.0876945,75.5209447 29.2730861,75.9088467 C29.4406306,76.2595975 29.2730861,77.118081 29.2730861,77.5096253 L29.2730861,80.1058368 L29.2730861,88.7802719 C29.4249689,88.6287534 29.5764874,88.4768706 29.7283701,88.3249879 C27.9032276,88.3249879 25.5586971,87.9487412 23.953912,89.0133773 C22.7432208,89.816134 22.113472,91.3604574 22.1524443,92.7867711 C22.1590004,93.0329887 22.3556831,93.2420551 22.6077283,93.2420551 L32.2779606,93.2420551 C32.5241782,93.2420551 32.7332446,93.0337172 32.7332446,92.7867711 L32.7332446,76.0858611 C32.5412968,76.2322804 32.3489849,76.3786998 32.1570371,76.5251191 C34.5707708,76.8645789 36.905103,76.8645789 39.3192009,76.5251191 L38.7429935,76.0858611 L38.7429935,92.7867711 C38.7429935,93.0329887 38.9516956,93.2420551 39.1982775,93.2420551 L48.8856284,93.2420551 C49.136581,93.2420551 49.3339921,93.0333529 49.3409124,92.7867711 C49.3795205,91.3615501 48.7501359,89.8146771 47.5394447,89.0133773 C45.9295604,87.9476485 43.5784738,88.3249879 41.7478679,88.3249879 C41.8997506,88.4768706 42.0512692,88.6287534 42.2031519,88.7802719 L42.2031519,79.9353784 L42.2031519,77.5096253 C42.2031519,77.1490403 42.0370643,76.2486707 42.2031519,75.9088467 C42.4322508,75.439722 42.0388854,76.1128139 42.4602963,75.9467263 C43.2299084,75.6440535 44.0807431,75.4885285 44.8667454,75.2186361 C46.5400052,74.6442498 48.1557171,73.934371 49.7240794,73.1177736 C49.5164699,73.0635038 49.3088604,73.0088697 49.1012509,72.9545998 C51.4425034,77.8862362 58.3930511,73.3723684 54.7478653,69.1130955 L54.7478653,69.7570492 C55.180203,69.4044773 55.6037992,69.0453492 56.0237532,68.6782082 C55.7855486,68.6472489 55.5469798,68.6166538 55.3087752,68.5860587 C56.3999999,70.9291323 59.4434824,71.6608648 61.2362087,69.6197355 C63.0165513,67.5924469 61.9136713,64.8738551 59.6110269,63.9214009 C59.6780447,64.1749031 59.7450625,64.4287694 59.8120803,64.6822716 C60.4064991,63.9188513 60.9739651,63.1434116 61.515571,62.3413833 L60.800593,62.4335328 C62.4942495,64.4331401 65.6775952,64.359202 66.8518637,61.8281872 C67.9733193,59.4111755 66.153276,57.0761148 63.6983846,56.8240696 C63.8448039,57.0160174 63.9908591,57.2083293 64.1372784,57.4002771 C64.3372391,56.909663 64.5273657,56.4183205 64.7087509,55.9204219 C64.4858438,56.0111145 64.2629368,56.1018071 64.0396655,56.1924996 C66.1729442,57.5609013 68.9946124,56.7676144 69.6130702,54.1608403 C70.1980191,51.6953863 68.065833,49.7201822 65.6845156,49.8997462 C65.8309349,50.091694 65.97699,50.2836417 66.1234093,50.4759537 C66.2199295,49.9117657 66.3077083,49.347942 66.3892952,48.7812045 C66.2028109,48.8871946 66.0159623,48.9931847 65.829478,49.0991748 C68.0479859,49.9084877 70.5819146,48.7061737 70.7869745,46.1966482 C70.9989547,43.6037148 68.7028664,42.0677686 66.320092,42.489908 C65.7438846,42.5918916 65.9879168,43.4693149 66.5619389,43.3676955 C71.1278911,42.5591111 70.566617,49.8607739 66.0713248,48.221023 C65.8604373,48.1441711 65.5442881,48.3088018 65.5111434,48.5389934 C65.4299207,49.1057309 65.3417778,49.6695546 65.2452575,50.2337426 C65.1997291,50.5014496 65.3632672,50.8343532 65.6845156,50.8103142 C67.3621461,50.6839274 69.077292,51.8713081 68.7447525,53.7357871 C68.3659562,55.8614171 66.2326775,56.5181188 64.4993202,55.4061331 C64.2341628,55.236039 63.9263908,55.415603 63.8305991,55.6782108 C63.6492139,56.1761094 63.4594516,56.6674519 63.2591266,57.1584302 C63.136382,57.4596461 63.4394191,57.708049 63.6983846,57.7346376 C65.6397156,57.9338699 66.8864653,59.8515261 65.8720926,61.6092866 C64.8504353,63.3794308 62.7226199,63.2985724 61.4445467,61.7895791 C61.2427648,61.5513745 60.8803587,61.6580931 60.7295687,61.8817286 C60.2298489,62.621474 59.7181097,63.3320813 59.1681266,64.0383179 C58.9437627,64.3264216 59.0319057,64.6600537 59.3691801,64.7995527 C61.2584266,65.5808201 61.9519152,68.1708397 60.0870719,69.416861 C58.5667875,70.4326907 56.8290595,69.7031436 56.0951417,68.126404 C55.9629272,67.8430352 55.5808529,67.858697 55.3801637,68.0342545 C54.9602097,68.4017598 54.5366135,68.7605236 54.1042758,69.1130955 C53.9035866,69.2769977 53.9574922,69.5858624 54.1042758,69.7570492 C56.8155831,72.9250974 51.6694169,76.2483064 49.8872532,72.4949451 C49.7783493,72.2651177 49.4672993,72.2257812 49.2644247,72.3314071 C46.8295659,73.599282 44.2865315,74.5477296 41.6269445,75.2179077 C41.4335398,75.2663499 41.2925839,75.4601188 41.2925839,75.6568015 L41.2925839,88.7802719 C41.2925839,89.0264895 41.5012861,89.2355559 41.7478679,89.2355559 C44.5054321,89.2355559 48.5359703,88.9015595 48.4303444,92.7867711 C48.5818629,92.6352526 48.7337457,92.4833699 48.8856284,92.3314871 L39.1982775,92.3314871 C39.3501602,92.4833699 39.5016787,92.6352526 39.6535615,92.7867711 L39.6535615,76.0858611 C39.6535615,75.7598778 39.3640008,75.6065381 39.077354,75.6469673 C36.8293437,75.9631165 34.6468943,75.9631165 32.398884,75.6469673 C32.1122372,75.6065381 31.8226766,75.7598778 31.8226766,76.0858611 L31.8226766,92.7867711 C31.9745593,92.6352526 32.1260778,92.4833699 32.2779606,92.3314871 L22.6077283,92.3314871 C22.7592468,92.4833699 22.9111295,92.6352526 23.0630123,92.7867711 C22.9573864,88.9084799 26.9737198,89.2355559 29.7283701,89.2355559 C29.9745877,89.2355559 30.1836541,89.0272179 30.1836541,88.7802719 L30.1836541,75.6568015 C30.1836541,75.4593903 30.042334,75.268171 29.8492936,75.2179077 C27.4891013,74.6023637 25.2028471,73.8021565 23.0061928,72.7360635 C22.7217314,72.5980214 22.4492895,72.720766 22.3374717,73.0081412 C20.8128166,76.9279544 15.2558022,73.5621308 18.1470377,70.3383558 C18.3615675,70.0990585 18.2941855,69.8065841 18.0548882,69.6230136 C17.7784398,69.4066626 17.5019913,69.1903117 17.2259071,68.9739607 C16.9873383,68.7841983 16.6883078,68.8031382 16.5105649,69.0661102 C14.0425613,72.7193091 9.36843362,68.1136561 12.9090863,65.5728071 C13.1611315,65.3917862 13.2022892,65.0971263 13.0012358,64.8578291 C12.68108,64.4772116 12.3685731,64.0933162 12.0608011,63.7028646 C11.9165671,63.5196583 11.5625383,63.5316778 11.4168474,63.7028646 C10.1802961,65.1564954 7.97963529,65.31457 6.99221534,63.5149234 C6.07290587,61.839114 7.03482992,60.1534705 8.82136436,59.6759686 C9.1203949,59.5962029 9.22237851,59.2654846 9.09344208,59.0072475 C8.8366619,58.4925944 8.59044431,57.9768487 8.35442508,57.4519973 C8.25644797,57.2349179 7.92099471,57.1653505 7.73159656,57.2888235 C6.23425853,58.2638598 4.20660568,57.9899609 3.55864548,56.1138266 C2.93800232,54.3163653 4.44335336,52.7531021 6.19127972,52.6700583 C6.49650211,52.6554893 6.69609862,52.3914245 6.6301735,52.0934867 C6.53583865,51.6830026 6.4480599,51.2710617 6.36720146,50.8572995 C6.30783242,50.5655536 5.93850604,50.4457228 5.69848031,50.5852218 C4.09770174,51.5180077 1.7648265,50.870776 1.5921828,48.7699134 C1.42390983,46.7280557 3.18713373,45.513358 5.08730706,46.005429 C5.35537828,46.0749964 5.68536813,45.8688438 5.6635145,45.5661709 C5.61143001,44.8526499 5.56735851,44.139493 5.53057157,43.4248792 C5.51163175,43.0624731 5.16233786,42.881088 4.84546019,43.0318781 C3.22938409,43.7993048 1.11395248,43.0548244 0.951142922,41.0796202 C0.776313864,38.955083 2.78575535,37.6078065 4.74019853,38.4477145 C5.04651361,38.5795647 5.42458145,38.4316885 5.4253099,38.0547133 C5.42749527,37.2727175 5.43223022,36.4903575 5.43878631,35.7083617 C5.44206436,35.3317507 5.05671197,35.183146 4.75367494,35.3153605 C2.93181046,36.1093758 0.608405123,34.8779236 0.951142922,32.6907393 C1.24871655,30.7920228 3.14634028,29.9222483 4.85930083,30.7472229 C5.1841915,30.9038406 5.51381712,30.7111644 5.54404797,30.3542217 C5.54222684,30.3662412 5.54004147,30.3782607 5.53785611,30.3906445 C5.23955403,30.3502152 4.94161618,30.309786 4.64367832,30.2693568 C4.65351246,30.4325306 4.64768482,30.7945724 4.63967182,30.8462927 L5.51782361,30.8462927 C5.4118335,30.253695 5.52984311,29.2731954 5.53603497,28.6073881 L4.62546696,28.6073881 C4.65241978,28.8780089 4.66990268,29.1493582 4.6968555,29.4196147 C4.75403917,29.9954579 5.65877954,30.0063848 5.60742351,29.4196147 C5.58374874,29.1489939 5.56007397,28.8780089 5.53603497,28.6073881 C5.50507566,28.2504454 5.17690695,28.0577692 4.85128783,28.2143869 C3.02541685,29.0910818 0.599299443,27.8854897 0.951142922,25.6411217 C1.26583523,23.6338656 3.31752707,22.8376649 5.02720957,23.8061451 C5.33352465,23.9795172 5.70248681,23.7584313 5.71232094,23.4127797 C5.72871117,22.8496844 5.75020057,22.2873176 5.77788184,21.7242224 C5.79317938,21.4135365 5.47593749,21.2259595 5.2016744,21.2853286 C3.43735782,21.6666745 1.57251453,20.4552548 1.84714185,18.4815076 C2.13123907,16.4392856 4.22153899,15.6958979 5.92248004,16.6363325 C6.1843594,16.7809307 6.50451511,16.6494447 6.59120119,16.3642548 C6.69791976,15.9891008 6.81847896,15.6183175 6.9528788,15.2519049 C7.03810797,15.0053231 6.85344477,14.7729462 6.63490845,14.6920877 C5.04578516,14.1038608 4.07912616,12.2852743 5.10041924,10.7485998 C6.15740659,9.15838379 8.15337167,9.30698849 9.37426126,10.5606585 C9.54981877,10.740951 9.84010785,10.7274746 10.0178507,10.5606585 C10.2342017,10.3512279 10.4571087,10.1490818 10.6862076,9.95385601 C10.8708708,9.79104645 10.8515668,9.47526146 10.6862076,9.30990231 C9.4135978,8.03911359 9.32545481,5.80494392 11.1203665,4.91185881 C12.7841563,4.08397038 14.4457609,5.19996253 14.8933961,6.84590527 C14.9538578,7.06771964 15.2226575,7.25019747 15.4532133,7.16387562 C16.1426954,6.90600276 16.8347271,6.6776323 17.5427848,6.47585043 C17.8345308,6.3924424 17.9521762,6.06718751 17.8148625,5.80712928 C17.0150196,4.29157988 17.5435132,2.20310109 19.3919663,1.8002658 C21.430546,1.35590861 22.8961962,3.23459254 22.4871691,5.15443413 C22.4288927,5.42760454 22.6146486,5.74776025 22.9260629,5.7310058 C23.5860426,5.6949473 24.245658,5.66325954 24.9060019,5.63448559 C25.2804275,5.61809536 25.4337672,5.26661611 25.2990031,4.94937422 C24.4357846,2.91480105 26.0449404,0.559707945 28.3104336,1.25028273 C29.9523699,1.7507309 30.5362261,3.34167533 29.9538268,4.908945 C29.8503863,5.18794304 30.1173648,5.48952316 30.3930848,5.48515243 C30.8851557,5.47786789 31.3775909,5.47094757 31.8696619,5.46511994 C32.147203,5.46184189 32.410175,5.1741024 32.3089199,4.8889125 C31.7345336,3.26955835 32.4054401,1.30455258 34.3471353,1.14465684 C36.4982612,0.967642415 37.6943833,2.91698641 37.0187419,4.87142959 C36.9207647,5.15589104 37.1779092,5.44618012 37.4579999,5.44763703 C38.182812,5.45200776 38.9076241,5.45747117 39.6324363,5.46511994 C39.9096132,5.46803376 40.1729495,5.16900322 40.0713301,4.8889125 C39.4565145,3.19780559 40.3040713,1.1843576 42.3109632,1.09585039 C44.5254646,0.998601727 45.4342114,3.21893077 44.7155912,5.00510098 C44.6001311,5.2932047 44.8889633,5.57256696 45.1548492,5.58167264 C45.6942697,5.599884 46.2333259,5.6199165 46.7727464,5.64213436 C47.1508142,5.6574319 47.2954124,5.25131857 47.1657476,4.95702299 C45.8829393,2.04101999 49.803481,-0.466684317 51.6045845,2.29452212 C51.8952378,2.73997199 52.5162452,4.63577459 51.8708346,5.03715297 C51.7043828,5.1405935 51.1106924,5.00437252 50.9008975,4.99526684 C50.3050218,4.96940671 50.330882,5.84428046 50.9008975,5.90583486 C51.6559405,5.98705752 52.3920437,6.11162323 53.1336103,6.27334011 C53.4249921,6.33707987 53.7039901,6.14185408 53.710182,5.83444632 C53.7447836,4.11128742 55.2319232,2.52107144 57.0559731,3.08963011 C59.0249853,3.70335295 59.409245,5.98851443 58.147562,7.48111752 C57.9618061,7.70111075 57.9690907,8.03947782 58.2397115,8.19609552 C58.6112232,8.40151966 58.9743578,8.62078444 59.3291151,8.85352562 C59.601557,9.02471241 59.8936672,8.84150613 59.9978362,8.5814479 C60.7270191,6.76140456 63.0664504,5.99652743 64.4632617,7.57836618 C65.7828569,9.07315463 64.922188,11.1073636 63.2660469,11.8496586 C63.049696,11.946543 62.977579,12.2841817 63.1025089,12.4724871 C63.4474321,12.9926036 63.7577536,13.5189119 64.0393013,14.0754511 C64.1456556,14.2852459 64.4672682,14.3704751 64.662494,14.2389891 C66.2487035,13.1703465 68.7112436,13.6514906 68.949084,15.8561579 C69.1475878,17.6925914 67.7300155,18.8963623 65.9504014,18.8071267 C65.725309,18.7958356 65.4667077,19.0260272 65.4951174,19.2624107 C65.5533938,19.708589 65.601836,20.15586 65.6397156,20.6042237 C65.6655757,20.8712022 65.9139787,21.1560279 66.215923,21.0431175 C67.822165,20.4432353 69.7562115,21.0751695 69.9966014,22.9950111 C70.2624873,25.1159061 68.309501,26.3531859 66.3984009,25.7802565 C66.116489,25.6957558 65.8181869,25.9281328 65.8218292,26.2191503 C65.8276568,26.6897318 65.8342129,27.1599492 65.8414975,27.6301665 C65.845504,27.9077076 66.1314223,28.1703154 66.4177049,28.0690603 C68.0173908,27.5030512 69.9088227,28.1480976 70.1459346,30.0431717 C70.4081782,32.1342001 68.5061837,33.3802214 66.6041892,32.8499065 C66.3219132,32.7712335 66.0239753,32.9934121 66.0276176,33.2888003 C66.0367233,33.9826532 66.044372,34.676506 66.0509281,35.3703588 C66.0538419,35.6529991 66.3415814,35.9046801 66.6274998,35.8096168 C68.4428082,35.2049997 70.5637032,36.2823837 70.3265913,38.4302316 C70.1197102,40.3012667 68.3135075,41.1236917 66.6194868,40.5533119 C66.3313831,40.4560633 66.0498354,40.7113865 66.0432794,40.9922057 C66.0287103,41.6379805 66.0094062,42.2833912 65.9857315,42.9288018 C65.964242,43.5148433 66.8748101,43.5141149 66.8962995,42.9288018" id="Fill-4" fill="#000000" mask="url(#mask-4)"></path>
                        </g>
                        <path d="M35.7625222,76.1006852 C35.7519596,76.0999567 35.7413971,76.0999567 35.7304702,76.1006852 C35.1473425,76.1232672 35.1418791,77.0112532 35.7304702,77.0112532 L35.7625222,77.0112532 C36.3485638,77.0112532 36.3492923,76.1006852 35.7625222,76.1006852 L35.7304702,76.1006852 L35.7304702,77.0112532 C35.7413971,77.0105247 35.7519596,77.0105247 35.7625222,77.0112532 C36.0083756,77.0207231 36.2178062,76.7952664 36.2178062,76.5559692 C36.2178062,76.3013743 36.0091041,76.1101551 35.7625222,76.1006852" id="Fill-7" fill="#000000"></path>
                        <path d="M35.7625222,76.1006852 C35.7519596,76.0999567 35.7413971,76.0999567 35.7304702,76.1006852 C35.1473425,76.1232672 35.1418791,77.0112532 35.7304702,77.0112532 L35.7625222,77.0112532 C36.3485638,77.0112532 36.3492923,76.1006852 35.7625222,76.1006852 L35.7304702,76.1006852 L35.7304702,77.0112532 C35.7413971,77.0105247 35.7519596,77.0105247 35.7625222,77.0112532 C36.0083756,77.0207231 36.2178062,76.7952664 36.2178062,76.5559692 C36.2178062,76.3013743 36.0091041,76.1101551 35.7625222,76.1006852" id="Fill-9" fill="#000000"></path>
                        <path d="M31.7348978,37.6648081 C31.7348978,39.3999865 30.3282523,40.8069962 28.5927097,40.8069962 C26.8575313,40.8069962 25.4508858,39.3999865 25.4508858,37.6648081 C25.4508858,35.9296297 26.8575313,34.52262 28.5927097,34.52262 C30.3282523,34.52262 31.7348978,35.9296297 31.7348978,37.6648081" id="Fill-11" fill="#000000"></path>
                        <path d="M41.2821306,30.1004282 C38.7966441,30.1922135 36.6735637,31.2262545 35.1062941,33.1668571 L35.7502478,33.1668571 C31.2199898,27.5577581 21.81018,30.4774034 21.7905117,37.8839636 C21.7708434,45.306914 31.2378369,48.1883154 35.7502478,42.6014343 L35.1062941,42.6014343 C38.7489304,47.1112956 46.0688045,46.4356541 48.4275399,40.9664184 C50.6613453,35.7867433 46.7331549,30.2839987 41.2821306,30.1004282 C40.696089,30.08076 40.6968174,30.991328 41.2821306,31.0109962 C46.236349,31.1778123 49.7296521,36.3345411 47.4423053,40.9376445 C45.1265487,45.59866 38.8946212,45.850341 35.7502478,41.9574806 C35.606378,41.7797378 35.2494354,41.7804662 35.1062941,41.9574806 C31.1030729,46.9138844 22.7010797,44.556606 22.7010797,37.8839636 C22.7010797,31.2102285 31.101616,28.8522216 35.1062941,33.8108108 C35.2497996,33.9885536 35.6071065,33.9878252 35.7502478,33.8108108 C37.1630851,32.0614275 39.0210081,31.0947685 41.2821306,31.0109962 C41.866351,30.9895068 41.8692648,30.0785746 41.2821306,30.1004282" id="Fill-13" fill="#000000"></path>
                        <path d="M42.3339459,37.6648081 C42.3339459,39.3999865 40.9273004,40.8069962 39.1917578,40.8069962 C37.4565794,40.8069962 36.0499339,39.3999865 36.0499339,37.6648081 C36.0499339,35.9296297 37.4565794,34.52262 39.1917578,34.52262 C40.9273004,34.52262 42.3339459,35.9296297 42.3339459,37.6648081" id="Fill-15" fill="#000000"></path>
                    </g>
                    <g id="cloud-11-copy-2" opacity="0.15" transform="translate(278.457031, 66.000000)" stroke="#000000">
                        <path d="M78.3686681,28.4516856 C81.183322,20.3080312 79.3733658,10.9224323 73.7890724,5.36902692 C64.5192204,-3.84860141 46.688494,-0.686993153 40.0738697,10.9509679 C38.5908935,9.7531237 36.9747494,8.79394039 35.3367234,8.15189072 C26.2375512,4.58494807 13.8973381,9.71226599 12.0867567,18.8196434 C11.5847204,21.3424446 11.9454613,23.9210199 12.9257761,26.339407 C4.95821733,29.032773 -0.312225271,36.5077877 0.0141295377,43.8654175 C0.487406531,54.5150112 12.4825088,60.4127887 21.0290035,60.0982492 C22.4682157,60.0457179 66.8455925,60.1021404 73.3420538,60.5619518 C83.1620825,61.2571813 93.7798674,54.113568 94.3569277,46.1839303 C94.8795956,38.9916768 87.1602415,30.9024994 78.3686681,28.4516856 L78.3686681,28.4516856 Z" id="Stroke-1"></path>
                    </g>
                    <g id="cloud-11-copy-2" opacity="0.15" transform="translate(325.000000, 0.819942)" stroke="#000000">
                        <path d="M47.9621405,17.4126188 C49.6847272,12.4286487 48.577022,6.68460046 45.1593977,3.2858798 C39.4861873,-2.35536938 28.5736655,-0.420444329 24.5254719,6.70206439 C23.6178807,5.96897587 22.6287899,5.38194938 21.6263072,4.98901075 C16.0575539,2.80601839 8.50526237,5.94397068 7.3971746,11.5177456 C7.08992512,13.0617165 7.3107009,14.6398215 7.91066002,16.1198904 C3.03446163,17.7682481 -0.19108392,22.3430062 0.00864737003,26.8459241 C0.298296003,33.3635455 7.63937748,36.9730242 12.8698885,36.7805239 C13.7506958,36.7483744 40.9099424,36.7829054 44.8858194,37.0643129 C50.8957416,37.489798 57.3938958,33.1178596 57.7470605,28.2648692 C58.0669367,23.8631627 53.3426412,18.912533 47.9621405,17.4126188 L47.9621405,17.4126188 Z" id="Stroke-1"></path>
                    </g>
                    <g id="cloud-11-copy-3" opacity="0.15" transform="translate(669.000000, 157.743726)" stroke="#000000">
                        <path d="M78.3686681,28.4516856 C81.183322,20.3080312 79.3733658,10.9224323 73.7890724,5.36902692 C64.5192204,-3.84860141 46.688494,-0.686993153 40.0738697,10.9509679 C38.5908935,9.7531237 36.9747494,8.79394039 35.3367234,8.15189072 C26.2375512,4.58494807 13.8973381,9.71226599 12.0867567,18.8196434 C11.5847204,21.3424446 11.9454613,23.9210199 12.9257761,26.339407 C4.95821733,29.032773 -0.312225271,36.5077877 0.0141295377,43.8654175 C0.487406531,54.5150112 12.4825088,60.4127887 21.0290035,60.0982492 C22.4682157,60.0457179 66.8455925,60.1021404 73.3420538,60.5619518 C83.1620825,61.2571813 93.7798674,54.113568 94.3569277,46.1839303 C94.8795956,38.9916768 87.1602415,30.9024994 78.3686681,28.4516856 L78.3686681,28.4516856 Z" id="Stroke-1"></path>
                    </g>
                    <path d="M0.5,320.8125 L899.512207,320.8125" id="Line-Copy" stroke="#E3E3E3" stroke-linecap="square"></path>
                </g>
            </g>
        </g>
    </g>
</svg>