<?xml version="1.0" encoding="UTF-8" standalone="no"?>
<svg width="100%" height="100%"  viewBox="0 0 899 240" version="1.1" xmlns="http://www.w3.org/2000/svg" xmlns:xlink="http://www.w3.org/1999/xlink">
    <!-- Generator: sketchtool 39.1 (31720) - http://www.bohemiancoding.com/sketch -->
    <title>87A5E8EB-7FA2-4CEC-975F-EF78DEE0ADC0</title>
    <desc>Created with sketchtool.</desc>
    <defs>
        <polygon id="path-1" points="0 166.734455 146.801193 166.734455 146.801193 0.215113365 0 0.215113365"></polygon>
    </defs>
    <g id="Welcome" stroke="none" stroke-width="1" fill="none" fill-rule="evenodd">
        <g id="Home_Des_3" transform="translate(-439.000000, -2332.000000)">
            <g id="SectionC" transform="translate(160.000000, 2065.000000)">
                <g id="LineArt_3" transform="translate(279.000000, 267.000000)">
                    <g id="cloud-14-copy-4" opacity="0.15" transform="translate(377.500000, 0.740174)" stroke="#000000">
                        <path d="M50.9849244,18.5100382 C52.816076,13.2119565 51.6385585,7.10589322 48.0055406,3.49297032 C41.9747796,-2.50381506 30.3745029,-0.44694257 26.0711745,7.12445781 C25.1063829,6.34516684 24.0549553,5.72114337 22.9892917,5.30344003 C17.0695712,2.98286594 9.04130121,6.31858572 7.8633769,12.2436443 C7.53676322,13.884923 7.77145325,15.5624871 8.40922442,17.1358364 C3.22570667,18.8880808 -0.203126865,23.7511602 0.00919236512,28.5378717 C0.317095922,35.4662621 8.12084447,39.3032259 13.6810051,39.0985934 C14.6173248,39.0644177 43.4882659,39.101125 47.7147201,39.4002681 C54.1034139,39.8525691 61.0111102,35.205092 61.3865329,30.0462449 C61.7265691,25.3671236 56.7045278,20.1044835 50.9849244,18.5100382 L50.9849244,18.5100382 Z" id="Stroke-1"></path>
                    </g>
                    <g id="cloud-14-copy-5" opacity="0.15" transform="translate(428.067615, 82.740174)" stroke="#000000">
                        <path d="M68.0305955,24.6984561 C70.4739519,17.6290792 68.9027576,9.48158997 64.0551212,4.66076696 C56.00811,-3.34090973 40.5295398,-0.59636784 34.7874895,9.50636122 C33.5001414,8.46653171 32.0971925,7.63387992 30.6752481,7.0765268 C22.7764013,3.98012057 12.0640584,8.43106378 10.4923214,16.3370334 C10.0565117,18.527037 10.3696651,20.7654573 11.2206609,22.8648207 C4.30414968,25.2028889 -0.271037797,31.6918304 0.0122656272,38.0788719 C0.423109864,47.323615 10.8358675,52.4433819 18.2549438,52.1703352 C19.504301,52.1247336 58.0275967,52.1737131 63.6670715,52.572868 C72.1916824,53.1763857 81.4088128,46.9751285 81.9097496,40.091536 C82.3634693,33.8480551 75.6624207,26.8259687 68.0305955,24.6984561 L68.0305955,24.6984561 Z" id="Stroke-1"></path>
                    </g>
                    <g id="Page-1" opacity="0.15" transform="translate(315.500000, 156.365445) scale(-1, 1) translate(-315.500000, -156.365445) translate(242.000000, 72.365445)">
                        <polygon id="Stroke-1" stroke="#000000" points="0.493580063 166.663327 72.9513636 166.663327 72.9513636 23.6402964 0.493580063 23.6402964"></polygon>
                        <polygon id="Stroke-3" stroke="#000000" points="10.3804437 91.565149 33.7828772 91.565149 33.7828772 64.9075061 10.3804437 64.9075061"></polygon>
                        <path d="M10.4558054,78.1817285 L34.0693206,78.1817285" id="Stroke-4" stroke="#000000"></path>
                        <path d="M22.1185782,64.7911375 L22.1185782,91.8602891" id="Stroke-5" stroke="#000000"></path>
                        <polygon id="Stroke-6" stroke="#000000" points="40.2607555 91.565149 63.663189 91.565149 63.663189 64.9075061 40.2607555 64.9075061"></polygon>
                        <path d="M40.404654,78.1817285 L63.7301995,78.1817285" id="Stroke-7" stroke="#000000"></path>
                        <path d="M52.0674268,64.7911375 L52.0674268,91.8602891" id="Stroke-8" stroke="#000000"></path>
                        <polygon id="Stroke-9" stroke="#000000" points="10.3804437 58.4486337 33.7828772 58.4486337 33.7828772 31.7909908 10.3804437 31.7909908"></polygon>
                        <path d="M10.4558054,45.0652132 L34.0693206,45.0652132" id="Stroke-10" stroke="#000000"></path>
                        <path d="M22.1185782,31.6746222 L22.1185782,58.7437738" id="Stroke-11" stroke="#000000"></path>
                        <polygon id="Stroke-12" stroke="#000000" points="40.2607555 58.4486337 63.663189 58.4486337 63.663189 31.7909908 40.2607555 31.7909908"></polygon>
                        <path d="M40.404654,45.0652132 L63.7301995,45.0652132" id="Stroke-13" stroke="#000000"></path>
                        <path d="M52.0674268,31.6746222 L52.0674268,58.7437738" id="Stroke-14" stroke="#000000"></path>
                        <g id="Group-54" transform="translate(0.000000, 0.072856)">
                            <path d="M40.3715375,96.9708874 C40.3715375,97.0136591 40.3745077,97.0558368 40.3751018,97.0992025 C40.3786661,97.0558368 40.3834185,97.0136591 40.3875769,96.9708874 L40.3715375,96.9708874 L40.3715375,96.9708874 Z" id="Fill-15" fill="#FFFFFF"></path>
                            <mask id="mask-2" fill="white">
                                <use xlink:href="#path-1"></use>
                            </mask>
                            <g id="Clip-18"></g>
                            <polygon id="Stroke-17" stroke="#000000" mask="url(#mask-2)" points="10.3804437 158.301263 33.7828772 158.301263 33.7828772 131.64362 10.3804437 131.64362"></polygon>
                            <path d="M10.4558054,144.917842 L34.0693206,144.917842" id="Stroke-19" stroke="#000000" mask="url(#mask-2)"></path>
                            <path d="M22.1185782,131.527251 L22.1185782,158.596403" id="Stroke-20" stroke="#000000" mask="url(#mask-2)"></path>
                            <polygon id="Stroke-21" stroke="#000000" mask="url(#mask-2)" points="40.2607555 158.301263 63.663189 158.301263 63.663189 131.64362 40.2607555 131.64362"></polygon>
                            <path d="M40.404654,144.917842 L63.7301995,144.917842" id="Stroke-22" stroke="#000000" mask="url(#mask-2)"></path>
                            <path d="M52.0674268,131.527251 L52.0674268,158.596403" id="Stroke-23" stroke="#000000" mask="url(#mask-2)"></path>
                            <polygon id="Stroke-24" stroke="#000000" mask="url(#mask-2)" points="10.3804437 125.184747 33.7828772 125.184747 33.7828772 98.5271044 10.3804437 98.5271044"></polygon>
                            <path d="M10.4558054,111.801327 L34.0693206,111.801327" id="Stroke-25" stroke="#000000" mask="url(#mask-2)"></path>
                            <path d="M22.1185782,98.4107359 L22.1185782,125.479887" id="Stroke-26" stroke="#000000" mask="url(#mask-2)"></path>
                            <polygon id="Stroke-27" stroke="#000000" mask="url(#mask-2)" points="40.2607555 125.184747 63.663189 125.184747 63.663189 98.5271044 40.2607555 98.5271044"></polygon>
                            <path d="M40.404654,111.801327 L63.7301995,111.801327" id="Stroke-28" stroke="#000000" mask="url(#mask-2)"></path>
                            <path d="M52.0674268,98.4107359 L52.0674268,125.479887" id="Stroke-29" stroke="#000000" mask="url(#mask-2)"></path>
                            <path d="M35.7640223,160.324221 C35.7640223,160.366993 35.7669926,160.40917 35.7675866,160.452536 C35.7711509,160.40917 35.7759033,160.366993 35.7800617,160.324221 L35.7640223,160.324221 Z" id="Fill-30" fill="#FFFFFF" mask="url(#mask-2)"></path>
                            <polygon id="Stroke-31" stroke="#000000" mask="url(#mask-2)" points="0.493637657 23.6825992 74.0220926 23.6825992 37.030657 0.385850599"></polygon>
                            <polygon id="Stroke-32" stroke="#000000" mask="url(#mask-2)" points="73.061944 166.59047 145.519728 166.59047 145.519728 55.7693636 73.061944 55.7693636"></polygon>
                            <polygon id="Stroke-33" stroke="#000000" mask="url(#mask-2)" points="82.9488076 91.4922926 106.351241 91.4922926 106.351241 64.8346497 82.9488076 64.8346497"></polygon>
                            <path d="M83.0241693,78.1088721 L106.637685,78.1088721" id="Stroke-34" stroke="#000000" mask="url(#mask-2)"></path>
                            <path d="M94.6869421,64.7182812 L94.6869421,91.7874328" id="Stroke-35" stroke="#000000" mask="url(#mask-2)"></path>
                            <polygon id="Stroke-36" stroke="#000000" mask="url(#mask-2)" points="112.829119 91.4922926 136.231553 91.4922926 136.231553 64.8346497 112.829119 64.8346497"></polygon>
                            <path d="M112.973018,78.1088721 L136.298563,78.1088721" id="Stroke-37" stroke="#000000" mask="url(#mask-2)"></path>
                            <path d="M124.635791,64.7182812 L124.635791,91.7874328" id="Stroke-38" stroke="#000000" mask="url(#mask-2)"></path>
                            <path d="M112.939901,96.9708874 C112.939901,97.0136591 112.942872,97.0558368 112.943466,97.0992025 C112.94703,97.0558368 112.951782,97.0136591 112.955941,96.9708874 L112.939901,96.9708874 Z" id="Fill-39" fill="#FFFFFF" mask="url(#mask-2)"></path>
                            <polygon id="Stroke-40" stroke="#000000" mask="url(#mask-2)" points="82.9488076 158.301263 106.351241 158.301263 106.351241 131.64362 82.9488076 131.64362"></polygon>
                            <path d="M83.0241693,144.917842 L106.637685,144.917842" id="Stroke-41" stroke="#000000" mask="url(#mask-2)"></path>
                            <path d="M94.6869421,131.527251 L94.6869421,158.596403" id="Stroke-42" stroke="#000000" mask="url(#mask-2)"></path>
                            <polygon id="Stroke-43" stroke="#000000" mask="url(#mask-2)" points="112.829119 158.301263 136.231553 158.301263 136.231553 131.64362 112.829119 131.64362"></polygon>
                            <path d="M112.973018,144.917842 L136.298563,144.917842" id="Stroke-44" stroke="#000000" mask="url(#mask-2)"></path>
                            <path d="M124.635791,131.527251 L124.635791,158.596403" id="Stroke-45" stroke="#000000" mask="url(#mask-2)"></path>
                            <polygon id="Stroke-46" stroke="#000000" mask="url(#mask-2)" points="82.9488076 125.184747 106.351241 125.184747 106.351241 98.5271044 82.9488076 98.5271044"></polygon>
                            <path d="M83.0241693,111.801327 L106.637685,111.801327" id="Stroke-47" stroke="#000000" mask="url(#mask-2)"></path>
                            <path d="M94.6869421,98.4107359 L94.6869421,125.479887" id="Stroke-48" stroke="#000000" mask="url(#mask-2)"></path>
                            <polygon id="Stroke-49" stroke="#000000" mask="url(#mask-2)" points="112.829119 125.184747 136.231553 125.184747 136.231553 98.5271044 112.829119 98.5271044"></polygon>
                            <path d="M112.973018,111.801327 L136.298563,111.801327" id="Stroke-50" stroke="#000000" mask="url(#mask-2)"></path>
                            <path d="M124.635791,98.4107359 L124.635791,125.479887" id="Stroke-51" stroke="#000000" mask="url(#mask-2)"></path>
                            <path d="M108.332386,160.324221 C108.332386,160.366993 108.335356,160.40917 108.335951,160.452536 C108.339515,160.40917 108.344267,160.366993 108.348426,160.324221 L108.332386,160.324221 Z" id="Fill-52" fill="#FFFFFF" mask="url(#mask-2)"></path>
                            <polygon id="Stroke-53" stroke="#000000" mask="url(#mask-2)" points="72.7740319 55.9352054 146.302487 55.9352054 109.311051 32.6384568"></polygon>
                        </g>
                    </g>
                    <path d="M0.5,239.365445 L1003.5,239.365445" id="Line-Copy-5" stroke="#E3E3E3" stroke-linecap="square"></path>
                </g>
            </g>
        </g>
    </g>
</svg>