<?xml version="1.0" encoding="UTF-8" standalone="no"?>
<svg viewBox="0 0 183 71" version="1.1" xmlns="http://www.w3.org/2000/svg" xmlns:xlink="http://www.w3.org/1999/xlink">
    <!-- Generator: sketchtool 3.8.3 (29802) - http://www.bohemiancoding.com/sketch -->
    <title>logo</title>
    <desc>Created with sketchtool.</desc>
    <defs>
        <filter x="-50%" y="-50%" width="200%" height="200%" filterUnits="objectBoundingBox" id="filter-1">
            <feOffset dx="0" dy="2" in="SourceAlpha" result="shadowOffsetOuter1"></feOffset>
            <feGaussianBlur stdDeviation="2" in="shadowOffsetOuter1" result="shadowBlurOuter1"></feGaussianBlur>
            <feColorMatrix values="0 0 0 0 0   0 0 0 0 0   0 0 0 0 0  0 0 0 0.140596694 0" type="matrix" in="shadowBlurOuter1" result="shadowMatrixOuter1"></feColorMatrix>
            <feMerge>
                <feMergeNode in="shadowMatrixOuter1"></feMergeNode>
                <feMergeNode in="SourceGraphic"></feMergeNode>
            </feMerge>
        </filter>
        <polygon id="path-2" points="74.323526 0.224478862 0.128383815 0.224478862 0.128383815 20.6711923 74.323526 20.6711923"></polygon>
    </defs>
    <g id="Welcome" stroke="none" stroke-width="1" fill="none" fill-rule="evenodd">
        <g id="Home_Des_1" transform="translate(-97.000000, -23.000000)">
            <g id="logo" filter="url(#filter-1)" transform="translate(101.000000, 25.019435)">
                <path d="M92.5213014,51.1147138 C85.9126203,51.1147138 79.7967405,48.0123458 75.5217042,42.645898 C71.5839709,47.3161106 66.0819004,50.006934 60.1776387,50.006934 C48.5719646,50.006934 39.130407,39.5300846 39.130407,26.651779 C39.130407,13.7740581 48.5719646,3.29720866 60.1776387,3.29720866 C65.7112765,3.29720866 70.9695769,5.7173714 74.8646359,9.92576548 C79.1414259,4.0793772 85.6103923,0.584755745 92.5213014,0.584755745 C105.06172,0.584755745 115.264401,11.9186 115.264401,25.8497348 C115.264401,39.7808696 105.06172,51.1147138 92.5213014,51.1147138" id="Fill-1" fill="#F9F8F8"></path>
                <path d="M66.5668683,24.2399174 C66.5668683,29.3625951 63.0137888,33.5160387 58.6306052,33.5160387 C54.2474216,33.5160387 50.6937575,29.3625951 50.6937575,24.2399174 C50.6937575,19.1172396 54.2474216,14.963796 58.6306052,14.963796 C63.0137888,14.963796 66.5668683,19.1172396 66.5668683,24.2399174" id="Fill-3" fill="#262626"></path>
                <path d="M101.500631,24.2399174 C101.500631,29.8384436 97.6178484,34.376541 92.8277969,34.376541 C88.0377453,34.376541 84.1549625,29.8384436 84.1549625,24.2399174 C84.1549625,18.6413911 88.0377453,14.1032937 92.8277969,14.1032937 C97.6178484,14.1032937 101.500631,18.6413911 101.500631,24.2399174" id="Fill-5" fill="#262626"></path>
                <g id="Group-9" transform="translate(40.336046, 0.360102)">
                    <mask id="mask-3" fill="white">
                        <use xlink:href="#path-2"></use>
                    </mask>
                    <g id="Clip-8"></g>
                    <path d="M0.13579802,18.0838768 C3.13644906,9.2432679 10.8377109,2.93681487 19.8414177,2.93681487 C25.3756401,2.93681487 30.6333559,5.3569776 34.528415,9.56595627 C38.8052049,3.7189834 45.2741713,0.224361946 52.1850805,0.224361946 C61.389883,0.224361946 69.3354994,6.3308885 72.9107929,15.088487 C73.5082341,16.5511071 73.9834979,18.0879689 74.3219699,19.6827042 C74.7183154,21.5481001 -0.731134669,20.6384931 0.13579802,18.0838768" id="Fill-7" fill="#00AF6C" mask="url(#mask-3)"></path>
                </g>
                <polygon id="Fill-10" fill="#262626" points="44.8712785 13.6604741 30.2199407 41.852447 29.1074843 41.852447 22.4362531 29.1629609 15.8293257 41.852447 14.7829269 41.852447 5.84580366e-05 13.6604741 8.1111111 13.6604741 15.3061263 27.3314706 18.3804345 21.4441617 14.3252004 13.6604741 22.4362531 13.6604741 29.6306837 27.3314706 36.7602259 13.6604741"></polygon>
                <polygon id="Fill-12" fill="#262626" points="109.546562 41.8523301 109.546562 39.9553668 123.544339 20.790484 109.9394 20.790484 109.9394 13.6603572 136.495717 13.6603572 136.495717 15.3614861 122.366994 34.6573149 135.514206 34.6573149 135.514206 41.8523301"></polygon>
                <polygon id="Fill-14" fill="#262626" points="151.905548 40.0863128 138.169078 13.6603572 147.588422 13.6603572 156.876819 29.29379 165.510487 13.6603572 174.667938 13.6603572 149.354439 62.3255039 140.196987 62.3255039"></polygon>
            </g>
        </g>
    </g>
</svg>