<?xml version="1.0" encoding="UTF-8" standalone="no"?>
<svg width="186px" height="236px" viewBox="0 0 186 236" version="1.1" xmlns="http://www.w3.org/2000/svg" xmlns:xlink="http://www.w3.org/1999/xlink">
    <!-- Generator: sketchtool 3.8.3 (29802) - http://www.bohemiancoding.com/sketch -->
    <title>Page 1</title>
    <desc>Created with sketchtool.</desc>
    <defs>
        <polygon id="path-1" points="0 235.016951 185.749617 235.016951 185.749617 0 0 0"></polygon>
    </defs>
    <g id="Welcome" stroke="none" stroke-width="1" fill="none" fill-rule="evenodd" opacity="0.15">
        <g id="Home_Des_1" transform="translate(-236.000000, -2127.000000)">
            <g id="school" transform="translate(236.000000, 2127.000000)">
                <g id="Page-1" transform="translate(0.258452, 0.232589)">
                    <path d="M73.9756478,211.460643 L47.4354742,211.460643 L47.4354742,171.946398 C47.4354742,168.648459 50.0129263,165.975313 53.1917192,165.975313 L67.8956413,165.975313 C71.2533294,165.975313 73.9756478,168.798732 73.9756478,172.282747 L73.9756478,211.460643 L73.9756478,211.460643 Z" id="Stroke-1" stroke="#000000"></path>
                    <path d="M73.9756478,159.709281 L47.4354742,159.709281 L47.4354742,120.195035 C47.4354742,116.897601 50.0129263,114.223951 53.1917192,114.223951 L67.8956413,114.223951 C71.2533294,114.223951 73.9756478,117.047874 73.9756478,120.531384 L73.9756478,159.709281 L73.9756478,159.709281 Z" id="Stroke-3" stroke="#000000"></path>
                    <path d="M106.100949,211.460643 L79.5607756,211.460643 L79.5607756,171.946398 C79.5607756,168.648459 82.1382278,165.975313 85.3170206,165.975313 L100.020457,165.975313 C103.378631,165.975313 106.100949,168.798732 106.100949,172.282747 L106.100949,211.460643 L106.100949,211.460643 Z" id="Stroke-5" stroke="#000000"></path>
                    <path d="M106.100949,159.709281 L79.5607756,159.709281 L79.5607756,120.195035 C79.5607756,116.897096 82.1382278,114.223951 85.3170206,114.223951 L100.020457,114.223951 C103.378631,114.223951 106.100949,117.047874 106.100949,120.531384 L106.100949,159.709281 L106.100949,159.709281 Z" id="Stroke-7" stroke="#000000"></path>
                    <path d="M138.667266,211.460643 L112.127093,211.460643 L112.127093,171.946398 C112.127093,168.648459 114.704545,165.975313 117.883338,165.975313 L132.586774,165.975313 C135.944948,165.975313 138.667266,168.798732 138.667266,172.282747 L138.667266,211.460643 L138.667266,211.460643 Z" id="Stroke-9" stroke="#000000"></path>
                    <path d="M138.667266,159.709281 L112.127093,159.709281 L112.127093,120.195035 C112.127093,116.897096 114.704545,114.223951 117.883338,114.223951 L132.586774,114.223951 C135.944948,114.223951 138.667266,117.047874 138.667266,120.531384 L138.667266,159.709281 L138.667266,159.709281 Z" id="Stroke-11" stroke="#000000"></path>
                    <path d="M94.172382,61.7220799 C86.5007916,61.7220799 80.2593906,55.2477323 80.2593906,47.2898167 C80.2593906,39.3313968 86.5007916,32.8565449 94.172382,32.8565449 C101.844459,32.8565449 108.08586,39.3313968 108.08586,47.2898167 C108.08586,55.2477323 101.844459,61.7220799 94.172382,61.7220799 L94.172382,61.7220799 Z M62.3727865,42.0136193 L62.3727865,68.7022123 L124.774157,68.7022123 L124.774157,42.5178912 L93.1981809,13.1405202 L62.3727865,42.0136193 L62.3727865,42.0136193 Z" id="Stroke-13" stroke="#000000"></path>
                    <polygon id="Stroke-15" stroke="#000000" points="52.5007851 39.8371815 60.4611357 43.4770165 93.1979865 13.1405202 125.935323 43.4770165 132.966683 39.5381483 94.4643507 0.346636539"></polygon>
                    <polygon id="Stroke-17" stroke="#000000" points="0.661328916 101.222862 185.115414 101.26522 149.825417 68.3594586 43.892231 68.3594586 37.9522295 68.3594586"></polygon>
                    <mask id="mask-2" fill="white">
                        <use xlink:href="#path-1"></use>
                    </mask>
                    <g id="Clip-22"></g>
                    <polygon id="Stroke-21" stroke="#000000" mask="url(#mask-2)" points="9.27046635 234.764815 176.246295 234.764815 176.246295 101.19074 9.27046635 101.19074"></polygon>
                </g>
            </g>
        </g>
    </g>
</svg>