<?xml version="1.0" encoding="UTF-8" standalone="no"?>
<svg viewBox="0 0 126 127" version="1.1" xmlns="http://www.w3.org/2000/svg" xmlns:xlink="http://www.w3.org/1999/xlink">
    <!-- Generator: sketchtool 3.8.3 (29802) - http://www.bohemiancoding.com/sketch -->
    <title>parents</title>
    <desc>Created with sketchtool.</desc>
    <defs>
        <filter x="-50%" y="-50%" width="200%" height="200%" filterUnits="objectBoundingBox" id="filter-1">
            <feOffset dx="0" dy="2" in="SourceAlpha" result="shadowOffsetOuter1"></feOffset>
            <feGaussianBlur stdDeviation="2" in="shadowOffsetOuter1" result="shadowBlurOuter1"></feGaussianBlur>
            <feColorMatrix values="0 0 0 0 0   0 0 0 0 0   0 0 0 0 0  0 0 0 0.21 0" type="matrix" in="shadowBlurOuter1" result="shadowMatrixOuter1"></feColorMatrix>
            <feMerge>
                <feMergeNode in="shadowMatrixOuter1"></feMergeNode>
                <feMergeNode in="SourceGraphic"></feMergeNode>
            </feMerge>
        </filter>
    </defs>
    <g id="Welcome" stroke="none" stroke-width="1" fill="none" fill-rule="evenodd">
        <g id="Home_Des_1" transform="translate(-640.000000, -1782.000000)">
            <g id="parents" filter="url(#filter-1)" transform="translate(644.000000, 1784.140691)">
                <path d="M118,59 C118,91.584641 91.584641,118 59,118 C26.415359,118 0,91.584641 0,59 C0,26.415359 26.415359,0 59,0 C91.584641,0 118,26.415359 118,59" id="Fill-4" fill="#FFFFFF"></path>
                <path d="M69.0747795,70.6671744 C60.0765231,68.3752513 50.1403179,67.4009949 35.2481128,71.6278154 C29.5614205,75.6125846 26.7037026,82.7152769 27.7536,89.7619949 C27.7536,89.7619949 39.5944462,89.533559 53.4428051,89.2688154 L60.1113179,75.0180462 L69.0747795,70.6671744 Z" id="Fill-6" fill="#85F9E3"></path>
                <path d="M55.0465462,87.1209128 L94.9925718,88.4658103 C94.9925718,88.4658103 92.6477,75.5221179 77.1533923,75.5221179 C61.6590846,75.5221179 58.7151359,74.1288103 55.0465462,87.1209128" id="Fill-8" fill="#F8C934"></path>
                <path d="M60.1111667,54.2709231 C60.1111667,65.2464359 54.3427821,70.4429744 43.3672692,70.4429744 C32.3917564,70.4429744 26.9365256,64.5702051 26.9365256,53.5946923 C26.9365256,42.6191795 32.3917564,33.7207692 43.3672692,33.7207692 C54.3427821,33.7207692 60.1111667,43.2954103 60.1111667,54.2709231" id="Fill-10" fill="#E0AC7E"></path>
                <path d="M87.8588667,67.5227769 C87.0631231,75.8720333 82.0798923,78.6828538 73.7306359,77.8871103 C65.3798667,77.0913667 61.8761744,72.9538026 62.6704051,64.6045462 C63.4661487,56.2537769 68.2617897,49.8817769 76.6110462,50.6760077 C84.9603026,51.4717513 88.6546103,59.1735205 87.8588667,67.5227769" id="Fill-12" fill="#E0AC7E"></path>
                <path d="M43.3672692,32.2085538 C32.3675513,32.2085538 28.4493462,41.6939385 28.4493462,50.5696564 C28.4493462,59.4453744 32.3675513,68.9292462 43.3672692,68.9292462 C54.5969359,68.9292462 58.5983462,59.7948359 58.5983462,51.2443744 C58.5983462,41.7695795 53.8889359,32.2085538 43.3672692,32.2085538 M43.3672692,71.9548872 C32.4658846,71.9548872 25.4237051,63.561759 25.4237051,50.5696564 C25.4237051,37.5775538 32.4658846,29.1829128 43.3672692,29.1829128 C52.4547821,29.1829128 61.6239872,36.0042205 61.6239872,51.2443744 C61.6239872,63.8265026 54.4577564,71.9548872 43.3672692,71.9548872" id="Fill-16" fill="#4F4F4F"></path>
                <path d="M75.2237897,49.0961692 C67.9955333,49.0961692 64.7717128,55.4878359 64.1771744,61.7221692 C63.7974564,65.7008872 64.4479692,69.1743231 66.0560974,71.7672974 C67.7489436,74.4964256 70.3797385,76.0485795 73.872841,76.3814 C82.1676359,77.1877333 85.7499949,70.6856308 86.3520974,64.3529641 C87.0222769,57.3213744 84.2265846,49.8964513 76.4673282,49.1566821 C76.0407128,49.1158359 75.6262,49.0961692 75.2237897,49.0961692 M75.2207641,79.4720923 C74.6852256,79.4720923 74.1406103,79.4463744 73.5869179,79.3934256 C69.1649436,78.9713487 65.671841,76.8866821 63.4858154,73.3633231 C61.5252,70.203041 60.7234051,66.0790923 61.1651487,61.4347333 C62.1273026,51.3366564 68.2300205,45.3322718 76.7547641,46.1446564 C81.1722,46.5652205 84.7000974,48.7482205 86.9557128,52.4546308 C88.9465846,55.7238359 89.802841,60.0520154 89.3656359,64.6404 C88.9269179,69.2378615 87.3142513,73.0592462 84.7000974,75.6885282 C82.2220974,78.1801436 78.9710462,79.4720923 75.2207641,79.4720923" id="Fill-20" fill="#4F4F4F"></path>
                <path d="M55.1035795,89.9793872 L26.4265538,89.9793872 L26.1966051,88.7419 C24.7518615,80.9357462 26.9076308,72.6227974 31.9680154,66.5034385 L34.2992718,68.4322846 C30.0709385,73.5471308 28.1239385,80.3865923 28.9771692,86.9537462 L55.1035795,86.9537462 L55.1035795,89.9793872 Z" id="Fill-22" fill="#4F4F4F"></path>
                <path d="M55.1115974,67.5049256 L55.0949564,64.4792846 C57.8679564,64.4641564 60.6772641,64.3718744 63.4427,64.2054641 L63.6257513,67.2250538 C60.804341,67.3960026 57.939059,67.4897974 55.1115974,67.5049256" id="Fill-30" fill="#4F4F4F"></path>
                <path d="M96.3271821,89.9793872 L53.7685154,89.9793872 L53.6021051,88.6541564 C53.3237462,86.4182077 53.9182846,83.5347718 55.2798231,80.5378744 C57.2086692,76.2853359 60.1843872,72.7075154 63.0466436,71.1977205 L64.4581051,73.8739 C62.2312333,75.0478487 59.6488487,78.2293103 58.0346692,81.7874641 C57.1890026,83.651259 56.6837205,85.4621051 56.5808487,86.9537462 L93.5178744,86.9537462 C93.2077462,82.5000026 89.3137462,75.8133359 85.6375923,73.8739 L87.0505667,71.1977205 C92.2486179,73.9404641 97.1910026,83.0779 96.4920795,88.6541564 L96.3271821,89.9793872 Z" id="Fill-32" fill="#4F4F4F"></path>
                <polygon id="Fill-34" fill="#4F4F4F" points="35.0762564 88.7602051 38.1018974 88.7602051 38.1018974 80.2082308 35.0762564 80.2082308"></polygon>
            </g>
        </g>
    </g>
</svg>