<?xml version="1.0" encoding="UTF-8" standalone="no"?>
<svg width="56px" height="56px" viewBox="0 0 56 56" version="1.1" xmlns="http://www.w3.org/2000/svg" xmlns:xlink="http://www.w3.org/1999/xlink">
    <!-- Generator: sketchtool 3.8.3 (29802) - http://www.bohemiancoding.com/sketch -->
    <title>pinterest</title>
    <desc>Created with sketchtool.</desc>
    <defs>
        <filter x="-50%" y="-50%" width="200%" height="200%" filterUnits="objectBoundingBox" id="filter-1">
            <feOffset dx="0" dy="2" in="SourceAlpha" result="shadowOffsetOuter1"></feOffset>
            <feGaussianBlur stdDeviation="2" in="shadowOffsetOuter1" result="shadowBlurOuter1"></feGaussianBlur>
            <feColorMatrix values="0 0 0 0 0   0 0 0 0 0   0 0 0 0 0  0 0 0 0.5 0" type="matrix" in="shadowBlurOuter1" result="shadowMatrixOuter1"></feColorMatrix>
            <feMerge>
                <feMergeNode in="shadowMatrixOuter1"></feMergeNode>
                <feMergeNode in="SourceGraphic"></feMergeNode>
            </feMerge>
        </filter>
        <polygon id="path-2" points="47.9996 48 0 48 0 0.0002 47.9996 0.0002"></polygon>
    </defs>
    <g id="Welcome" stroke="none" stroke-width="1" fill="none" fill-rule="evenodd">
        <g id="Home_Des_1" transform="translate(-526.000000, -3093.000000)">
            <g id="pinterest" filter="url(#filter-1)" transform="translate(529.757812, 3094.731308)">
                <mask id="mask-3" fill="white">
                    <use xlink:href="#path-2"></use>
                </mask>
                <g id="Clip-2"></g>
                <path d="M26.3926,30.6802 C24.4696,30.6802 22.6606,29.6762 22.0416,28.5342 C22.0416,28.5342 21.0076,32.5022 20.7896,33.2702 C20.0186,35.9772 17.7506,38.6882 17.5746,38.9092 C17.4516,39.0632 17.1786,39.0142 17.1506,38.8092 C17.1026,38.4652 16.5256,35.0492 17.2056,32.2622 C17.5466,30.8622 19.4966,22.8732 19.4966,22.8732 C19.4966,22.8732 18.9266,21.7722 18.9266,20.1452 C18.9266,17.5922 20.4566,15.6862 22.3616,15.6862 C23.9806,15.6862 24.7636,16.8622 24.7636,18.2722 C24.7636,19.8482 23.7266,22.2032 23.1896,24.3872 C22.7436,26.2152 24.1386,27.7052 26.0036,27.7052 C29.3736,27.7052 31.6466,23.5122 31.6466,18.5432 C31.6466,14.7682 29.0186,11.9402 24.2376,11.9402 C18.8386,11.9402 15.4696,15.8382 15.4696,20.1942 C15.4696,21.6942 15.9276,22.7542 16.6466,23.5732 C16.9756,23.9502 17.0196,24.1002 16.9026,24.5322 C16.8136,24.8522 16.6206,25.6142 16.5376,25.9162 C16.4206,26.3542 16.0546,26.5082 15.6446,26.3482 C13.1606,25.3642 11.9996,22.7272 11.9996,19.7642 C11.9996,14.8692 16.2666,9.0002 24.7256,9.0002 C31.5256,9.0002 35.9996,13.7602 35.9996,18.8712 C35.9996,25.6312 32.1166,30.6802 26.3926,30.6802 M24.0006,0.0002 C10.7456,0.0002 -0.0004,10.7442 -0.0004,24.0002 C-0.0004,37.2542 10.7456,48.0002 24.0006,48.0002 C37.2546,48.0002 47.9996,37.2542 47.9996,24.0002 C47.9996,10.7442 37.2546,0.0002 24.0006,0.0002" id="Fill-1" fill="#FFFFFF" mask="url(#mask-3)"></path>
            </g>
        </g>
    </g>
</svg>