<?xml version="1.0" encoding="UTF-8" standalone="no"?>
<svg  viewBox="0 0 124 125" version="1.1" xmlns="http://www.w3.org/2000/svg" xmlns:xlink="http://www.w3.org/1999/xlink">
    <!-- Generator: sketchtool 3.8.3 (29802) - http://www.bohemiancoding.com/sketch -->
    <title>recalls</title>
    <desc>Created with sketchtool.</desc>
    <defs>
        <filter x="-50%" y="-50%" width="200%" height="200%" filterUnits="objectBoundingBox" id="filter-1">
            <feOffset dx="0" dy="2" in="SourceAlpha" result="shadowOffsetOuter1"></feOffset>
            <feGaussianBlur stdDeviation="2" in="shadowOffsetOuter1" result="shadowBlurOuter1"></feGaussianBlur>
            <feColorMatrix values="0 0 0 0 0   0 0 0 0 0   0 0 0 0 0  0 0 0 0.208559783 0" type="matrix" in="shadowBlurOuter1" result="shadowMatrixOuter1"></feColorMatrix>
            <feMerge>
                <feMergeNode in="shadowMatrixOuter1"></feMergeNode>
                <feMergeNode in="SourceGraphic"></feMergeNode>
            </feMerge>
        </filter>
        <path d="M10.734531,0.713455672 C9.71711192,0.73306439 9.15782891,1.64109888 9.32591131,2.59136753 C9.34078586,2.67734422 9.35417295,2.76332091 9.3690475,2.8492976 C10.2466458,6.97316188 12.4272546,10.5027312 15.3887771,13.1378412 C10.3983662,13.4968316 5.58496245,16.3431125 2.88374452,20.6328967 C1.18953348,23.3268329 0.456218261,26.1851807 0.435393894,29.0767124 L0.435393894,29.328609 C0.453243352,32.0134951 1.07946183,34.7255317 2.11324292,37.3621501 C3.86992706,41.841988 5.62809864,46.3203176 7.38478278,50.7986472 C9.19650274,55.411221 12.0806776,59.142911 16.7959094,60.435578 L23.8137212,60.435578 C23.8836316,60.4144609 23.9535419,60.3918355 24.0234523,60.36921 C26.6012115,59.5184933 28.5006913,58.0553813 31.3982533,58.7567701 C33.1698119,59.1851451 34.6572668,60.1414472 36.5031982,60.3812769 C36.6697931,60.402394 36.8363881,60.4204944 37.0044705,60.435578 L39.0616205,60.435578 C39.8008855,60.3722268 40.5342007,60.2425076 41.2556163,60.0494371 C44.4134829,59.2047538 47.2634463,57.1579053 49.0543419,54.3840259 C49.4946285,53.7022458 49.8129438,53.0023654 50.1357215,52.2587425 C50.3945387,51.6659559 50.2963667,51.8198089 50.2428183,51.9751703 C50.4257752,51.4472432 50.5998074,50.9147911 50.778302,50.3868641 C52.4710256,45.3640155 54.1607743,40.3426753 55.8534978,35.3198267 C56.2075121,34.2684977 56.4752539,33.2066102 56.655236,32.1447227 L56.655236,25.8533408 C56.0528168,22.483658 54.4448781,19.3326878 51.7570473,16.7518788 C49.1926752,14.4229665 45.9827477,12.9809715 42.5616016,12.6068975 C40.7305448,12.4077936 38.8652764,12.5179041 37.0669436,12.9266704 C35.1481268,13.3671124 33.9730375,14.0549259 32.623916,14.6386624 C33.3096327,11.7471306 34.6944531,9.0320773 37.8880186,8.80129777 C39.6283407,8.67308692 41.512946,8.80129777 41.9115839,6.6141715 C42.1585014,5.26871176 41.7896126,3.68342231 40.4687527,3.14041165 C37.4402947,1.89299549 33.5625,4.26715876 31.4146153,6.13300372 C29.9881461,7.37287806 28.9112288,8.94006716 28.2433616,10.6701595 C24.7984163,4.63067423 18.1673427,0.710438946 11.1063947,0.710438946 C10.9814485,0.710438946 10.8594772,0.710438946 10.734531,0.713455672 L10.734531,0.713455672 Z M26.4643657,14.8377663 C25.0512836,14.5496689 23.6367141,14.2615716 22.2221445,13.9734743 C17.7776296,12.1619304 14.1988133,8.52526735 12.6473979,3.75582373 C19.1312134,4.37425253 24.8103159,8.72135453 26.9477885,14.9373182 C26.7930932,14.9056426 26.632448,14.8709502 26.4643657,14.8377663 L26.4643657,14.8377663 Z M38.994685,5.44971531 C39.060133,5.4663073 39.0571581,5.52965855 39.0229466,5.60809342 C39.0140219,5.55530072 39.0050972,5.50250801 38.994685,5.44971531 L38.994685,5.44971531 Z M38.3491296,5.85546494 C38.4696134,5.81323078 38.6763697,5.86904021 38.847427,5.8856322 C38.6838069,5.98518416 38.3089683,6.01233469 37.8776064,6.01836814 C38.0323017,5.9670838 38.1884845,5.91278273 38.3491296,5.85546494 L38.3491296,5.85546494 Z M38.2063339,15.7156335 C42.2492361,14.9297764 46.6059913,16.0504901 49.6894851,18.8485033 C54.0045915,22.9949931 54.9892866,28.7222471 53.1121186,34.3001733 C51.8061333,38.1811912 50.4971731,42.0607006 49.1911877,45.9417185 C48.0443601,49.3415686 47.4865645,52.4125955 44.9549164,54.7309494 C42.5065658,56.96936 38.9931975,58.091582 35.7594708,57.2318151 C34.1768189,56.8109819 32.8410844,55.9602652 31.191497,55.7128936 C29.4065513,55.444405 27.5621073,55.6284253 25.8678963,56.2619377 C24.1052623,56.9241091 22.7799401,57.8698526 20.8313743,57.9513042 C18.8218228,58.0342642 16.7988843,57.5530964 15.0600496,56.5259013 C13.0356236,55.3267527 11.6121294,53.5227506 10.7330436,51.3567415 C9.19204037,47.5526501 7.73433466,43.7108497 6.23349275,39.8901664 C4.77578704,36.1720517 2.94621762,32.520305 3.29428204,28.3979491 C3.90562597,21.1593154 10.5753733,15.1952483 17.8341528,16.0987577 C18.9512314,16.2375271 20.0623601,16.469815 21.170514,16.7322701 C23.1324669,17.5301941 25.2312656,18.0264455 27.3865876,18.1712484 C27.9875194,18.273817 28.5899386,18.3628105 29.1968201,18.4125864 C29.36639,18.4276701 29.5329849,18.4352119 29.6995799,18.4352119 C32.6655648,18.4352119 35.3429834,16.2737278 38.2063339,15.7156335 L38.2063339,15.7156335 Z" id="path-2"></path>
    </defs>
    <g id="Welcome" stroke="none" stroke-width="1" fill="none" fill-rule="evenodd">
        <g id="Home_Des_1" transform="translate(-640.000000, -893.000000)">
            <g id="recalls" filter="url(#filter-1)" transform="translate(644.000000, 895.869811)">
                <g id="Group-7" transform="translate(0.000000, -0.000000)">
                    <path d="M116.021475,58.8261547 C116.021475,91.3147842 90.0490269,117.652309 58.0107377,117.652309 C25.9724485,117.652309 0,91.3147842 0,58.8261547 C0,26.3375253 25.9724485,0 58.0107377,0 C90.0490269,0 116.021475,26.3375253 116.021475,58.8261547" id="Fill-1" fill="#FFFFFF"></path>
                    <path d="M41.9093368,31.1742419 C48.3931524,31.7911624 54.0707674,36.1397728 56.2097274,42.3557364 C56.0535446,42.3225525 55.894387,42.2893685 55.7263046,42.2561845 C54.3117351,41.9680872 52.898653,41.6799898 51.4840835,41.3918925 C47.0395685,39.5788403 43.4607522,35.9421772 41.9093368,31.1742419" id="Fill-3" fill="#5ECCC4"></path>
                    <path d="M82.3737601,61.7179882 C81.0677747,65.599006 79.7588145,69.4785155 78.4528292,73.3595334 C77.3060015,76.7608918 76.748206,79.8304104 74.2165579,82.1487642 C71.7682072,84.3871748 68.254839,85.5093969 65.0211122,84.64963 C63.4384603,84.2287967 62.1027259,83.37808 60.4531385,83.1307085 C58.6667053,82.8637283 56.8252362,83.0462402 55.1295377,83.681261 C53.3669038,84.3404156 52.0400941,85.2876675 50.0930157,85.3691191 C48.0834643,85.4520791 46.0605257,84.9724197 44.321691,83.9437161 C42.2957776,82.7445676 40.8737708,80.9420739 39.9961724,78.7745563 C38.4536818,74.970465 36.9944886,71.1286646 35.4951342,67.3079812 C34.0374285,63.5898666 32.2078591,59.9381199 32.5559235,55.815764 C33.1672674,48.5771302 39.8370148,42.6145715 47.0957943,43.5165726 C48.2128728,43.6553419 49.3240016,43.8876298 50.4321554,44.150085 C52.3941083,44.948009 54.4929071,45.4442604 56.6482291,45.5890632 C57.2506483,45.6916319 57.8530675,45.7806253 58.4584616,45.8319097 C61.6282278,46.1003983 64.4439797,43.7217099 67.4679754,43.1334484 C71.5108776,42.3475913 75.8676327,43.4698133 78.952614,46.2678266 C83.2677204,50.4128079 84.2494406,56.140062 82.3737601,61.7179882" id="Fill-5" fill="#EC4F4F"></path>
                </g>
                <g id="Group-10" transform="translate(29.261641, 25.642170)">
                    <mask id="mask-3" fill="white">
                        <use xlink:href="#path-2"></use>
                    </mask>
                    <g id="Clip-9"></g>
                    <polygon id="Fill-8" fill="#4F4F4F" mask="url(#mask-3)" points="-9.99612671 67.704379 59.8830129 67.704379 59.8830129 -6.07719429 -9.99612671 -6.07719429"></polygon>
                </g>
            </g>
        </g>
    </g>
</svg>