<?xml version="1.0" encoding="UTF-8" standalone="no"?>
<svg width="126px" height="126px" viewBox="0 0 126 126" version="1.1" xmlns="http://www.w3.org/2000/svg" xmlns:xlink="http://www.w3.org/1999/xlink">
    <!-- Generator: sketchtool 3.8.3 (29802) - http://www.bohemiancoding.com/sketch -->
    <title>schooladmin</title>
    <desc>Created with sketchtool.</desc>
    <defs>
        <filter x="-50%" y="-50%" width="200%" height="200%" filterUnits="objectBoundingBox" id="filter-1">
            <feOffset dx="0" dy="2" in="SourceAlpha" result="shadowOffsetOuter1"></feOffset>
            <feGaussianBlur stdDeviation="2" in="shadowOffsetOuter1" result="shadowBlurOuter1"></feGaussianBlur>
            <feColorMatrix values="0 0 0 0 0   0 0 0 0 0   0 0 0 0 0  0 0 0 0.21 0" type="matrix" in="shadowBlurOuter1" result="shadowMatrixOuter1"></feColorMatrix>
            <feMerge>
                <feMergeNode in="shadowMatrixOuter1"></feMergeNode>
                <feMergeNode in="SourceGraphic"></feMergeNode>
            </feMerge>
        </filter>
        <polygon id="path-2" points="59.9988654 118 118.998487 118 118.998487 0 59.9988654 0 0.99924359 0 0.99924359 118 59.9988654 118"></polygon>
    </defs>
    <g id="Welcome" stroke="none" stroke-width="1" fill="none" fill-rule="evenodd">
        <g id="Home_Des_1" transform="translate(-640.000000, -2125.000000)">
            <g id="schooladmin" filter="url(#filter-1)" transform="translate(643.000000, 2127.232589)">
                <g id="Group-3">
                    <mask id="mask-3" fill="white">
                        <use xlink:href="#path-2"></use>
                    </mask>
                    <g id="Clip-2"></g>
                    <path d="M118.999244,59 C118.999244,91.584641 92.5838846,118 59.9992436,118 C27.4146026,118 0.99924359,91.584641 0.99924359,59 C0.99924359,26.415359 27.4146026,0 59.9992436,0 C92.5838846,0 118.999244,26.415359 118.999244,59" id="Fill-1" fill="#FFFFFF" mask="url(#mask-3)"></path>
                </g>
                <path d="M50.0833103,58.0894333 C50.0833103,58.0894333 35.1941308,61.8669462 34.8129,79.0314077 L85.1852846,79.0314077 C85.1852846,79.0314077 84.2942333,60.393459 70.4383103,58.1499462 C70.3051821,58.1272538 70.170541,58.1075872 70.0343872,58.0894333 C55.7926949,56.145459 50.0833103,58.0894333 50.0833103,58.0894333" id="Fill-48" fill="#FFFFFF"></path>
                <path d="M36.4036308,77.5191923 L83.5113487,77.5191923 C82.9274,73.172859 80.4055282,61.2957051 70.1955026,59.6437051 L69.8309128,59.5877308 C56.2518359,57.7360385 50.6180923,59.5060385 50.5621179,59.5241923 L50.4592462,59.5544487 C49.9161436,59.695141 37.5503487,63.0672179 36.4036308,77.5191923 L36.4036308,77.5191923 Z M86.7729897,80.5448333 L33.2675538,80.5448333 L33.3008359,78.9987308 C33.6896308,61.4923718 48.5198103,56.9584487 49.6453487,56.6407564 C50.2867846,56.4380385 56.335041,54.6937564 70.2393744,56.5908333 L70.6780923,56.6558846 C85.5763487,59.0688333 86.6595282,78.1485256 86.6973487,78.9593974 L86.7729897,80.5448333 Z" id="Fill-49" fill="#4F4F4F"></path>
                <path d="M50.0833103,62.6667744 C50.0833103,62.6667744 35.1941308,61.8664923 34.8129,79.0324667 L85.1852846,79.0324667 C85.1852846,79.0324667 84.2942333,64.9708 70.4383103,62.7272872 C70.3051821,62.7045949 70.170541,62.6849282 70.0343872,62.6667744 C55.7926949,60.7228 50.0833103,62.6667744 50.0833103,62.6667744" id="Fill-50" fill="#76A0FF"></path>
                <path d="M76.7175744,40.9677846 C76.7175744,52.0370923 70.9007795,60.3288615 59.829959,60.3288615 C48.7606513,60.3288615 43.2585231,51.3563231 43.2585231,40.2855026 C43.2585231,29.2161949 48.7606513,20.2421436 59.829959,20.2421436 C70.9007795,20.2421436 76.7175744,29.8984769 76.7175744,40.9677846" id="Fill-51" fill="#FFFFFF"></path>
                <path d="M59.8302615,21.7554179 C48.7276718,21.7554179 44.7716462,31.3285462 44.7716462,40.2859564 C44.7716462,49.2433667 48.7276718,58.8164949 59.8302615,58.8164949 C71.1658256,58.8164949 75.2050564,49.5958538 75.2050564,40.9682385 C75.2050564,31.4041872 70.4517744,21.7554179 59.8302615,21.7554179 M59.8302615,61.8421359 C48.844159,61.8421359 41.7460051,53.3809308 41.7460051,40.2859564 C41.7460051,27.1909821 48.844159,18.7297769 59.8302615,18.7297769 C68.9903897,18.7297769 78.2306974,25.6055462 78.2306974,40.9682385 C78.2306974,53.6487 71.0084923,61.8421359 59.8302615,61.8421359" id="Fill-52" fill="#4F4F4F"></path>
                <path d="M36.4036308,77.5191923 L83.5113487,77.5191923 C82.9274,73.172859 80.4055282,61.2957051 70.1955026,59.6437051 L69.8309128,59.5877308 C56.2518359,57.7360385 50.6180923,59.5060385 50.5621179,59.5241923 L50.4592462,59.5544487 C49.9161436,59.695141 37.5503487,63.0672179 36.4036308,77.5191923 L36.4036308,77.5191923 Z M86.7729897,80.5448333 L33.2675538,80.5448333 L33.3008359,78.9987308 C33.6896308,61.4923718 48.5198103,56.9584487 49.6453487,56.6407564 C50.2867846,56.4380385 56.335041,54.6937564 70.2393744,56.5908333 L70.6780923,56.6558846 C85.5763487,59.0688333 86.6595282,78.1485256 86.6973487,78.9593974 L86.7729897,80.5448333 Z" id="Fill-53" fill="#4F4F4F"></path>
                <path d="M76.7175744,44.0192949 C76.7175744,55.0886026 70.9007795,60.3290128 59.829959,60.3290128 C48.7606513,60.3290128 43.2585231,54.4078333 43.2585231,43.3370128 C43.2585231,32.2677051 48.7606513,23.2936538 59.829959,23.2936538 C70.9007795,23.2936538 76.7175744,32.9499872 76.7175744,44.0192949" id="Fill-54" fill="#9B796F"></path>
                <path d="M59.8302615,21.7554179 C48.7276718,21.7554179 44.7716462,31.3285462 44.7716462,40.2859564 C44.7716462,49.2433667 48.7276718,58.8164949 59.8302615,58.8164949 C71.1658256,58.8164949 75.2050564,49.5958538 75.2050564,40.9682385 C75.2050564,31.4041872 70.4517744,21.7554179 59.8302615,21.7554179 M59.8302615,61.8421359 C48.844159,61.8421359 41.7460051,53.3809308 41.7460051,40.2859564 C41.7460051,27.1909821 48.844159,18.7297769 59.8302615,18.7297769 C68.9903897,18.7297769 78.2306974,25.6055462 78.2306974,40.9682385 C78.2306974,53.6487 71.0084923,61.8421359 59.8302615,61.8421359" id="Fill-55" fill="#4F4F4F"></path>
                <polygon id="Fill-56" fill="#FFFFFF" points="55.7430744 62.2080872 60.3344846 66.7994974 64.7821769 62.2080872"></polygon>
                <polygon id="Fill-57" fill="#FFFFFF" points="60.2865282 70.2457026 56.2684769 93.9667282 60.9567077 102.098138 64.7826308 93.7761128"></polygon>
                <polygon id="Fill-61" fill="#ED4F35" points="55.7430744 62.8527 60.3344846 67.4441103 64.7821769 62.8527"></polygon>
                <polygon id="Fill-62" fill="#ED4F35" points="60.2865282 72.4424692 56.2684769 96.1634949 60.9567077 104.294905 64.7826308 95.9728795"></polygon>
                <path d="M64.7821769,65.2337282 L64.789741,65.2337282 L64.7821769,65.2337282 Z M64.789741,59.1824462 L64.7821769,59.1824462 L55.7430744,59.1824462 C54.5192026,59.1824462 53.4163564,59.9191897 52.9473821,61.0507795 C52.4799205,62.1808564 52.7386128,63.4818821 53.6039462,64.3472154 L58.1953564,68.9386256 C58.7626641,69.5059333 59.5326897,69.8251385 60.3344846,69.8251385 L60.3586897,69.8251385 C61.1695615,69.8190872 61.9441256,69.4862667 62.5068949,68.9053436 L66.8940744,64.375959 C67.4598692,63.8268051 67.8123564,63.0582923 67.8123564,62.2080872 C67.8123564,60.5364205 66.4614077,59.1824462 64.789741,59.1824462 L64.789741,59.1824462 Z M64.7821769,62.2080872 L60.3344846,66.7994974 L55.7430744,62.2080872 L64.7821769,62.2080872 L64.7821769,62.2080872 Z M64.7821769,62.2080872 L64.789741,62.2080872 L64.7821769,62.2080872 Z" id="Fill-63" fill="#4F4F4F"></path>
                <path d="M60.2869821,67.2200615 L60.2552128,67.2200615 C58.7908026,67.2351897 57.5472641,68.2971897 57.3037,69.7404205 L53.2856487,93.4614462 C53.1691615,94.1558308 53.2962385,94.8683692 53.6472128,95.4780359 L58.3354436,103.609446 C58.8770333,104.548908 59.8785205,105.123779 60.9556487,105.123779 C61.0025462,105.123779 61.0479308,105.122267 61.0948282,105.120754 C62.2249051,105.067805 63.2324436,104.390062 63.7044436,103.361344 L67.5318795,95.0393179 C67.7951103,94.4674718 67.8722641,93.8275487 67.7542641,93.2088051 L63.2581615,69.6783949 C62.9858538,68.2502923 61.7377769,67.2200615 60.2869821,67.2200615 M60.2869821,70.2457026 L64.7815718,93.7761128 L60.9556487,102.098138 L56.2689308,93.9667282 L60.2869821,70.2457026" id="Fill-64" fill="#4F4F4F"></path>
            </g>
        </g>
    </g>
</svg>