<?xml version="1.0" encoding="UTF-8" standalone="no"?>
<svg width="126px" height="125px" viewBox="0 0 126 125" version="1.1" xmlns="http://www.w3.org/2000/svg" xmlns:xlink="http://www.w3.org/1999/xlink">
    <!-- Generator: sketchtool 3.8.3 (29802) - http://www.bohemiancoding.com/sketch -->
    <title>teachers</title>
    <desc>Created with sketchtool.</desc>
    <defs>
        <filter x="-50%" y="-50%" width="200%" height="200%" filterUnits="objectBoundingBox" id="filter-1">
            <feOffset dx="0" dy="2" in="SourceAlpha" result="shadowOffsetOuter1"></feOffset>
            <feGaussianBlur stdDeviation="2" in="shadowOffsetOuter1" result="shadowBlurOuter1"></feGaussianBlur>
            <feColorMatrix values="0 0 0 0 0   0 0 0 0 0   0 0 0 0 0  0 0 0 0.21 0" type="matrix" in="shadowBlurOuter1" result="shadowMatrixOuter1"></feColorMatrix>
            <feMerge>
                <feMergeNode in="shadowMatrixOuter1"></feMergeNode>
                <feMergeNode in="SourceGraphic"></feMergeNode>
            </feMerge>
        </filter>
    </defs>
    <g id="Welcome" stroke="none" stroke-width="1" fill="none" fill-rule="evenodd">
        <g id="Home_Des_1" transform="translate(-640.000000, -1953.000000)">
            <g id="teachers" filter="url(#filter-1)" transform="translate(644.000000, 1955.511445)">
                <path d="M117.291403,58.2531646 C117.291403,90.4253418 91.2104152,116.506329 59.038238,116.506329 C26.8660608,116.506329 0.785073418,90.4253418 0.785073418,58.2531646 C0.785073418,26.0809873 26.8660608,2.27373675e-13 59.038238,2.27373675e-13 C91.2104152,2.27373675e-13 117.291403,26.0809873 117.291403,58.2531646" id="Fill-14" fill="#FFFFFF"></path>
                <path d="M82.031957,77.8888127 L34.8468937,77.8888127 C30.374843,77.8888127 26.7482101,74.2636734 26.7482101,69.7901291 L26.7482101,50.4157241 C26.7482101,45.9436734 30.374843,42.3185342 34.8468937,42.3185342 L82.031957,42.3185342 C86.5040076,42.3185342 90.1306405,45.9436734 90.1306405,50.4157241 L90.1306405,69.7901291 C90.1306405,74.2636734 86.5040076,77.8888127 82.031957,77.8888127" id="Fill-18" fill="#00C17B"></path>
                <path d="M34.8467443,39.0116962 C31.2051747,39.0116962 28.2417316,41.9736456 28.2417316,45.6167089 L28.2417316,69.7902785 C28.2417316,73.4318481 31.2051747,76.3952911 34.8467443,76.3952911 L82.0318076,76.3952911 C85.6748709,76.3952911 88.6368203,73.4318481 88.6368203,69.7902785 L88.6368203,45.6167089 C88.6368203,41.9736456 85.6748709,39.0116962 82.0318076,39.0116962 L34.8467443,39.0116962 Z M82.0318076,79.3826329 L34.8467443,79.3826329 C29.5576557,79.3826329 25.2543899,75.0793671 25.2543899,69.7902785 L25.2543899,45.6167089 C25.2543899,40.3276203 29.5576557,36.0243544 34.8467443,36.0243544 L82.0318076,36.0243544 C87.3208962,36.0243544 91.624162,40.3276203 91.624162,45.6167089 L91.624162,69.7902785 C91.624162,75.0793671 87.3208962,79.3826329 82.0318076,79.3826329 L82.0318076,79.3826329 Z" id="Fill-24" fill="#4F4F4F"></path>
                <path d="M51.9960278,70.7465266 C51.9960278,70.7465266 40.8009646,73.5874886 40.5141797,86.4928051 L78.3891924,86.4928051 C78.3891924,86.4928051 77.7185342,72.4791848 67.3001797,70.7913367 C67.2001038,70.7749063 67.0985342,70.7599696 66.9969646,70.7465266 C56.288838,69.2842228 51.9960278,70.7465266 51.9960278,70.7465266" id="Fill-26" fill="#FFFFFF"></path>
                <path d="M42.1000101,84.9989848 L76.7188203,84.9989848 C76.1930481,81.530681 74.2094532,73.4230354 67.062238,72.2669342 L66.7963646,72.2266051 C56.7021367,70.8494405 52.5079089,72.1519215 52.4660861,72.1638709 L52.3689975,72.1922506 C51.9746684,72.2953139 43.1291494,74.7225291 42.1000101,84.9989848 L42.1000101,84.9989848 Z M79.9556051,87.9863266 L38.9872,87.9863266 L39.0215544,86.4597949 C39.3187949,73.1138456 50.5840608,69.5962506 51.5624152,69.3169342 C52.098643,69.1466557 56.7260354,67.8367063 67.1996557,69.2661494 L67.5357316,69.3169342 C79.0220608,71.1780481 79.8495544,85.7995924 79.8809215,86.4209595 L79.9556051,87.9863266 Z" id="Fill-28" fill="#4F4F4F"></path>
                <path d="M51.9960278,74.1880937 C51.9960278,74.1880937 40.8009646,73.5861443 40.5141797,86.4929544 L78.3891924,86.4929544 C78.3891924,86.4929544 77.7185342,75.9207519 67.3001797,74.2329038 C67.2001038,74.2164734 67.0985342,74.2015367 66.9969646,74.1880937 C56.288838,72.7257899 51.9960278,74.1880937 51.9960278,74.1880937" id="Fill-36" fill="#FC92FF"></path>
                <path d="M72.0216734,57.8731747 C72.0216734,66.1959089 67.6482051,72.4304911 59.3239772,72.4304911 C51.001243,72.4304911 46.8652684,65.6835797 46.8652684,57.3608456 C46.8652684,49.0366177 51.001243,42.2897063 59.3239772,42.2897063 C67.6482051,42.2897063 72.0216734,49.5504405 72.0216734,57.8731747" id="Fill-37" fill="#FFFFFF"></path>
                <path d="M59.3245747,43.7836759 C51.2393342,43.7836759 48.358043,50.7964608 48.358043,57.3596506 C48.358043,63.9243342 51.2393342,70.937119 59.3245747,70.937119 C67.5845747,70.937119 70.5271063,64.1887139 70.5271063,57.8734734 C70.5271063,50.8591949 67.0632835,43.7836759 59.3245747,43.7836759 M59.3245747,73.9244608 C50.8479924,73.9244608 45.3707013,67.4225114 45.3707013,57.3596506 C45.3707013,47.2982835 50.8479924,40.7963342 59.3245747,40.7963342 C67.6801696,40.7963342 73.5144481,47.818081 73.5144481,57.8734734 C73.5144481,67.624157 67.9445494,73.9244608 59.3245747,73.9244608" id="Fill-38" fill="#4F4F4F"></path>
                <path d="M42.1000101,84.9989848 L76.7188203,84.9989848 C76.1930481,81.530681 74.2094532,73.4230354 67.062238,72.2669342 L66.7963646,72.2266051 C56.7021367,70.8494405 52.5079089,72.1519215 52.4660861,72.1638709 L52.3689975,72.1922506 C51.9746684,72.2953139 43.1291494,74.7225291 42.1000101,84.9989848 L42.1000101,84.9989848 Z M79.9556051,87.9863266 L38.9872,87.9863266 L39.0215544,86.4597949 C39.3187949,73.1138456 50.5840608,69.5962506 51.5624152,69.3169342 C52.098643,69.1466557 56.7260354,67.8367063 67.1996557,69.2661494 L67.5357316,69.3169342 C79.0220608,71.1780481 79.8495544,85.7995924 79.8809215,86.4209595 L79.9556051,87.9863266 Z" id="Fill-39" fill="#4F4F4F"></path>
                <path d="M33.0540405,54.0592354 C32.8673316,54.0592354 32.7075089,53.9203241 32.6836101,53.7306278 C32.5850278,52.8926785 32.5790532,52.0397924 32.6686734,51.1943747 C32.6895848,50.9882481 32.8673316,50.829919 33.0794329,50.8627797 C33.2840658,50.8851848 33.4319392,51.0689063 33.4110278,51.2735392 C33.3273823,52.0636911 33.333357,52.8598177 33.4259646,53.6410076 C33.4498633,53.8456405 33.3034835,54.0323494 33.0988506,54.0562481 C33.0839139,54.0592354 33.0689772,54.0592354 33.0540405,54.0592354" id="Fill-40" fill="#FFFFFF"></path>
                <path d="M36.3601316,54.0592354 C36.1734228,54.0592354 36.0121063,53.9203241 35.9897013,53.7291342 C35.891119,52.8881975 35.8851443,52.0353114 35.9747646,51.1943747 C35.9971696,50.9882481 36.1928405,50.8463494 36.3855241,50.8627797 C36.590157,50.8851848 36.7395241,51.0689063 36.717119,51.2735392 C36.6334734,52.0592101 36.6394481,52.8553367 36.7320557,53.6425013 C36.7559544,53.8471342 36.6095747,54.0323494 36.4049418,54.0562481 C36.3900051,54.0592354 36.3750684,54.0592354 36.3601316,54.0592354" id="Fill-41" fill="#FFFFFF"></path>
                <path d="M34.2552506,52.8317367 C34.0625671,52.8317367 33.8982633,52.6823696 33.8833266,52.4866987 C33.8683899,52.2805722 34.022238,52.1013316 34.2268709,52.0863949 L35.1634025,52.0146987 C35.3501114,51.9908 35.5487696,52.1506228 35.5637063,52.358243 C35.5801367,52.5628759 35.4262886,52.7421165 35.220162,52.7585468 L34.2851241,52.830243 C34.2746684,52.8317367 34.2657063,52.8317367 34.2552506,52.8317367" id="Fill-42" fill="#FFFFFF"></path>
                <path d="M34.7141063,53.434881 C34.5094734,53.434881 34.3436759,53.2705772 34.3406886,53.0659443 L34.3242582,51.6962481 C34.3212709,51.4901215 34.4870684,51.3213367 34.6917013,51.3183494 C34.9277013,51.3228304 35.0681063,51.4796658 35.0710937,51.6872861 L35.0875241,53.0569823 C35.0905114,53.2631089 34.9247139,53.4318937 34.7185873,53.434881 L34.7141063,53.434881 Z" id="Fill-43" fill="#FFFFFF"></path>
                <path d="M38.9158025,52.2096228 L38.8933975,52.2096228 L37.6924861,52.1364329 C37.4863595,52.1244835 37.3295241,51.9482304 37.3414734,51.7421038 C37.3534228,51.5344835 37.534157,51.3701797 37.7372962,51.3910911 L38.9382076,51.4627873 C39.1443342,51.4762304 39.3011696,51.6524835 39.2892203,51.8586101 C39.2772709,52.0572684 39.1114734,52.2096228 38.9158025,52.2096228" id="Fill-44" fill="#FFFFFF"></path>
                <path d="M38.867557,52.9784152 L37.6905443,52.9784152 C37.4844177,52.9784152 37.3171266,52.8111241 37.3171266,52.6049975 C37.3171266,52.3988709 37.4844177,52.2315797 37.6905443,52.2315797 L38.867557,52.2315797 C39.0736835,52.2315797 39.2409747,52.3988709 39.2409747,52.6049975 C39.2409747,52.8111241 39.0736835,52.9784152 38.867557,52.9784152" id="Fill-45" fill="#FFFFFF"></path>
                <path d="M72.0216734,60.1674532 C72.0216734,68.4901873 67.6482051,72.4304911 59.3239772,72.4304911 C51.001243,72.4304911 46.8652684,67.9778582 46.8652684,59.6551241 C46.8652684,51.3308962 51.001243,44.5839848 59.3239772,44.5839848 C67.6482051,44.5839848 72.0216734,51.844719 72.0216734,60.1674532" id="Fill-46" fill="#DBC0A5"></path>
                <path d="M59.3245747,43.7836759 C51.2393342,43.7836759 48.358043,50.7964608 48.358043,57.3596506 C48.358043,63.9243342 51.2393342,70.937119 59.3245747,70.937119 C67.5845747,70.937119 70.5271063,64.1887139 70.5271063,57.8734734 C70.5271063,50.8591949 67.0632835,43.7836759 59.3245747,43.7836759 M59.3245747,73.9244608 C50.8479924,73.9244608 45.3707013,67.4225114 45.3707013,57.3596506 C45.3707013,47.2982835 50.8479924,40.7963342 59.3245747,40.7963342 C67.6801696,40.7963342 73.5144481,47.818081 73.5144481,57.8734734 C73.5144481,67.624157 67.9445494,73.9244608 59.3245747,73.9244608" id="Fill-47" fill="#4F4F4F"></path>
                <path d="M83.0606481,73.4311013 C82.8993316,73.4311013 82.7514582,73.3265443 82.7036608,73.1637342 L82.4079139,72.1764177 C82.3481671,71.9777595 82.4616861,71.7701392 82.657357,71.7103924 C82.8619899,71.6521392 83.0651291,71.7641646 83.1233823,71.9598354 L83.4176354,72.9516329 C83.4773823,73.1502911 83.3638633,73.3579114 83.1666987,73.4161646 C83.1308506,73.4266203 83.0950025,73.4311013 83.0606481,73.4311013" id="Fill-58" fill="#FFFFFF"></path>
                <path d="M84.4464759,73.0189975 C84.2926278,73.0189975 84.1492354,72.9234025 84.0954633,72.7695544 L83.7100962,71.6806684 C83.6413873,71.4864911 83.7414633,71.2728962 83.9371342,71.2041873 C84.1283241,71.1324911 84.3449063,71.2370481 84.4136152,71.4312253 L84.7974886,72.5216051 C84.8661975,72.7157823 84.7661215,72.9293772 84.5704506,72.9980861 C84.5301215,73.0130228 84.4868051,73.0189975 84.4464759,73.0189975" id="Fill-59" fill="#FFFFFF"></path>
                <path d="M83.2897772,74.8079671 C82.5668405,74.8079671 81.8409165,74.5749544 81.2688405,74.1313342 C81.1060304,74.0043722 81.0776506,73.7713595 81.2046127,73.6070557 C81.330081,73.4427519 81.5645873,73.4143722 81.7273975,73.5413342 C82.401043,74.064119 83.3525114,74.2075114 84.1561063,73.9072835 C84.9537266,73.6070557 85.5750937,72.8706759 85.7408911,72.0327266 C85.7797266,71.8295873 85.9664354,71.6981443 86.1785367,71.7369797 C86.3801823,71.7773089 86.5116253,71.9729797 86.4727899,72.1746253 C86.2606886,73.2620177 85.4541063,74.2164734 84.4189924,74.6063215 C84.0590177,74.7422456 83.6751443,74.8079671 83.2897772,74.8079671" id="Fill-60" fill="#FFFFFF"></path>
            </g>
        </g>
    </g>
</svg>