<?xml version="1.0" encoding="UTF-8" standalone="no"?>
<svg viewBox="0 0 124 125" version="1.1" xmlns="http://www.w3.org/2000/svg" xmlns:xlink="http://www.w3.org/1999/xlink">
    <!-- Generator: sketchtool 3.8.3 (29802) - http://www.bohemiancoding.com/sketch -->
    <title>track</title>
    <desc>Created with sketchtool.</desc>
    <defs>
        <filter x="-50%" y="-50%" width="200%" height="200%" filterUnits="objectBoundingBox" id="filter-1">
            <feOffset dx="0" dy="2" in="SourceAlpha" result="shadowOffsetOuter1"></feOffset>
            <feGaussianBlur stdDeviation="2" in="shadowOffsetOuter1" result="shadowBlurOuter1"></feGaussianBlur>
            <feColorMatrix values="0 0 0 0 0   0 0 0 0 0   0 0 0 0 0  0 0 0 0.208559783 0" type="matrix" in="shadowBlurOuter1" result="shadowMatrixOuter1"></feColorMatrix>
            <feMerge>
                <feMergeNode in="shadowMatrixOuter1"></feMergeNode>
                <feMergeNode in="SourceGraphic"></feMergeNode>
            </feMerge>
        </filter>
    </defs>
    <g id="Welcome" stroke="none" stroke-width="1" fill="none" fill-rule="evenodd">
        <g id="Home_Des_1" transform="translate(-640.000000, -712.000000)">
            <g id="track" filter="url(#filter-1)" transform="translate(644.000000, 714.121940)">
                <path d="M115.19109,58.4051262 C115.19109,90.6612291 89.404531,116.810252 57.5955452,116.810252 C25.7865593,116.810252 0,90.6612291 0,58.4051262 C0,26.1490233 25.7865593,0 57.5955452,0 C89.404531,0 115.19109,26.1490233 115.19109,58.4051262" id="Fill-1" fill="#FFFFFF"></path>
                <path d="M67.0779871,36.7645294 L67.2714491,36.6641923 C67.6613266,36.4200889 68.0408665,36.5324064 68.2904472,36.668685 C68.7393971,36.9142861 69.2282208,37.5043276 69.2548034,38.4253315 L69.7199982,54.9434993 C63.5277386,55.7147464 58.3131266,59.8989496 56.1451712,65.8293162 L48.8349674,63.310408 L48.3166075,44.7315876 L67.0779871,36.7645294 Z" id="Fill-3" fill="#E0E0E0"></path>
                <polygon id="Fill-5" fill="#E0E0E0" points="45.3180948 80.8210136 40.8226887 80.9513019 36.2017538 64.7101842 43.083683 66.3649961 42.1444326 72.5095149"></polygon>
                <path d="M33.7695973,59.0728914 C32.6014415,58.7973391 31.716833,58.6296115 31.0699907,58.506811 C30.8912968,58.4738645 30.7096493,58.4394205 30.5472004,58.406474 L30.2666067,48.455139 L47.2602461,44.9268704 L47.5880977,61.7160978 L33.7695973,59.0728914 Z" id="Fill-7" fill="#00C17B"></path>
                <path d="M72.5040782,82.3328078 C65.8407167,82.0767238 60.6246278,76.3724898 60.8771621,69.615466 C61.1282196,62.8584422 66.7533845,57.5690343 73.4167461,57.8236208 C80.0815844,58.0797048 85.2976733,63.7839388 85.045139,70.5409626 C84.7940815,77.2979864 79.1674397,82.5888918 72.5040782,82.3328078" id="Fill-9" fill="#00C17B"></path>
                <path d="M72.9607075,80.5784077 C66.2929155,80.5784077 60.8671198,75.0763453 60.8671198,68.3148288 C60.8671198,61.5533122 66.2929155,56.0512498 72.9607075,56.0512498 C79.6284995,56.0512498 85.0542952,61.5533122 85.0542952,68.3148288 C85.0542952,75.0763453 79.6284995,80.5784077 72.9607075,80.5784077 L72.9607075,80.5784077 Z M33.8134585,58.5267286 C32.634965,58.2961033 31.7459261,58.1628198 31.0946534,58.0654779 C30.9144827,58.0385217 30.7328352,58.0115655 30.5689094,57.9846093 L29.9176367,48.0512451 L46.7665489,43.8745298 L47.7205674,60.6382986 L33.8134585,58.5267286 Z M44.6384674,77.7150589 L40.1519221,78.0175675 L34.9284492,61.9651432 L41.867974,63.3563833 L41.1576289,69.532351 L44.6384674,77.7150589 Z M67.9912457,34.2856061 L68.1802772,34.1762837 C68.5612939,33.9187021 68.9452642,34.016044 69.1992754,34.1433372 C69.6570861,34.3709675 70.1665852,34.9430382 70.2271343,35.8625445 L71.3066816,52.3492634 C65.1483887,53.3571262 60.093272,57.7390082 58.1468379,63.7472484 L50.7495024,61.5098828 L49.5399959,42.9655064 L67.9912457,34.2856061 Z M74.1731676,53.0815738 L73.0315943,35.6723535 C72.9149264,33.8917459 71.9225109,32.3252905 70.4397948,31.5854922 C69.2169971,30.9744848 67.8361808,31.0343875 66.7197133,31.7412392 L47.6053763,40.731136 L29.0138297,45.3406482 L28.9429429,45.3616142 C27.7777407,45.7165376 27.0201378,46.8247375 27.1013623,48.0557378 L27.8146609,58.9550329 C27.9136071,60.4690735 29.25898,60.6712451 30.6841005,60.8853972 C30.9617406,60.9273291 31.2940226,60.9782464 31.6676552,61.0381491 L38.1656142,81.0082095 L48.7956843,80.2923723 L44.0374062,69.1040467 L44.7315063,63.0673528 L47.88597,63.5465744 L47.8904005,63.6199552 L57.9740513,66.6704998 C57.9164557,67.2111216 57.8854428,67.7592313 57.8854428,68.3148288 C57.8854428,76.7446353 64.6477505,83.6019961 72.9607075,83.6019961 C81.2736645,83.6019961 88.0359722,76.7446353 88.0359722,68.3148288 C88.0359722,60.2998484 81.9205068,53.7105521 74.1731676,53.0815738 L74.1731676,53.0815738 Z" id="Fill-11" fill="#4F4F4F"></path>
                <polygon id="Fill-13" fill="#4F4F4F" points="74.4516937 62.2672026 71.4700166 62.2672026 71.4700166 66.7748803 67.024822 66.6925141 66.9716569 69.7161025 71.4700166 69.7999663 71.4700166 74.363054 74.4516937 74.363054 74.4516937 69.8553763 78.8968884 69.9362449 78.9515303 66.914154 74.4516937 66.8302903"></polygon>
            </g>
        </g>
    </g>
</svg>