<?xml version="1.0" encoding="UTF-8" standalone="no"?>
<svg width="57px" height="56px" viewBox="0 0 57 56" version="1.1" xmlns="http://www.w3.org/2000/svg" xmlns:xlink="http://www.w3.org/1999/xlink">
    <!-- Generator: sketchtool 3.8.3 (29802) - http://www.bohemiancoding.com/sketch -->
    <title>twitter</title>
    <desc>Created with sketchtool.</desc>
    <defs>
        <filter x="-50%" y="-50%" width="200%" height="200%" filterUnits="objectBoundingBox" id="filter-1">
            <feOffset dx="0" dy="2" in="SourceAlpha" result="shadowOffsetOuter1"></feOffset>
            <feGaussianBlur stdDeviation="2" in="shadowOffsetOuter1" result="shadowBlurOuter1"></feGaussianBlur>
            <feColorMatrix values="0 0 0 0 0   0 0 0 0 0   0 0 0 0 0  0 0 0 0.5 0" type="matrix" in="shadowBlurOuter1" result="shadowMatrixOuter1"></feColorMatrix>
            <feMerge>
                <feMergeNode in="shadowMatrixOuter1"></feMergeNode>
                <feMergeNode in="SourceGraphic"></feMergeNode>
            </feMerge>
        </filter>
        <polygon id="path-2" points="48.0026 7.10542736e-15 0 7.10542736e-15 0 47.9995 48.0026 47.9995 48.0026 0"></polygon>
    </defs>
    <g id="Welcome" stroke="none" stroke-width="1" fill="none" fill-rule="evenodd">
        <g id="Home_Des_1" transform="translate(-581.000000, -3093.000000)">
            <g id="twitter" filter="url(#filter-1)" transform="translate(585.396380, 3094.731308)">
                <mask id="mask-3" fill="white">
                    <use xlink:href="#path-2"></use>
                </mask>
                <g id="Clip-2"></g>
                <path d="M35.9326,17.9775 C35.9446,18.2365 35.9486,18.4995 35.9486,18.7615 C35.9486,26.7685 29.7586,35.9995 18.4366,35.9995 C14.9616,35.9995 11.7256,34.9975 8.9996,33.2785 C9.4826,33.3345 9.9706,33.3625 10.4686,33.3625 C13.3546,33.3625 16.0066,32.3945 18.1146,30.7695 C15.4206,30.7205 13.1496,28.9675 12.3646,26.5615 C12.7416,26.6315 13.1256,26.6705 13.5226,26.6705 C14.0846,26.6705 14.6276,26.5965 15.1456,26.4575 C12.3286,25.9005 10.2066,23.4515 10.2066,20.5165 L10.2066,20.4405 C11.0366,20.8945 11.9876,21.1655 12.9956,21.1975 C11.3446,20.1115 10.2556,18.2575 10.2556,16.1555 C10.2556,15.0445 10.5606,14.0035 11.0896,13.1095 C14.1256,16.7745 18.6616,19.1865 23.7766,19.4395 C23.6726,18.9955 23.6186,18.5335 23.6186,18.0595 C23.6186,14.7125 26.3736,11.9995 29.7726,11.9995 C31.5436,11.9995 33.1436,12.7365 34.2646,13.9135 C35.6666,13.6415 36.9856,13.1375 38.1746,12.4425 C37.7136,13.8585 36.7396,15.0455 35.4676,15.7945 C36.7136,15.6475 37.8996,15.3235 39.0026,14.8405 C38.1786,16.0565 37.1336,17.1235 35.9326,17.9775 M24.0026,-0.0005 C10.7456,-0.0005 -0.0004,10.7445 -0.0004,23.9995 C-0.0004,37.2535 10.7456,47.9995 24.0026,47.9995 C37.2566,47.9995 48.0026,37.2535 48.0026,23.9995 C48.0026,10.7445 37.2566,-0.0005 24.0026,-0.0005" id="Fill-1" fill="#FFFFFF" mask="url(#mask-3)"></path>
            </g>
        </g>
    </g>
</svg>